<?xml version="1.0" encoding="UTF-8"?><svg id="Layer_1" xmlns="http://www.w3.org/2000/svg" viewBox="0 0 1464.82 1057.96"><defs><style>.cls-1{fill:#50e3c2;}</style></defs><path class="cls-1" d="M1244.65,564.25v-275.84h-167.11l-150.18,249.93c.08-3.27.12-6.56.12-9.89.23-69.25-18.05-127.74-54.84-175.47s-89.1-71.59-156.94-71.59-120.22,23.75-157.15,71.24c-36.7,47.73-55.05,106.33-55.05,175.82-.06,12.35.42,24.27,1.42,35.8h-32.53v-275.84h-167.11l-174.79,290.88v111.29h196.94v77.21h144.95v-77.21h55.81v-33.9c15.68,33.96,38.8,62.11,69.41,84.43,32.65,23.86,71.95,35.67,117.89,35.44,45.94,0,85.24-11.93,117.89-35.8,30.59-22.13,53.7-50.32,69.37-84.52v34.33h196.94v77.21h144.95v-77.21h55.81v-126.34h-55.81Z"/></svg>