<svg version="1.1" xmlns="http://www.w3.org/2000/svg" xmlns:xlink="http://www.w3.org/1999/xlink" x="0px" y="0px" width="434.5px"
	 height="52.5px" viewBox="0 0 434.5 52.5" style="enable-background:new 0 0 434.5 52.5;" xml:space="preserve">
<style type="text/css">
	.st0{fill:#1D1D1B;}
	.st1{fill:#ED7203;}
	.st2{fill:#BDB400;}
</style>
<defs>
</defs>
<g>
	<path class="st0" d="M51.7,4.6V0H0v51.7h4.6C4.6,25.7,25.7,4.6,51.7,4.6"/>
	<path class="st1" d="M51.7,20.3V6.6C26.8,6.6,6.6,26.8,6.6,51.7h13.7C20.3,34.4,34.4,20.3,51.7,20.3"/>
	<path class="st2" d="M51.7,36V22.3c-16.2,0-29.4,13.2-29.4,29.4H36C36,43,43,36,51.7,36"/>
	<path class="st0" d="M51.7,38C44.2,38,38,44.2,38,51.7h13.7V38z"/>
</g>
<g>
	<g>
		<path class="st0" d="M107,51.6l-3-8H83.7l-3,8H69.3L87.5,4.2h12.7l18.3,47.4H107z M93.9,14.3l-7.4,20.4h14.8L93.9,14.3z"/>
	</g>
	<g>
		<path class="st0" d="M121.4,47.8c0-2.4,2-4.4,4.4-4.4c2.4,0,4.4,2,4.4,4.4c0,2.4-2,4.4-4.4,4.4C123.4,52.2,121.4,50.2,121.4,47.8z
			"/>
	</g>
	<g>
		<path class="st0" d="M128.7,28c0-15,11.4-24.5,25.3-24.5c9.8,0,16,5,19.5,10.6l-8.3,4.5c-2.2-3.3-6.3-6.2-11.2-6.2
			c-8.7,0-14.9,6.6-14.9,15.6c0,9,6.3,15.6,14.9,15.6c4.2,0,8.1-1.8,10-3.6v-5.7h-12.5v-8.8h22.6v18.2c-4.8,5.4-11.6,8.9-20.1,8.9
			C140.1,52.5,128.7,42.9,128.7,28z"/>
	</g>
	<g>
		<path class="st0" d="M177.9,47.8c0-2.4,2-4.4,4.4-4.4c2.4,0,4.4,2,4.4,4.4c0,2.4-2,4.4-4.4,4.4C179.9,52.2,177.9,50.2,177.9,47.8z
			"/>
	</g>
	<g>
		<path class="st0" d="M186.3,28c0-14.6,11-24.5,25.3-24.5c10.4,0,16.4,5.6,19.8,11.6l-8.7,4.3c-2-3.8-6.3-6.9-11.1-6.9
			c-8.7,0-14.9,6.6-14.9,15.6c0,9,6.3,15.6,14.9,15.6c4.8,0,9.1-3.1,11.1-6.9l8.7,4.2c-3.3,5.9-9.4,11.7-19.8,11.7
			C197.3,52.5,186.3,42.5,186.3,28z"/>
		<path class="st0" d="M232.8,34.4c0-9.7,6.8-18,18.1-18c11.4,0,18.2,8.2,18.2,18s-6.8,18.1-18.2,18.1
			C239.6,52.5,232.8,44.2,232.8,34.4z M259.8,34.4c0-5.3-3.1-10-8.8-10c-5.6,0-8.7,4.6-8.7,10c0,5.4,3.1,10,8.7,10
			C256.6,44.4,259.8,39.8,259.8,34.4z"/>
		<path class="st0" d="M272.3,34.4c0-9.7,6.8-18,18.1-18c11.4,0,18.2,8.2,18.2,18s-6.8,18.1-18.2,18.1
			C279.1,52.5,272.3,44.2,272.3,34.4z M299.2,34.4c0-5.3-3.1-10-8.8-10c-5.6,0-8.7,4.6-8.7,10c0,5.4,3.1,10,8.7,10
			C296.1,44.4,299.2,39.8,299.2,34.4z"/>
		<path class="st0" d="M354.4,51.6V30c0-3.2-1.4-5.5-5.1-5.5c-3.2,0-5.8,2.1-7.1,4v23.2h-9.1V30c0-3.2-1.4-5.5-5.1-5.5
			c-3.1,0-5.8,2.1-7.1,4v23.2h-9V17.3h9v4.4c1.5-2,6-5.3,11.2-5.3c5,0,8.3,2.3,9.5,6.2c2-3.1,6.5-6.2,11.8-6.2
			c6.3,0,10.1,3.3,10.1,10.4v24.8H354.4z"/>
		<path class="st0" d="M369,51.6V4.2h9v17.5c2.7-3.6,6.5-5.3,10.6-5.3c8.7,0,15.2,6.8,15.2,18c0,11.5-6.5,18.1-15.2,18.1
			c-4.1,0-7.9-1.8-10.6-5.3v4.4H369z M385.9,44.4c5.2,0,8.7-4.1,8.7-10c0-5.9-3.5-10-8.7-10c-3,0-6.3,1.7-7.8,4v12.2
			C379.6,42.8,382.9,44.4,385.9,44.4z"/>
		<path class="st0" d="M404.2,47.2l3.9-6.5c2.6,2.4,7.6,4.8,11.9,4.8c3.9,0,5.8-1.5,5.8-3.6c0-5.6-20.3-1-20.3-14.5
			c0-5.8,5-10.8,14.1-10.8c5.8,0,10.4,2,13.8,4.7l-3.6,6.4c-2.1-2.1-6-4-10.2-4c-3.3,0-5.4,1.4-5.4,3.3c0,5,20.4,0.8,20.4,14.6
			c0,6.3-5.4,10.9-14.9,10.9C413.6,52.5,407.8,50.5,404.2,47.2z"/>
	</g>
</g>
</svg>
