<svg version="1.1" xmlns="http://www.w3.org/2000/svg" xmlns:xlink="http://www.w3.org/1999/xlink" x="0px" y="0px" width="125.8px"
	 height="63px" viewBox="0 0 125.8 63" style="enable-background:new 0 0 125.8 63;" xml:space="preserve">
<style type="text/css">
	.st0{fill-rule:evenodd;clip-rule:evenodd;fill:#010101;}
	.st1{fill:#010101;}
</style>
<defs>
</defs>
<g>
	<g>
		<path class="st0" d="M5.4,60.3H2.3L2,61.2c-0.1,0.3-0.2,0.5-0.2,0.7c0,0.2,0.1,0.4,0.3,0.5c0.1,0.1,0.4,0.1,0.9,0.2v0.2H0v-0.2
			c0.3,0,0.6-0.2,0.8-0.4C1,62,1.2,61.5,1.5,60.9l3.2-7h0.1L8,61.1c0.3,0.7,0.6,1.1,0.7,1.3c0.1,0.1,0.4,0.2,0.6,0.2v0.2H5.1v-0.2
			h0.2c0.3,0,0.6,0,0.7-0.1c0.1-0.1,0.1-0.2,0.1-0.3c0-0.1,0-0.2,0-0.2c0,0-0.1-0.2-0.2-0.5L5.4,60.3z M5.2,59.8l-1.3-3l-1.4,3H5.2z
			"/>
		<path class="st0" d="M14.8,56.7v4.8c0,0.5,0,0.8,0.1,0.9c0.1,0.1,0.3,0.2,0.5,0.2v0.2H13V62c-0.3,0.3-0.6,0.6-0.9,0.8
			c-0.3,0.2-0.6,0.2-1,0.2c-0.3,0-0.6-0.1-0.9-0.3c-0.3-0.2-0.4-0.5-0.5-0.7c-0.1-0.3-0.1-0.8-0.1-1.5v-2.4c0-0.5,0-0.7-0.1-0.9
			C9.3,57.1,9.1,57,8.9,57v-0.2h2.5v4.2c0,0.4,0,0.7,0.1,0.8c0,0.1,0.1,0.2,0.2,0.3c0.1,0.1,0.2,0.1,0.3,0.1c0.2,0,0.3,0,0.4-0.1
			c0.2-0.1,0.4-0.3,0.6-0.7v-3.3c0-0.5,0-0.7-0.1-0.9c-0.1-0.1-0.3-0.2-0.5-0.2v-0.2H14.8z"/>
		<path class="st0" d="M19.7,56.6l0.1,2.1h-0.2c-0.3-0.6-0.5-1-0.8-1.3c-0.3-0.2-0.6-0.3-0.8-0.3c-0.2,0-0.3,0.1-0.5,0.2
			c-0.1,0.1-0.2,0.3-0.2,0.4c0,0.1,0,0.2,0.1,0.3c0.1,0.2,0.5,0.5,1.2,0.9c0.6,0.4,1.1,0.8,1.3,1.1c0.2,0.3,0.3,0.6,0.3,1
			c0,0.3-0.1,0.7-0.3,1c-0.2,0.3-0.4,0.6-0.7,0.7c-0.3,0.2-0.6,0.3-1,0.3c-0.3,0-0.7-0.1-1.2-0.3c-0.1,0-0.2-0.1-0.3-0.1
			c-0.1,0-0.3,0.1-0.4,0.3h-0.2L16,60.8h0.2c0.2,0.6,0.5,1,0.8,1.3c0.3,0.3,0.7,0.4,1,0.4c0.2,0,0.4-0.1,0.5-0.2
			c0.1-0.1,0.2-0.3,0.2-0.5c0-0.2-0.1-0.4-0.2-0.5c-0.1-0.2-0.4-0.4-0.9-0.7c-0.7-0.5-1.1-0.8-1.3-1.1c-0.3-0.4-0.4-0.7-0.4-1.2
			c0-0.5,0.2-0.9,0.5-1.3c0.3-0.4,0.8-0.6,1.4-0.6c0.3,0,0.6,0.1,1,0.2c0.1,0.1,0.2,0.1,0.3,0.1c0.1,0,0.1,0,0.2,0
			c0,0,0.1-0.1,0.2-0.3H19.7z"/>
		<path class="st0" d="M22.9,54.5v2.2h1.4v0.6h-1.4v3.8c0,0.4,0,0.6,0,0.7c0,0.1,0.1,0.2,0.2,0.2c0.1,0.1,0.2,0.1,0.2,0.1
			c0.3,0,0.5-0.2,0.8-0.6l0.2,0.1c-0.4,0.8-0.9,1.2-1.7,1.2c-0.4,0-0.7-0.1-1-0.3c-0.3-0.2-0.4-0.5-0.5-0.7c0-0.1-0.1-0.5-0.1-1.2
			v-3.3h-0.8v-0.2c0.5-0.4,1-0.8,1.4-1.2c0.4-0.4,0.7-0.9,1-1.4H22.9z"/>
		<path class="st0" d="M27.4,56.7v1.4c0.4-0.6,0.8-1,1.1-1.3c0.3-0.2,0.6-0.3,0.9-0.3c0.2,0,0.4,0.1,0.6,0.2
			c0.1,0.1,0.2,0.4,0.2,0.6c0,0.3-0.1,0.5-0.2,0.7c-0.1,0.2-0.3,0.2-0.5,0.2c-0.2,0-0.4-0.1-0.6-0.2c-0.2-0.1-0.3-0.2-0.3-0.2
			c0,0-0.1,0-0.2,0c-0.1,0-0.2,0-0.4,0.1c-0.2,0.1-0.3,0.4-0.4,0.6c-0.1,0.4-0.2,0.9-0.2,1.4v1.4l0,0.4c0,0.2,0,0.4,0,0.5
			c0.1,0.1,0.1,0.2,0.2,0.3c0.1,0.1,0.3,0.1,0.5,0.1v0.2h-3.3v-0.2c0.3,0,0.4-0.1,0.5-0.2c0.1-0.1,0.1-0.5,0.1-1V58
			c0-0.3,0-0.6-0.1-0.7c0-0.1-0.1-0.2-0.2-0.3C25.2,57,25.1,57,24.9,57v-0.2H27.4z"/>
		<path class="st0" d="M33.4,61.9c-0.7,0.7-1.4,1-2,1c-0.3,0-0.6-0.1-0.9-0.3c-0.2-0.2-0.3-0.5-0.3-0.9c0-0.5,0.2-0.9,0.6-1.3
			c0.4-0.4,1.3-0.9,2.6-1.5v-0.6c0-0.5,0-0.7-0.1-0.9c0-0.1-0.1-0.2-0.3-0.3c-0.1-0.1-0.3-0.1-0.5-0.1c-0.3,0-0.5,0.1-0.7,0.2
			c-0.1,0.1-0.2,0.2-0.2,0.3c0,0.1,0.1,0.2,0.2,0.3c0.2,0.2,0.2,0.4,0.2,0.5c0,0.2-0.1,0.4-0.2,0.5c-0.2,0.1-0.4,0.2-0.6,0.2
			c-0.3,0-0.5-0.1-0.7-0.2c-0.2-0.2-0.3-0.4-0.3-0.6c0-0.3,0.1-0.6,0.4-0.9c0.2-0.3,0.6-0.5,1-0.7c0.4-0.2,0.9-0.2,1.4-0.2
			c0.6,0,1,0.1,1.4,0.4c0.3,0.2,0.6,0.5,0.7,0.8c0.1,0.2,0.1,0.6,0.1,1.3v2.4c0,0.3,0,0.5,0,0.5c0,0.1,0.1,0.1,0.1,0.2
			c0,0,0.1,0.1,0.1,0.1c0.1,0,0.2-0.1,0.3-0.2l0.2,0.2c-0.2,0.3-0.4,0.6-0.7,0.7c-0.2,0.1-0.5,0.2-0.8,0.2c-0.3,0-0.6-0.1-0.8-0.2
			C33.6,62.5,33.5,62.3,33.4,61.9z M33.4,61.5v-2c-0.5,0.3-0.9,0.6-1.2,1c-0.2,0.2-0.3,0.5-0.3,0.7c0,0.2,0.1,0.4,0.2,0.5
			c0.1,0.1,0.3,0.2,0.5,0.2C32.9,61.8,33.2,61.7,33.4,61.5z"/>
		<path class="st0" d="M38.7,54v7.6c0,0.4,0,0.7,0.1,0.8c0.1,0.1,0.3,0.2,0.6,0.2v0.2h-3.3v-0.2c0.3,0,0.5-0.1,0.6-0.2
			c0.1-0.1,0.1-0.4,0.1-0.8v-6.3c0-0.4-0.1-0.7-0.2-0.8c-0.1-0.1-0.3-0.2-0.6-0.2V54H38.7z"/>
		<path class="st0" d="M41.5,53.8c0.3,0,0.5,0.1,0.7,0.3c0.2,0.2,0.3,0.4,0.3,0.7c0,0.3-0.1,0.5-0.3,0.7c-0.2,0.2-0.4,0.3-0.7,0.3
			c-0.3,0-0.5-0.1-0.7-0.3c-0.2-0.2-0.3-0.4-0.3-0.7c0-0.3,0.1-0.5,0.3-0.7C41,53.9,41.3,53.8,41.5,53.8z M42.4,56.7v4.8
			c0,0.4,0.1,0.7,0.2,0.8c0.1,0.1,0.3,0.2,0.6,0.2v0.2h-3.3v-0.2c0.3,0,0.5-0.1,0.6-0.2c0.1-0.1,0.1-0.4,0.1-0.8V58
			c0-0.4,0-0.7-0.2-0.8c-0.1-0.1-0.3-0.2-0.6-0.2v-0.2H42.4z"/>
		<path class="st0" d="M46.7,61.9c-0.7,0.7-1.4,1-2,1c-0.3,0-0.6-0.1-0.9-0.3c-0.2-0.2-0.3-0.5-0.3-0.9c0-0.5,0.2-0.9,0.6-1.3
			c0.4-0.4,1.3-0.9,2.6-1.5v-0.6c0-0.5,0-0.7-0.1-0.9c0-0.1-0.1-0.2-0.3-0.3c-0.1-0.1-0.3-0.1-0.5-0.1c-0.3,0-0.5,0.1-0.7,0.2
			c-0.1,0.1-0.2,0.2-0.2,0.3c0,0.1,0.1,0.2,0.2,0.3c0.2,0.2,0.2,0.4,0.2,0.5c0,0.2-0.1,0.4-0.2,0.5c-0.2,0.1-0.4,0.2-0.6,0.2
			c-0.3,0-0.5-0.1-0.7-0.2c-0.2-0.2-0.3-0.4-0.3-0.6c0-0.3,0.1-0.6,0.4-0.9c0.2-0.3,0.6-0.5,1-0.7c0.4-0.2,0.9-0.2,1.4-0.2
			c0.6,0,1,0.1,1.4,0.4c0.3,0.2,0.6,0.5,0.7,0.8c0.1,0.2,0.1,0.6,0.1,1.3v2.4c0,0.3,0,0.5,0,0.5c0,0.1,0.1,0.1,0.1,0.2
			c0,0,0.1,0.1,0.2,0.1c0.1,0,0.2-0.1,0.3-0.2l0.2,0.2c-0.2,0.3-0.4,0.6-0.7,0.7c-0.2,0.1-0.5,0.2-0.8,0.2c-0.3,0-0.6-0.1-0.8-0.2
			C46.9,62.5,46.8,62.3,46.7,61.9z M46.7,61.5v-2c-0.5,0.3-0.9,0.6-1.2,1c-0.2,0.2-0.3,0.5-0.3,0.7c0,0.2,0.1,0.4,0.2,0.5
			c0.1,0.1,0.3,0.2,0.5,0.2C46.2,61.8,46.4,61.7,46.7,61.5z"/>
		<path class="st0" d="M52,56.7v0.8c0.3-0.3,0.6-0.6,0.9-0.7c0.3-0.2,0.6-0.2,0.9-0.2c0.4,0,0.7,0.1,1,0.3c0.3,0.2,0.4,0.5,0.5,0.8
			c0.1,0.2,0.1,0.7,0.1,1.4v2.4c0,0.5,0,0.8,0.1,0.9c0.1,0.1,0.3,0.2,0.5,0.2v0.2H53v-0.2c0.2,0,0.4-0.1,0.5-0.3
			c0.1-0.1,0.1-0.4,0.1-0.8v-2.7c0-0.5,0-0.8-0.1-0.9c0-0.1-0.1-0.2-0.2-0.3c-0.1-0.1-0.2-0.1-0.3-0.1c-0.4,0-0.7,0.3-1,0.8v3.3
			c0,0.5,0,0.7,0.1,0.9c0.1,0.1,0.2,0.2,0.5,0.2v0.2h-3.1v-0.2c0.3,0,0.4-0.1,0.5-0.2c0.1-0.1,0.1-0.4,0.1-0.8v-3.4
			c0-0.5,0-0.7-0.1-0.9C50,57.1,49.8,57,49.5,57v-0.2H52z"/>
		<path class="st0" d="M68.1,53.8v3.1h-0.2c-0.3-0.9-0.7-1.5-1.3-1.9c-0.6-0.4-1.2-0.7-1.9-0.7c-0.7,0-1.2,0.2-1.6,0.6
			c-0.4,0.4-0.7,0.9-0.9,1.6c-0.2,0.7-0.3,1.3-0.3,2c0,0.8,0.1,1.6,0.3,2.2c0.2,0.6,0.5,1.1,1,1.4c0.4,0.3,1,0.4,1.6,0.4
			c0.2,0,0.4,0,0.7-0.1c0.2,0,0.5-0.1,0.7-0.2v-1.8c0-0.3,0-0.6-0.1-0.7c0-0.1-0.1-0.2-0.3-0.3c-0.1-0.1-0.3-0.1-0.5-0.1h-0.2v-0.2
			h4.3v0.2c-0.3,0-0.6,0.1-0.7,0.1c-0.1,0.1-0.2,0.2-0.3,0.3c0,0.1-0.1,0.3-0.1,0.6v1.8c-0.6,0.3-1.2,0.4-1.8,0.6
			C65.7,63,65.1,63,64.4,63c-0.8,0-1.5-0.1-2.1-0.3c-0.6-0.2-1-0.5-1.5-0.9c-0.4-0.4-0.8-0.8-1-1.3c-0.3-0.6-0.5-1.3-0.5-2
			c0-1.3,0.5-2.5,1.4-3.4c0.9-0.9,2.1-1.4,3.5-1.4c0.4,0,0.8,0,1.2,0.1c0.2,0,0.5,0.1,0.9,0.3c0.4,0.2,0.7,0.2,0.8,0.2
			c0.1,0,0.2,0,0.3-0.1c0.1-0.1,0.2-0.3,0.3-0.5H68.1z"/>
		<path class="st0" d="M72.3,56.6c0.5,0,1,0.1,1.5,0.4c0.5,0.3,0.8,0.7,1,1.2c0.2,0.5,0.4,1.1,0.4,1.7c0,0.9-0.2,1.6-0.7,2.2
			C74,62.7,73.3,63,72.3,63c-0.9,0-1.6-0.3-2.1-1c-0.5-0.6-0.7-1.4-0.7-2.2c0-0.9,0.2-1.6,0.8-2.3C70.7,56.9,71.4,56.6,72.3,56.6z
			 M72.3,57c-0.2,0-0.4,0.1-0.6,0.3c-0.2,0.2-0.3,0.5-0.3,1c0,0.5-0.1,1.2-0.1,2.1c0,0.5,0,0.9,0.1,1.3c0,0.3,0.1,0.5,0.3,0.7
			c0.2,0.2,0.3,0.2,0.5,0.2c0.2,0,0.4-0.1,0.5-0.2c0.2-0.1,0.3-0.4,0.3-0.6c0.1-0.4,0.1-1.2,0.1-2.5c0-0.7,0-1.2-0.1-1.5
			c-0.1-0.3-0.2-0.5-0.4-0.6C72.7,57.1,72.5,57,72.3,57z"/>
		<path class="st0" d="M78.1,63L76,58.3c-0.2-0.6-0.4-0.9-0.6-1.1C75.3,57.1,75.2,57,75,57v-0.2h3.2V57c-0.2,0-0.3,0-0.4,0.1
			c-0.1,0.1-0.2,0.2-0.2,0.3c0,0.2,0.1,0.5,0.3,0.9l1,2.3l0.8-2c0.2-0.6,0.3-1,0.3-1.2c0-0.1-0.1-0.2-0.2-0.3
			C79.8,57,79.7,57,79.4,57v-0.2h2V57c-0.2,0-0.3,0.1-0.5,0.2c-0.1,0.1-0.3,0.5-0.5,1l-2,4.8H78.1z"/>
		<path class="st0" d="M86.2,59.6h-3.3c0,0.8,0.3,1.4,0.6,1.9c0.3,0.4,0.7,0.5,1.1,0.5c0.3,0,0.5-0.1,0.7-0.2
			c0.2-0.1,0.4-0.4,0.7-0.8l0.2,0.1c-0.3,0.7-0.7,1.2-1.1,1.4c-0.4,0.3-0.9,0.4-1.4,0.4c-0.9,0-1.6-0.3-2.1-1
			c-0.4-0.6-0.6-1.3-0.6-2.1c0-1,0.3-1.8,0.8-2.4c0.6-0.6,1.2-0.9,1.9-0.9c0.6,0,1.2,0.3,1.6,0.8C85.9,57.8,86.2,58.6,86.2,59.6z
			 M84.6,59.1c0-0.7,0-1.2-0.1-1.4c-0.1-0.3-0.2-0.5-0.4-0.6C84,57,83.9,57,83.8,57c-0.2,0-0.4,0.1-0.6,0.3
			c-0.3,0.4-0.4,0.9-0.4,1.6v0.2H84.6z"/>
		<path class="st0" d="M89.1,56.7v1.4c0.4-0.6,0.8-1,1.1-1.3c0.3-0.2,0.6-0.3,0.9-0.3c0.2,0,0.4,0.1,0.6,0.2
			c0.1,0.1,0.2,0.4,0.2,0.6c0,0.3-0.1,0.5-0.2,0.7c-0.1,0.2-0.3,0.2-0.5,0.2c-0.2,0-0.4-0.1-0.6-0.2c-0.2-0.1-0.3-0.2-0.3-0.2
			c0,0-0.1,0-0.1,0c-0.1,0-0.2,0-0.4,0.1c-0.2,0.1-0.3,0.4-0.4,0.6c-0.1,0.4-0.2,0.9-0.2,1.4v1.4l0,0.4c0,0.2,0,0.4,0,0.5
			c0.1,0.1,0.1,0.2,0.2,0.3c0.1,0.1,0.3,0.1,0.5,0.1v0.2h-3.3v-0.2c0.3,0,0.4-0.1,0.5-0.2c0.1-0.1,0.1-0.5,0.1-1V58
			c0-0.3,0-0.6-0.1-0.7c0-0.1-0.1-0.2-0.2-0.3C87,57,86.8,57,86.6,57v-0.2H89.1z"/>
		<path class="st0" d="M94.7,56.7v0.8c0.3-0.3,0.6-0.6,0.9-0.7c0.3-0.2,0.6-0.2,0.9-0.2c0.4,0,0.7,0.1,1,0.3
			c0.3,0.2,0.4,0.5,0.5,0.8c0.1,0.2,0.1,0.7,0.1,1.4v2.4c0,0.5,0,0.8,0.1,0.9c0.1,0.1,0.3,0.2,0.5,0.2v0.2h-3.1v-0.2
			c0.2,0,0.4-0.1,0.5-0.3c0.1-0.1,0.1-0.4,0.1-0.8v-2.7c0-0.5,0-0.8-0.1-0.9c0-0.1-0.1-0.2-0.2-0.3c-0.1-0.1-0.2-0.1-0.3-0.1
			c-0.4,0-0.7,0.3-1,0.8v3.3c0,0.5,0,0.7,0.1,0.9c0.1,0.1,0.2,0.2,0.5,0.2v0.2h-3.1v-0.2c0.3,0,0.4-0.1,0.5-0.2
			c0.1-0.1,0.1-0.4,0.1-0.8v-3.4c0-0.5,0-0.7-0.1-0.9c-0.1-0.1-0.3-0.2-0.5-0.2v-0.2H94.7z"/>
		<path class="st0" d="M101.8,56.7v0.8c0.3-0.4,0.6-0.6,0.9-0.8c0.3-0.1,0.6-0.2,0.9-0.2c0.4,0,0.7,0.1,1,0.3
			c0.3,0.2,0.5,0.5,0.6,0.8c0.3-0.4,0.7-0.7,1-0.8c0.3-0.2,0.7-0.3,1-0.3c0.4,0,0.8,0.1,1,0.3c0.3,0.2,0.4,0.4,0.5,0.7
			c0.1,0.3,0.2,0.8,0.2,1.4v2.5c0,0.5,0,0.8,0.1,0.9c0.1,0.1,0.3,0.2,0.5,0.2v0.2h-3.1v-0.2c0.2,0,0.4-0.1,0.5-0.3
			c0.1-0.1,0.1-0.4,0.1-0.8v-2.6c0-0.5,0-0.9-0.1-1c0-0.1-0.1-0.3-0.2-0.3c-0.1-0.1-0.2-0.1-0.3-0.1c-0.2,0-0.4,0.1-0.6,0.2
			c-0.2,0.1-0.4,0.3-0.6,0.6v3.3c0,0.4,0,0.7,0.1,0.8c0.1,0.2,0.3,0.3,0.6,0.3v0.2h-3.2v-0.2c0.2,0,0.3,0,0.4-0.1
			c0.1-0.1,0.2-0.2,0.2-0.3c0-0.1,0.1-0.3,0.1-0.7v-2.6c0-0.6,0-0.9-0.1-1c0-0.1-0.1-0.2-0.2-0.3c-0.1-0.1-0.2-0.1-0.3-0.1
			c-0.2,0-0.3,0-0.5,0.1c-0.2,0.1-0.4,0.4-0.7,0.7v3.3c0,0.4,0,0.7,0.1,0.9c0.1,0.1,0.3,0.2,0.5,0.2v0.2h-3.1v-0.2
			c0.3,0,0.4-0.1,0.5-0.2c0.1-0.1,0.1-0.4,0.1-0.8v-3.4c0-0.5,0-0.7-0.1-0.9c-0.1-0.1-0.3-0.2-0.5-0.2v-0.2H101.8z"/>
		<path class="st0" d="M115,59.6h-3.3c0,0.8,0.3,1.4,0.6,1.9c0.3,0.4,0.7,0.5,1.1,0.5c0.3,0,0.5-0.1,0.7-0.2
			c0.2-0.1,0.4-0.4,0.7-0.8l0.2,0.1c-0.3,0.7-0.7,1.2-1.1,1.4c-0.4,0.3-0.9,0.4-1.4,0.4c-0.9,0-1.6-0.3-2.1-1
			c-0.4-0.6-0.6-1.3-0.6-2.1c0-1,0.3-1.8,0.8-2.4c0.6-0.6,1.2-0.9,1.9-0.9c0.6,0,1.2,0.3,1.6,0.8C114.7,57.8,114.9,58.6,115,59.6z
			 M113.4,59.1c0-0.7,0-1.2-0.1-1.4c-0.1-0.3-0.2-0.5-0.4-0.6c-0.1-0.1-0.2-0.1-0.4-0.1c-0.2,0-0.4,0.1-0.6,0.3
			c-0.3,0.4-0.4,0.9-0.4,1.6v0.2H113.4z"/>
		<path class="st0" d="M117.7,56.7v0.8c0.3-0.3,0.6-0.6,0.9-0.7c0.3-0.2,0.6-0.2,0.9-0.2c0.4,0,0.7,0.1,1,0.3
			c0.3,0.2,0.4,0.5,0.5,0.8c0.1,0.2,0.1,0.7,0.1,1.4v2.4c0,0.5,0,0.8,0.1,0.9c0.1,0.1,0.3,0.2,0.5,0.2v0.2h-3.1v-0.2
			c0.2,0,0.4-0.1,0.5-0.3c0.1-0.1,0.1-0.4,0.1-0.8v-2.7c0-0.5,0-0.8-0.1-0.9c0-0.1-0.1-0.2-0.2-0.3c-0.1-0.1-0.2-0.1-0.3-0.1
			c-0.4,0-0.7,0.3-1,0.8v3.3c0,0.5,0,0.7,0.1,0.9c0.1,0.1,0.2,0.2,0.5,0.2v0.2h-3.1v-0.2c0.3,0,0.4-0.1,0.5-0.2
			c0.1-0.1,0.1-0.4,0.1-0.8v-3.4c0-0.5,0-0.7-0.1-0.9c-0.1-0.1-0.3-0.2-0.5-0.2v-0.2H117.7z"/>
		<path class="st0" d="M124.4,54.5v2.2h1.4v0.6h-1.4v3.8c0,0.4,0,0.6,0,0.7c0,0.1,0.1,0.2,0.2,0.2c0.1,0.1,0.2,0.1,0.2,0.1
			c0.3,0,0.5-0.2,0.8-0.6l0.2,0.1c-0.4,0.8-0.9,1.2-1.7,1.2c-0.4,0-0.7-0.1-1-0.3c-0.3-0.2-0.4-0.5-0.5-0.7c0-0.1-0.1-0.5-0.1-1.2
			v-3.3h-0.8v-0.2c0.5-0.4,1-0.8,1.4-1.2c0.4-0.4,0.7-0.9,1-1.4H124.4z"/>
	</g>
	<g>
		<path class="st1" d="M52.1,38.3c0,0.1-0.1,0.1-0.2,0.2"/>
		<path class="st1" d="M53.6,26.3c0.2,0,0.3-0.1,0.3-0.3c0-0.2-0.1-0.3-0.3-0.3c-0.2,0-0.3,0.1-0.3,0.3
			C53.3,26.2,53.5,26.3,53.6,26.3z"/>
		<path class="st1" d="M68.4,12.9L68.4,12.9l-11.5,0v0h0l0,9.3c0,0.9,0.4,1.7,0.9,1.9l4.4,2.6c0.1,0.1,0.2,0.2,0.4,0.2
			c0.1,0,0.3-0.1,0.4-0.1l4.5-2.7c0.5-0.2,0.9-1,0.9-1.9L68.4,12.9L68.4,12.9z M60.7,15.6h-1v-2.4h1V15.6z M60,16.4l0.1-0.1
			l-0.1-0.2l0.2,0l0.1-0.2l0.1,0.2l0.2,0l-0.1,0.2l0.1,0.1l-0.2,0v0.2l-0.2-0.1l-0.2,0.1v-0.2L60,16.4z M57.2,19.3v-2.3h1.2v2.3
			H57.2z M57.4,16.1l0.2,0l0.1-0.2l0.1,0.2l0.2,0l-0.1,0.2l0.1,0.1l-0.2,0v0.2l-0.2-0.1l-0.2,0.1v-0.2l-0.2,0l0.1-0.1L57.4,16.1z
			 M58.8,18.4l0.2,0l0.1-0.2l0.1,0.2l0.2,0l-0.1,0.2l0.1,0.1l-0.2,0v0.2l-0.2-0.1l-0.2,0.1v-0.2l-0.2,0l0.1-0.1L58.8,18.4z
			 M59.6,16.6c0-0.1-0.1-0.1-0.1-0.1c-0.1,0-0.1,0.2-0.2,0.2c-0.1,0-0.1,0-0.1-0.1c0-0.1,0.1-0.1,0.2-0.2c-0.7,0-0.8,0.3-0.9,0.3
			c-0.2,0,0.2-0.4,0.3-0.5c-0.2,0-0.2-0.2-0.4-0.3c0.1-0.1,0.1-0.1,0.2,0c0-0.1,0.1-0.2,0.2-0.2c0.3,0,0.2,0.3,0.3,0.3
			c0.1,0,0-0.3,0.2-0.3c0.3,0,0.7,0.8,0.4,0.8C59.5,16.7,59.6,16.6,59.6,16.6z M58.8,14.1l0.1-0.1l-0.1-0.2l0.2,0l0.1-0.2l0.1,0.2
			l0.2,0l-0.1,0.2l0.1,0.1l-0.2,0v0.2l-0.2-0.1l-0.2,0.1v-0.2L58.8,14.1z M58.4,13.2v2.4h-1.2v-2.4H58.4z M60.7,25.4L58,23.8
			c-0.5-0.3-0.7-0.9-0.7-1.5v-2.6h3.5V25.4z M59.7,19.3v-2.3h1v2.3H59.7z M64.3,25.6L63,26.4h0c-0.1,0.1-0.2,0.1-0.3,0.1
			c-0.1,0-0.2,0-0.3-0.1l-1.3-0.8v-6h3.2V25.6z M64.3,19.3h-3.2v-6.2h3.2V19.3z M68.1,22.3c-0.1,0.7-0.3,1.2-0.7,1.5l-2.8,1.6v-5.8
			h3.5V22.3z M68.1,19.3h-3.5v-6.2h3.5V19.3z"/>
		<g>
			<path class="st1" d="M60.6,21.8c0,0-0.4,0.1-0.3,0.1c0-0.1,0.2-0.4,0.4-0.5c0-0.1-0.2,0-0.4,0.1c0.7-0.9,0.2-0.6-0.1-0.5
				c0.6-0.6,0.4-0.6,0-0.4c0.3-0.3,0.4-0.6,0.4-0.7c-0.3,0.4-0.6,0.4-0.6,0.7c0,0.3-0.1,0.7-0.2,0.8c-0.2,0.2,0-0.7-0.5-0.7
				c-0.1,0-0.5,0-0.6,0.2c0.1,0,0.2,0.2,0.2,0.3c0,0.1,0.1,0.3-0.1,0.3c-0.2,0-0.3-0.3-0.3-0.5c0-0.2,0-0.1,0-0.3
				c0-0.4-0.6-0.9-0.9-0.9c0,0.3,0.3,0.3,0.3,0.7c-0.1,0-0.3-0.3-0.3-0.1c0,0.2,0.2,0.2,0.2,0.3c0,0.1-0.2-0.1-0.2,0.1
				c0,0.1,0.1,0.1,0.2,0.2c-0.1,0-0.2,0-0.2,0c0,0,0,0.1,0.1,0.1c0,0-0.1,0.1-0.1,0.3c0,0.7,0.5,1.1,0.8,1.1c0.2,0,0.2-0.2,0.2-0.2
				c0,0.1,0.1-0.1,0.1,0.2c0,0.2-0.2,0.1-0.2,0.3c0,0.3,0.4,0,0.4,0.3c0,0.3,0,0.3,0,0.5c0,0.1,0.4-0.1,0.4-0.2
				c0.1,0,0.1,0.3,0.3,0.3c0.1,0,0.1-0.3,0.2-0.3c-0.1,0,0.3,0.3,0.3,0.1c0-0.3-0.1-0.2-0.1-0.4c0-0.2,0.5-0.2,0.4-0.3
				c-0.1-0.1-0.1,0-0.2-0.2c0,0-0.4-0.5,0.1-0.2C60.5,22.9,60.6,21.8,60.6,21.8z"/>
		</g>
		<path class="st1" d="M72.8,24.2c0.2,0,0.4-0.1,0.4-0.3c0-0.2-0.2-0.3-0.4-0.3c-0.2,0-0.4,0.1-0.4,0.3
			C72.4,24.1,72.6,24.2,72.8,24.2z"/>
		<path class="st1" d="M71.3,25.1c0.2,0,0.4-0.1,0.4-0.3c0-0.2-0.2-0.3-0.4-0.3c-0.2,0-0.4,0.1-0.4,0.3C70.9,25,71.1,25.1,71.3,25.1
			z"/>
		<path class="st1" d="M53.1,27.2c0.2,0,0.4-0.1,0.4-0.3c0-0.2-0.2-0.3-0.4-0.3c-0.2,0-0.4,0.1-0.4,0.3
			C52.7,27.1,52.9,27.2,53.1,27.2z"/>
		<path class="st1" d="M54.3,27.3c0.2,0,0.4-0.1,0.4-0.3c0-0.2-0.2-0.3-0.4-0.3s-0.4,0.1-0.4,0.3C53.9,27.2,54.1,27.3,54.3,27.3z"/>
		<path class="st1" d="M87,11.5c0.6,0.7,0.7,1.7,0.3,2.5c-0.2,0-0.2-0.3-0.2-0.5c-0.4-0.7-0.7-1.7-0.4-2.5C87,11,86.9,11.3,87,11.5z
			"/>
		<path class="st1" d="M39,12.4c-0.1,0.5-0.1,1.2,0,1.6c-0.1,0.1-0.1-0.1-0.2-0.1c-0.8-0.6-0.4-1.7-0.6-2.5c0-0.1,0.1-0.1,0.2,0
			C38.8,11.6,38.9,12,39,12.4z"/>
		<path class="st1" d="M88.7,12.4c0.1,0.2-0.1,0.4-0.3,0.5c-0.2,0-0.4-0.1-0.5-0.2c-0.1-0.2,0.1-0.4,0.2-0.5
			C88.4,12.2,88.6,12.3,88.7,12.4z"/>
		<path class="st1" d="M37.8,13.3c0,0.2-0.1,0.4-0.3,0.4c-0.1,0-0.3,0-0.4-0.1c-0.1-0.1-0.1-0.3-0.1-0.4c0.1-0.1,0.2-0.2,0.4-0.2
			C37.6,13.1,37.7,13.2,37.8,13.3z"/>
		<path class="st1" d="M89.5,13.7c0,0.1,0,0.2,0,0.3c-0.1,0.2-0.3,0.3-0.5,0.2c-0.1-0.1-0.2-0.2-0.2-0.3c0-0.2,0.2-0.3,0.3-0.4
			C89.3,13.5,89.4,13.6,89.5,13.7z"/>
		<path class="st1" d="M88.4,13.7c0.2,0.1,0,0.3,0,0.4c-0.1,0.1-0.2,0.3-0.4,0.2c-0.1-0.1-0.2-0.1-0.3-0.2c0-0.2,0.1-0.4,0.3-0.5
			C88.1,13.5,88.2,13.6,88.4,13.7z"/>
		<path class="st1" d="M86.9,14c0,0.2,0,0.5-0.2,0.5c-0.2,0.1-0.4-0.1-0.5-0.3c0-0.2,0.1-0.4,0.3-0.5C86.7,13.8,86.8,13.9,86.9,14z"
			/>
		<path class="st1" d="M40,14.1c0.1,0.2-0.1,0.3-0.3,0.4c-0.1,0-0.3-0.1-0.4-0.2c-0.1-0.1,0-0.3,0.1-0.4
			C39.6,13.7,39.9,13.9,40,14.1z"/>
		<path class="st1" d="M38.8,14.2c0,0.2-0.1,0.3-0.2,0.4c-0.2,0.1-0.3-0.1-0.4-0.2c-0.1-0.2,0-0.4,0.2-0.5
			C38.6,13.8,38.7,14,38.8,14.2z"/>
		<path class="st1" d="M82,14.2c0.2,0.4,0.4,0.9,0.4,1.5c-0.1,0.4,0.1,0.9-0.2,1.2c-0.3-0.1-0.3-0.4-0.5-0.6c-0.4-0.7,0-1.5,0.1-2.2
			C82,13.9,82,14.1,82,14.2z"/>
		<path class="st1" d="M37.8,14.5c0.1,0.2-0.1,0.4-0.3,0.5c-0.2,0.1-0.4-0.1-0.5-0.3c0-0.2,0.1-0.4,0.3-0.5
			C37.5,14.2,37.7,14.3,37.8,14.5z"/>
		<path class="st1" d="M85.2,15.1c0.3,0.6,0.3,1.3,0.1,1.9l-0.1,0.1c-0.3-0.5-0.7-1.1-0.8-1.6c0-0.4,0.1-0.8,0.2-1.2
			c0.1-0.1,0.2,0,0.3,0.1C84.9,14.7,85,14.9,85.2,15.1z"/>
		<path class="st1" d="M87.7,14.7c0,0.2-0.1,0.4-0.3,0.5c-0.2,0-0.4,0-0.5-0.2c-0.1-0.2,0.1-0.4,0.2-0.5
			C87.4,14.3,87.6,14.5,87.7,14.7z"/>
		<path class="st1" d="M38.8,15.3c0,0.2-0.1,0.3-0.3,0.4c-0.2,0.1-0.3-0.1-0.4-0.1c-0.1-0.2-0.1-0.3,0-0.5c0.1-0.1,0.2-0.1,0.3-0.2
			C38.6,15,38.8,15.1,38.8,15.3z"/>
		<path class="st1" d="M39.7,15.2c0.1,0.2-0.1,0.3-0.2,0.4c-0.2,0.1-0.4-0.1-0.5-0.2c0-0.2,0.1-0.3,0.2-0.4
			C39.5,14.9,39.6,15,39.7,15.2z"/>
		<path class="st1" d="M88.3,15.2c0,0.3-0.4,0.5-0.5,0.8c-0.2,0.5-0.7,0.9-1.2,1.1c-0.1,0.1-0.3,0.2-0.5,0.3c0-0.4,0.3-0.8,0.5-1.1
			C87.1,15.7,87.7,15.3,88.3,15.2z"/>
		<path class="st1" d="M38.4,16c0.3,0.3,0.5,0.6,0.8,0.9c0,0.1,0,0.2-0.1,0.2c-1-0.1-1.6-1.1-2.1-1.8c0.1-0.2,0.3,0,0.5-0.1
			C37.7,15.6,38.1,15.7,38.4,16z"/>
		<path class="st1" d="M88.6,16.3c0,0.9-0.5,1.8-1.2,2.2c-0.2,0.1-0.5,0.3-0.7,0.2c0.4-0.9,1.1-1.6,1.8-2.3H88.6z"/>
		<path class="st1" d="M84.7,16.9c0.1,0.3-0.1,0.5-0.3,0.6c-0.2,0-0.4-0.2-0.5-0.3c0-0.2,0.1-0.4,0.3-0.4c0.1-0.1,0.2-0.1,0.2-0.1
			C84.6,16.7,84.6,16.8,84.7,16.9z"/>
		<path class="st1" d="M37.3,17.1c0.4,0.3,0.7,0.6,1.1,0.9c-0.3,0.2-0.6,0-0.9,0c-0.7-0.2-1.1-0.8-1.8-1c0-0.2,0.3-0.1,0.4-0.2
			C36.5,16.8,36.9,17,37.3,17.1z"/>
		<g>
			<path class="st1" d="M58.8,11.1c-1.1-0.4-1.9,0.7-3,0.6c-0.1,0.1-0.1,0.2-0.2,0.3c-0.1,0.1-0.2,0-0.2,0c-0.1-0.5-0.2-0.9-0.3-1.4
				c-0.1-0.2-0.1-0.5-0.2-0.7c-0.6-1.8,1.6-0.4,2-1.5c0.4-0.9-0.7-1-1.1-1.6V6.6c-0.3-0.3-0.7-0.4-0.9-0.8c0.1-0.5,0.2-1,0.1-1.6
				c0-0.1-0.1-0.3-0.3-0.2c-0.4,0.5-0.7,0.9-1,1.5c-0.4-0.3-0.7-0.6-1.2-0.9c-0.3,0-0.6-0.3-0.9-0.2c-0.1,0.1,0,0.2,0.1,0.3
				c0,0.8,0.4,1.4,1,2l0.1,0.3c-0.4,0.8-0.3,1.8-0.4,2.7c-0.9,2.3-2.4,4.5-4.3,6.1c-1.1,1.3-2.5,2.5-2.7,4.3c-0.1,0.3,0,0.6-0.2,0.8
				c-0.7-0.2-1.3-0.6-1.9-1c-0.9-0.6-2.2-0.6-2.8-1.7c-0.2-0.5,0.1-0.9,0.3-1.3c0.7-0.6,0.6-1.8,0.2-2.6c-0.1,0-0.1,0.1-0.2,0.1
				c-0.1,1.2-1,2-0.6,3.3c0.1,0.4,0.3,0.6,0.4,1c-0.1,0-0.3,0-0.5-0.1c-0.4-0.1-0.9-0.2-1.3-0.2c-0.9,0.4-2.2-0.1-2.9,0.7
				c-0.1,0-0.3,0-0.2,0.2c0.4,0,0.9,0.1,1.3,0.1c0.7,0.1,1.2-0.5,1.6-0.7h0.1c0.2-0.2,0.5-0.1,0.8-0.1c1.3,0.1,2.2,0.7,3.3,1.4V20
				c-0.4,0.2-0.9,0.3-1.3,0.5c-0.5,0.3-1,0.8-1.1,1.4c-0.3,0.5,0.1,0.9,0.3,1.4c0,0.2,0,0.4,0.2,0.5c0.6-0.7,0-1.5,0.1-2.3
				c0.2-0.6,0.7-0.9,1.3-1c1.1-0.5,2,0.4,2.9,1c0,0.9,0.1,1.8-0.1,2.7c-0.3,0.1-0.6,0.2-0.9,0.1c-1.6,0.1-2.8,1-4.2,1.5
				c-0.6,0.2-1.4,0.2-2,0.4c0.5,0.1,1,0,1.5-0.1c2-0.3,3.5-1.8,5.6-1.5l0,0.1c-0.2,0.5-0.6,0.9-0.9,1.3c-0.1-0.2-0.1-0.4-0.3-0.5
				c-0.2-0.1-0.3,0-0.5,0.2c-0.1,0.1-0.1,0.2,0,0.3c0.1,0.2,0.3,0.2,0.4,0.3c0,0.2-0.3,0.3-0.4,0.4c-0.6,0.9-1.7,0.6-2.4,1.2
				c-0.1,0.1-0.5,0.2-0.3,0.4c0.8,0.1,1.5-0.1,2.1-0.5c0.7-0.8,1.5-1.6,2.3-2.4c0.1,0.6-0.1,1.3-0.4,1.8c-0.2-0.1-0.3-0.2-0.5-0.3
				c-0.2,0-0.3,0.2-0.4,0.4c0.1,0.1,0.2,0.3,0.3,0.4c-0.7,0.5-1.5,0.5-2.3,0.7c-1.5,0.2-2.9,0.3-4.4,0.3c-0.7,0-1.5,0.2-2.2,0
				c-0.8,0.1-1.6-0.1-2.2,0.3c-0.1,0.1,0,0.2,0,0.3c0.9,0.6,2.2,0.1,3.2,0.3h7.9c0.6,0,1.2,0,1.6-0.3c1-0.6,1.6-1.6,2.1-2.7
				c0.2-0.4,0.3-0.8,0.4-1.2c0.2-0.7,0.8-1.2,1.5-1.2c0.1,1-0.1,2.1-0.3,3.1c-0.1,0.6-0.5,1.3-0.3,2c0.1,0.3,0.4,0.3,0.7,0.4
				c2.4,0,4.9-0.1,7.4,0c0.5,0.1,0.9,0.2,1.4,0.2c0-0.1,0.2-0.1,0.1-0.2c-0.1-0.2-0.2-0.5-0.5-0.6c0-0.1-0.2-0.1-0.3-0.2
				c-1.3-0.7-2.8-0.3-4.3-0.3c-0.8,0.1-1.6,0.2-2.2-0.2c-0.3-0.4-0.1-1.5-0.1-1.5c0-0.5,1.1-3.6,1.2-3.9c0-0.3,0.2-0.6,0.1-0.9
				c0.2-0.4,0.1-0.9,0.1-1.4c0.1-0.6,0.4-1.3,0.6-1.9c0.1-0.3,0.2-0.6,0.3-0.9c0.1-0.4,0.2-0.7,0.4-1c0.7,0.4,1.3,0.4,1.6,1.1
				l0.3,1.7c0,0.1,0.1,0.3,0.2,0.2c0.5-0.3,0.4-1.1,0.4-1.6c0.1-0.6-0.3-0.9-0.5-1.5c-0.1-0.1-0.4-0.6-0.4-0.6
				c-0.1-0.4-1.1-0.8-0.8-1.3c0.1-0.5,0.2-0.9,0.7-1.2c0.1,0,0.1,0.1,0.1,0.1l0.2-0.2l0-1.7c0.6,0,1.6,0.1,2.3,0.1
				c0.2,0.1,0.3,0.2,0.5,0.2l0.2-0.2l1.6-0.3C59.8,11.9,59.4,11.1,58.8,11.1z"/>
			<path class="st1" d="M60.5,11.8c0,0,0.1,0,0.1,0L60.5,11.8z"/>
		</g>
		<path class="st1" d="M43.1,17.4c0,0.2-0.1,0.4-0.3,0.5c-0.2-0.1-0.3-0.1-0.4-0.2c-0.1-0.2,0.1-0.4,0.3-0.5
			C42.8,17.2,43,17.2,43.1,17.4z"/>
		<path class="st1" d="M41.8,17.4c0.1,0.1,0.1,0.3,0.1,0.5c-0.1,0.1-0.4,0.2-0.5,0.1c-0.1-0.1-0.2-0.3-0.1-0.4
			C41.4,17.4,41.6,17.3,41.8,17.4z"/>
		<path class="st1" d="M69.7,17.6C69.7,17.7,69.7,17.7,69.7,17.6"/>
		<path class="st1" d="M84.9,18c0.1,0.2-0.1,0.4-0.3,0.5c-0.2-0.1-0.5-0.1-0.5-0.4c0-0.2,0.2-0.3,0.3-0.3
			C84.7,17.7,84.9,17.9,84.9,18z"/>
		<path class="st1" d="M86,17.9c0.1,0.1,0.2,0.3,0,0.4c-0.1,0.1-0.1,0.1-0.2,0.2c-0.2,0-0.4,0-0.5-0.2c0-0.2,0.1-0.3,0.3-0.4
			C85.8,17.8,85.9,17.9,86,17.9z"/>
		<path class="st1" d="M36.7,18.2c-0.1,0.2-0.3,0.3-0.5,0.3c-0.1-0.1-0.1-0.2-0.2-0.3c0-0.1,0.1-0.3,0.2-0.3
			C36.5,17.9,36.7,18,36.7,18.2z"/>
		<path class="st1" d="M43.5,18.5c0,0.2-0.2,0.3-0.3,0.4c-0.2,0-0.3-0.1-0.4-0.3c0-0.2,0.1-0.4,0.2-0.4
			C43.2,18.2,43.4,18.3,43.5,18.5z"/>
		<path class="st1" d="M42.3,18.4c0.1,0.1,0.1,0.2,0.1,0.3c-0.1,0.1-0.3,0.3-0.5,0.2c-0.1-0.1-0.3-0.2-0.2-0.4
			c0.1-0.1,0.2-0.2,0.3-0.2C42.1,18.2,42.2,18.3,42.3,18.4z"/>
		<path class="st1" d="M89.1,18.6c0,0.2-0.2,0.3-0.3,0.4c-0.2,0.1-0.3,0-0.4-0.1c-0.1,0-0.1-0.2-0.1-0.3c0.1-0.1,0.2-0.2,0.4-0.3
			C88.8,18.4,89,18.5,89.1,18.6z"/>
		<path class="st1" d="M90.3,18.8c-0.1,0.2-0.2,0.3-0.4,0.4c-0.1,0-0.3-0.1-0.3-0.2c0-0.1,0.1-0.3,0.2-0.3
			C90,18.5,90.3,18.6,90.3,18.8z"/>
		<path class="st1" d="M39,19.1c0,0.2,0,0.4-0.2,0.5c-0.1,0.1-0.3,0-0.4-0.1c-0.1-0.1-0.2-0.3-0.1-0.4c0-0.2,0.2-0.1,0.3-0.2
			C38.8,18.9,38.9,19,39,19.1z"/>
		<path class="st1" d="M40,19.3c0.1,0.2-0.1,0.2-0.2,0.3c-0.1,0.1-0.2,0.1-0.4,0c-0.1-0.1-0.3-0.3-0.2-0.5
			C39.5,18.9,39.9,19,40,19.3z"/>
		<path class="st1" d="M87.9,19.2c0,0.2-0.2,0.3-0.3,0.5c-0.2,0-0.4-0.1-0.4-0.2c0-0.2,0.1-0.3,0.2-0.4C87.6,19,87.8,19,87.9,19.2z"
			/>
		<path class="st1" d="M89.5,19.5c0,0.2,0,0.4-0.2,0.5c-0.2,0-0.4,0-0.5-0.1c-0.1-0.1-0.1-0.3-0.1-0.4c0.1-0.2,0.3-0.3,0.5-0.2
			C89.4,19.3,89.4,19.4,89.5,19.5z"/>
		<path class="st1" d="M38.3,19.9c0.1,0.2-0.1,0.2-0.2,0.3c-0.1,0.1-0.3,0-0.4,0c-0.1-0.1-0.1-0.3-0.1-0.4
			C37.8,19.4,38.2,19.7,38.3,19.9z"/>
		<path class="st1" d="M88.3,20.3c0.1,0,0,0.1,0,0.2c-0.5,0.2-1.2,0.3-1.6-0.1c-0.2-0.2-0.5-0.3-0.8-0.4c0.1-0.3,0.5-0.2,0.7-0.3
			C87.2,19.7,87.6,20.3,88.3,20.3z"/>
		<path class="st1" d="M39.2,20.1c0,0.2-0.1,0.2-0.1,0.3c-0.1,0.1-0.2,0.1-0.3,0c-0.2-0.1-0.3-0.3-0.1-0.5
			C38.8,19.8,39.1,19.9,39.2,20.1z"/>
		<path class="st1" d="M41,20.3c0.1,0.2,0,0.3-0.2,0.4c-0.1,0.1-0.3,0-0.4-0.1c-0.1-0.1-0.3-0.3-0.1-0.5C40.5,19.9,40.8,20,41,20.3z
			"/>
		<path class="st1" d="M64.2,21.1c0,0.4-0.7-0.1-0.6,0.5c0.1,0.4,0.2,0.8,0.4,1.1c0.2,0.3,0.1,0.7,0.1,1c-0.2,0.3-0.5,0.5-0.8,0.7
			c-0.6-0.1-1.4,0.3-1.7-0.4c-0.1-0.3-0.3-0.6-0.3-1c0.1,0,0.1,0,0.2-0.1c0-0.1-0.2-0.2-0.1-0.3c0.6-0.1-0.3-0.7,0.3-0.7
			c0.5,0.5,1.2,0.3,1.6,0.8c0.1,0.1,0.2,0.2,0.3,0.2c-0.1-0.5-0.3-1-0.4-1.5c-0.1-0.3,0-0.5,0.2-0.7C63.7,20.5,64,20.9,64.2,21.1z"
			/>
		<path class="st1" d="M42.7,21c0.1,0.2-0.1,0.3-0.2,0.4c-0.2,0.1-0.3-0.1-0.4-0.2c-0.1-0.2,0.1-0.3,0.2-0.4
			C42.5,20.8,42.7,20.8,42.7,21z"/>
		<path class="st1" d="M55.1,21.2c0.2,0.8,0.2,1.6-0.2,2.3c0,0.2,0,0.4-0.2,0.4c-0.5-0.7-0.1-1.8,0.1-2.6C54.8,21.1,55,21,55.1,21.2
			z"/>
		<path class="st1" d="M72.3,21.6c0.3,0.6,0.3,1.3,0,1.9l-0.2,0.2c-0.2-0.5-0.4-0.9-0.5-1.4c0.1-0.4,0.2-0.7,0.2-1.1
			C72.2,21,72.2,21.4,72.3,21.6z"/>
		<path class="st1" d="M44.3,21.8c-0.1,0.2-0.5,0.3-0.7,0.5c-0.5,0.4-1.2,0.4-1.8,0.3c0.5-0.7,1.3-1.2,2.3-0.9
			C44.2,21.7,44.3,21.7,44.3,21.8z"/>
		<path class="st1" d="M36.1,22.5c0.7,0.5,0.9,1.3,1.4,2c0.1,0.1,0.3,0.1,0.2,0.3c-0.2,0.1-0.3-0.1-0.5-0.1
			c-0.8-0.3-1.2-1.2-1.2-2.1C35.9,22.5,36,22.5,36.1,22.5z"/>
		<path class="st1" d="M71.5,23.1c0,0.2,0,0.4-0.2,0.5c-0.2,0.1-0.4-0.1-0.5-0.2c-0.1-0.1,0.1-0.2,0.1-0.3
			C71.1,22.9,71.4,23,71.5,23.1z"/>
		<path class="st1" d="M79.9,24.2c0-0.4,0.1-0.7,0.1-1.1c0.1-0.1,0.1-0.3,0.1-0.4c0.5-0.6,1.5-0.4,2.2-0.4c0.3,0.2,0.7,0.1,1,0.2
			c0.1-0.1,0.3-0.1,0.5-0.1c0.6-0.3,0.2-1.1,0.3-1.7l-0.2-0.6c-0.1-0.1-0.1-0.3-0.2-0.4c-0.1-0.1-0.2-0.4-0.3-0.5
			c-0.3-0.9-1-1.4-1.6-2.1c-1-1.3-2.6-2.1-4.2-2.6c-1.6-0.5-3.2,0.2-4.6,0.7c-0.4-0.1-0.7-0.5-0.8-0.8c-0.1-0.8,0.1-1.5,0.4-2.1
			c0.1-0.5,0.4-0.9,0.5-1.4c0.4-1.1,0.7-2.2,0.8-3.5c0-0.7-0.5-1.3-1.1-1.6c-0.4-0.1-0.8-0.1-1.1,0.2c-0.3,0.5-0.8,0.9-1.3,1.2
			c0,0.3,0.4,0.1,0.5,0.2c0.4,0.1,0.9-0.1,1.3,0.2c0,0.8-0.4,1.5-0.8,2.1c-0.7,1-1.4,2-1.8,3.1l-0.1-0.1l0.1,4.9
			c0.6,1.1,1.4,2.3,2.6,2.7c0.6,0.5,1.4,1.2,2.3,0.7c0.5-0.1,0.5,0.5,0.7,0.8c0.2,0.7-0.3,1.3-0.3,2l-0.5,1.1
			c-0.6,1.2-1.1,2.4-2.1,3.4c-0.3,0-0.5,0.3-0.8,0.3c-0.2,0.2-0.5,0.1-0.7,0.1c-0.6,0.3-1.5,0.1-1.9,0.7c0,0.1,0.1,0.1,0.2,0.1
			c1.2,0,2.6,0.1,3.9,0c0.2-0.1,0.3-0.2,0.3-0.4c-0.2-0.3,0.1-0.6,0.2-0.9c0.1-0.5,0.4-0.8,0.6-1.3c0.4-0.8,0.9-1.6,1.4-2.5l0.6-1
			c0.1-0.3,0.4-0.8,0.6-1.1c0.2-0.2,0.2-0.3,0.4-0.5c0-0.2-0.1-0.3-0.2-0.4c0.1-0.1,0.4-0.1,0.5-0.1c0.5,0.3,1,0.8,1.1,1.3l0.2,0.5
			l0.1,0.2l0,0.7l0.1,0.6c0.1,1-0.1,2-0.2,2.9c-0.3,1.2-1.7,1-2.6,1.3c-0.2,0.2-0.7,0.1-0.7,0.5c1.2,0.2,2.5,0.1,3.8,0.1
			c0.2-0.1,0.2-0.3,0.3-0.4c0-0.3,0.3-0.5,0.2-0.8c-0.2-0.3,0-0.7-0.1-1.1c0-0.1,0-0.2,0-0.4c0.2-0.6,0.1-1.3,0.2-1.9L79.9,24.2z"/>
		<path class="st1" d="M89.8,23.4c-0.6,0.9-1.3,1.9-2.4,2.3c-0.1,0-0.2,0-0.2-0.1c0.7-0.7,1-1.9,2.1-2.1
			C89.4,23.4,89.6,23.3,89.8,23.4z"/>
		<path class="st1" d="M35.1,24.4c-0.1,0.1,0,0.3-0.2,0.3c-0.2,0.1-0.3,0-0.4-0.2c-0.1-0.2,0.1-0.4,0.3-0.4
			C34.9,24.1,35,24.2,35.1,24.4z"/>
		<path class="st1" d="M40.9,24.7c0.1,0.2-0.1,0.2-0.2,0.2c-0.8,0.3-1.7,0-2.3-0.6c0-0.1,0-0.2,0.1-0.2
			C39.2,24.3,40.2,24.2,40.9,24.7z"/>
		<path class="st1" d="M36.2,24.4c0,0.1,0.1,0.2,0,0.3c-0.1,0.2-0.3,0.2-0.5,0.2c-0.1-0.1-0.2-0.1-0.3-0.3c0-0.2,0.2-0.3,0.3-0.4
			C36,24.3,36.1,24.3,36.2,24.4z"/>
		<path class="st1" d="M55,24.5c0,0.2-0.1,0.3-0.2,0.4c-0.2,0-0.3,0-0.4-0.2c-0.1-0.1,0-0.3,0.1-0.4C54.6,24.3,54.9,24.3,55,24.5z"
			/>
		<path class="st1" d="M90.6,24.6c0.1,0.2-0.1,0.3-0.3,0.4c-0.1,0.1-0.3,0-0.4-0.1c0-0.1-0.1-0.2-0.1-0.3c0.1-0.2,0.3-0.3,0.5-0.2
			C90.4,24.5,90.5,24.5,90.6,24.6z"/>
		<path class="st1" d="M91.9,24.5c0.1,0.2,0,0.3-0.1,0.5c-0.1,0.1-0.2,0.2-0.4,0.1c-0.1-0.1-0.3-0.2-0.3-0.4c0-0.2,0.2-0.3,0.3-0.3
			C91.7,24.3,91.7,24.5,91.9,24.5z"/>
		<path class="st1" d="M34.2,25.1c0,0.1-0.1,0.2-0.1,0.3c-0.1,0-0.2,0.1-0.3,0.1c-0.1-0.1-0.2-0.2-0.3-0.3c0-0.2,0.2-0.3,0.4-0.4
			C34,24.9,34.2,24.9,34.2,25.1z"/>
		<path class="st1" d="M76.5,25.1c0,0.1,0,0.2,0,0.3c-0.1,0.2-0.3,0.3-0.5,0.2c-0.1-0.1-0.3-0.2-0.2-0.4
			C76,24.9,76.3,24.9,76.5,25.1z"/>
		<path class="st1" d="M37.5,25.4c0,0.1-0.1,0.3-0.3,0.3c-0.2,0-0.2-0.1-0.3-0.2c0-0.2,0-0.4,0.2-0.5C37.2,25,37.5,25.2,37.5,25.4z"
			/>
		<path class="st1" d="M35.5,25.5c0.1,0.2-0.1,0.3-0.2,0.4c-0.2,0.1-0.4-0.1-0.5-0.3c0-0.2,0.2-0.4,0.4-0.5
			C35.3,25.2,35.4,25.4,35.5,25.5z"/>
		<path class="st1" d="M77.8,25.4c0,0.2,0,0.4-0.2,0.5c-0.2,0.1-0.4-0.1-0.5-0.3c0.1-0.2,0.1-0.4,0.4-0.4
			C77.6,25.2,77.7,25.3,77.8,25.4z"/>
		<path class="st1" d="M36.5,25.5c0.1,0.1-0.1,0.2-0.1,0.3c-0.1,0-0.2,0.1-0.3,0.1c-0.1-0.1-0.2-0.1-0.3-0.3c0-0.2,0.1-0.3,0.3-0.4
			C36.3,25.2,36.4,25.3,36.5,25.5z"/>
		<path class="st1" d="M89.5,25.7c-0.1,0.2-0.2,0.2-0.3,0.3c-0.2,0-0.3-0.1-0.4-0.2c-0.1-0.1-0.1-0.3,0-0.4
			C88.9,25.1,89.5,25.3,89.5,25.7z"/>
		<path class="st1" d="M91,25.7c-0.1,0.2-0.3,0.3-0.5,0.3c-0.2-0.1-0.4-0.2-0.2-0.5c0.1-0.1,0.1-0.2,0.2-0.2
			C90.8,25.4,90.9,25.5,91,25.7z"/>
		<path class="st1" d="M81.5,25.9c0.1,0.3-0.1,0.3-0.3,0.5c-0.1,0-0.3-0.1-0.4-0.2c0-0.2,0.1-0.4,0.3-0.5
			C81.2,25.7,81.3,25.7,81.5,25.9z"/>
		<path class="st1" d="M76,26.1c0.1,0,0.1,0.2,0,0.2c-0.1,0.1-0.3,0.3-0.5,0.2c-0.1-0.1-0.2-0.2-0.2-0.4
			C75.4,25.9,75.9,25.9,76,26.1z"/>
		<path class="st1" d="M77.1,26.3c0,0.2,0,0.2-0.2,0.3c-0.1,0.1-0.3,0-0.4-0.1c0-0.1-0.1-0.2,0-0.3c0.1-0.1,0.2-0.1,0.3-0.2
			C76.9,26.1,77,26.1,77.1,26.3z"/>
		<path class="st1" d="M43.1,26.3c0.1,0.1,0,0.3,0,0.4c-0.1,0.1-0.3,0.2-0.5,0.1c-0.2-0.1-0.2-0.3-0.1-0.5c0.1,0,0.1-0.2,0.3-0.2
			C42.8,26.1,42.9,26.2,43.1,26.3z"/>
		<path class="st1" d="M83.6,26.4c0,0.2-0.2,0.3-0.3,0.3c-0.2,0.1-0.4-0.1-0.5-0.3c0-0.1,0.1-0.2,0.2-0.3
			C83.3,26,83.5,26.2,83.6,26.4z"/>
		<path class="st1" d="M82.5,26.4c0.1,0.2-0.1,0.3-0.2,0.4c-0.1,0.1-0.3,0-0.4-0.1c-0.1-0.1-0.1-0.2-0.1-0.3
			c0.1-0.1,0.2-0.2,0.3-0.3C82.3,26.1,82.4,26.2,82.5,26.4z"/>
		<path class="st1" d="M91.6,26.6c0,0.3-0.3,0.1-0.5,0.2c-0.8,0.5-1.9,0.1-2.7-0.2c0.1-0.3,0.4-0.2,0.5-0.3
			C89.8,25.8,90.6,26.5,91.6,26.6L91.6,26.6z"/>
		<path class="st1" d="M36.7,26.4l-0.1,0.1C35.9,27,34.9,27.3,34,27L34,26.9C34.7,26.3,35.7,26.2,36.7,26.4L36.7,26.4z"/>
		<path class="st1" d="M85.7,26.5c0,0.2-0.1,0.3-0.2,0.4c-0.2,0.1-0.5,0-0.5-0.2c-0.1-0.2,0.1-0.3,0.3-0.4
			C85.3,26.3,85.6,26.3,85.7,26.5z"/>
		<path class="st1" d="M40.3,26.6c-0.1,0.2,0,0.3-0.2,0.4c-0.2,0.1-0.4-0.1-0.5-0.3c-0.1-0.2,0.1-0.3,0.2-0.4
			C40,26.2,40.2,26.4,40.3,26.6z"/>
		<path class="st1" d="M38.9,26.7c0.1,0.1-0.1,0.2-0.1,0.3c-0.1,0.1-0.3,0.1-0.4,0.1c-0.1-0.1-0.3-0.3-0.2-0.5
			c0.1-0.1,0.2-0.2,0.3-0.2C38.7,26.4,38.8,26.5,38.9,26.7z"/>
		<path class="st1" d="M87.1,27.2c0,0.2-0.2,0.3-0.3,0.4c-0.2,0-0.3-0.1-0.4-0.2c-0.1-0.1,0-0.3,0.1-0.4c0-0.1,0.2-0.1,0.3-0.1
			C86.9,26.9,87,27,87.1,27.2z"/>
		<path class="st1" d="M37.4,26.9c0.1,0.2-0.1,0.2-0.1,0.3c-0.1,0.3-0.3,0.6-0.4,0.9c-0.4,0.5-0.9,0.5-1.5,0.6l-0.1-0.2
			C35.9,27.8,36.5,27.3,37.4,26.9L37.4,26.9z"/>
		<path class="st1" d="M86.1,27.4c0,0.2-0.2,0.3-0.3,0.4c-0.2,0-0.3-0.1-0.4-0.2c-0.1-0.2,0.1-0.3,0.3-0.4
			C85.8,27.1,86,27.2,86.1,27.4z"/>
		<path class="st1" d="M39.7,27.4c0,0,0,0.1,0.1,0.1c0,0.2-0.2,0.3-0.3,0.4c-0.2,0-0.3-0.1-0.4-0.2c-0.1-0.2,0-0.4,0.2-0.5
			C39.4,27.2,39.6,27.2,39.7,27.4z"/>
		<path class="st1" d="M89.7,28c0.2,0,0.2-0.3,0.5-0.3c0.2,0,0.4,0.1,0.5,0.2c0.1,0.2-0.1,0.4-0.3,0.5c-0.1,0.1-0.4-0.1-0.4,0.1
			c0.1,0.1,0.3,0.2,0.3,0.4c0,0.1-0.2,0.1-0.2,0c-0.6-0.2-1.2-0.6-1.4-1.3c-0.1-0.2-0.5-0.3-0.2-0.5C88.9,27.2,89.4,27.6,89.7,28z"
			/>
		<path class="st1" d="M91.7,27.4c0.1,0.1,0.1,0.3,0,0.4c-0.1,0.2-0.4,0.1-0.6,0.1c-0.1-0.1-0.2-0.2-0.2-0.4
			c0.1-0.1,0.2-0.2,0.3-0.3C91.4,27.2,91.5,27.3,91.7,27.4z"/>
		<path class="st1" d="M84.4,28.4c0.2,0.2,0.4,0.6,0.4,0.8c0,0.1-0.1,0-0.2,0c-0.7-0.4-1.6-0.8-1.8-1.6c-0.1-0.1-0.2-0.2-0.2-0.3
			c0.5-0.1,1,0.3,1.4,0.6C84.2,28.1,84.3,28.2,84.4,28.4z"/>
		<path class="st1" d="M38.6,27.7c0.1,0.2-0.1,0.3-0.2,0.4c-0.2,0-0.3,0-0.5-0.2c-0.1-0.2,0.1-0.4,0.3-0.5
			C38.4,27.4,38.5,27.6,38.6,27.7z"/>
		<path class="st1" d="M86.9,28.1c0,0.1-0.1,0.2-0.2,0.3c-0.2,0-0.3,0.1-0.5-0.1c0-0.1-0.1-0.3,0-0.4C86.4,27.7,86.8,27.9,86.9,28.1
			z"/>
		<path class="st1" d="M91.9,28.4c0.1,0.2-0.1,0.4-0.3,0.5c-0.2,0.1-0.4-0.1-0.5-0.2c-0.1-0.1,0-0.2,0-0.4c0.1-0.1,0.3-0.2,0.5-0.1
			C91.7,28.3,91.8,28.3,91.9,28.4z"/>
		<path class="st1" d="M78,31.2c0,0.2-0.4,0.2-0.6,0.4c-0.6,0.3-1.4,0.3-2.1,0.3v-0.1C76,31.2,77.1,30.9,78,31.2z"/>
		<path class="st1" d="M48.8,32.1c0,0.2-0.1,0.3-0.3,0.3c-0.1,0-0.3-0.1-0.3-0.2c-0.1-0.2,0.1-0.3,0.3-0.4
			C48.6,31.8,48.7,31.9,48.8,32.1z"/>
		<path class="st1" d="M77.7,32.3c0,0.2-0.1,0.4-0.3,0.5c-0.2,0-0.3-0.1-0.4-0.1c-0.1-0.1,0-0.2-0.1-0.3
			C77,31.9,77.5,31.9,77.7,32.3z"/>
		<path class="st1" d="M81.7,32.4c-0.5,0.3-1.1,0.7-1.7,0.7l-1.1,0L78.8,33c0.7-0.8,1.9-0.8,2.9-0.7V32.4z"/>
		<path class="st1" d="M43.3,32.9c0,0.2-0.1,0.3-0.3,0.4c-0.2,0-0.3,0-0.4-0.2c-0.1-0.2,0-0.4,0.2-0.5C43,32.5,43.2,32.7,43.3,32.9z
			"/>
		<path class="st1" d="M44.3,33.1c0.1,0.1,0,0.2-0.1,0.3c-0.1,0.1-0.3,0.1-0.4,0c-0.1-0.1-0.2-0.2-0.1-0.3c0.1-0.1,0.2-0.1,0.2-0.2
			C44.1,32.9,44.2,32.9,44.3,33.1z"/>
		<path class="st1" d="M36.6,35.1c-0.2,0.2-0.5-0.1-0.7-0.2c-0.7-0.4-0.7-1.2-1.4-1.7c0.1-0.2,0.3,0,0.4,0c0.1,0.1,0.3,0.2,0.4,0.2
			C36,33.9,36.1,34.5,36.6,35.1z"/>
		<path class="st1" d="M95,27.3c-0.3-0.6-0.9-0.8-1.5-0.8c-0.5,0-0.9,0.4-1.1,0.8c-0.1,0.4,0,0.8,0.4,1.1c0.1,0.1,0.3,0,0.4-0.1
			C93.3,28,93,28,93,27.8c-0.1-0.3,0-0.5,0.2-0.7c0.2-0.2,0.5-0.1,0.8-0.1c0.2,0.2,0.5,0.3,0.6,0.6c0.1,0.3,0.1,0.7,0,1.1
			c-0.2,0.5-0.7,0.9-1.2,1c-1.7,0.2-19.9,0.2-19.9,0.2c-2.1,0.2-4.6-0.4-6.4,0.7c-0.8,0.4-1.3,1.3-1.5,2.2c-0.5,0.5-1.1,1.1-1.6,1.6
			l-0.1-0.1c0.1-0.5,0.3-0.9,0.4-1.4c0.3-0.4,0.3-0.9,0.5-1.4c0.8-1.2,1.5-2.5,2.7-3.4c0.5-0.7,1.4-0.5,2.1-0.5
			c0.8,0.4,1.8,0.5,2.8,0.4c0,0,0.1-0.1,0.1-0.1c-0.3-0.3-0.7-0.4-1.1-0.6c-0.8-0.4-1.6,0.1-2.4,0.1c0,0-0.1-0.1-0.1-0.1
			c0.8-0.6,1.6-1,2.5-1.3c0.7-0.4,1.4-0.6,2.2-0.9c0.3,0,0.6-0.3,0.9-0.1l1.1-0.3c0,0,0.1,0.1,0.2,0.1c0.9-0.3,2,0,3.1,0l0.1,0.1
			l1,0.2c0.4,0,0.5,0.5,0.9,0.5c0.2-0.3-0.2-0.4-0.3-0.6c0.4-0.1,0.9,0,1.3,0.2l-0.2,0.2c-0.1,0.2,0.1,0.4,0.2,0.5
			c0.1,0,0.2-0.1,0.3-0.1c0.3-0.2,0-0.4,0.1-0.5c1.5,0.3,2.9,0.6,4.3,1.2c0.4,0.1,0.7,0.4,1.2,0.4c-0.4-0.4-1-0.6-1.5-0.8
			c-0.3-0.2-0.8-0.2-1.1-0.5c0.1-0.1,0.2-0.1,0.3-0.1c0.7-0.1,1.3-0.6,1.7-1.1c0-0.1,0.3-0.1,0.2-0.2c-0.2-0.2-0.5,0.1-0.7,0
			c-0.8,0.2-1.2,1.2-2,1.3c-1-0.2-2.1-0.5-3.1-0.7c-0.5-0.1-1-0.1-1.5-0.3l-1.1-0.1h-2c0,0-0.1-0.1-0.1-0.1c0.7-0.2,1.3-0.6,2.1-0.8
			l5.4-2.5c0.6-0.5,1.1-1.1,1.5-1.7c0-0.2-0.1-0.3-0.2-0.4c-0.1-0.1-0.3,0-0.4,0.1c-0.2,0.2,0,0.4,0,0.6c-0.2,0.3-0.6,0.6-0.9,0.8
			c-0.1,0-5.5,2.5-5.5,2.5c-0.8,0.3-1.6,0.7-2.4,0.9L75,23.8c-0.1,0.2-0.3,0.4-0.5,0.5c-0.3,0.1-0.6,0.3-0.9,0.3
			c-2.6,1-5.3,2.1-7.4,4.1c0.1-0.2,0.2-0.5,0.2-0.8c0-0.3,0-0.6-0.2-0.9c0-0.1-0.2-0.4-0.1-0.6l-0.3,0.2c-0.2,0.4-0.3,1.3-0.2,1.7
			c0.1,0.4,0.4,0.8,0.1,1.1c-1,1.2-1.5,2.6-2.1,3.9c-0.2,0-0.4-0.3-0.5-0.5c0.7-0.9,1.2-1.8,1.4-2.9c0.1-0.1,0-0.4,0.2-0.5
			c0-0.3,0.2-0.6,0-0.9c0.1-0.4-0.6-0.8-0.1-1.1l-0.4,0.2c-0.9,1.1,0.4,2.8-0.5,3.9v0.1c-0.3,0.4-0.4,0.7-0.8,1
			c-0.5-0.2-0.7-0.7-0.9-1.2c-0.4-0.4-0.4-1.3-0.2-1.9c0.2-0.6-0.1-1.1-0.2-1.6l-0.2-0.1c-0.5,0.6-0.7,1.6-0.3,2.4
			c0.2,0.4,0.2,0.9,0.5,1.2c0.2,0.6,0.5,1,0.9,1.5c0.1,0.2-0.1,0.2-0.2,0.3c-0.2-0.1-0.2-0.5-0.4-0.6c-0.7-1.4-1.5-2.5-2.6-3.7
			c0-0.2-0.2-0.3-0.1-0.5c0.4-0.4,0.5-1.1,0.3-1.5c0-0.1-0.2-0.2-0.1-0.3L59,26.1c0,0.7-0.4,1.3-0.2,2.1v0c-2.1-1.6-4.3-2.9-6.7-4
			l-0.2,0.5c0.6,0.1,2.1,1.1,2.1,1.1c0.7,0.3,1.3,0.7,2,1.1c2.7,1.5,4.5,4,5.8,6.8c0,0.2,0.2,0.5,0.1,0.7c-0.4-0.6-1-1-1.5-1.5
			c-0.1-0.9-0.7-1.9-1.5-2.2c-0.3-0.4-0.9-0.5-1.4-0.6l-7.3,0c-5.9-0.1-11.3,0.2-17.2,0.1c-0.8-0.1-1.8-0.4-2.1-1.2
			c-0.2-0.3-0.2-0.8,0-1.1c0.2-0.4,0.6-0.5,1-0.5c0.3,0,0.5,0.3,0.7,0.6c0,0.3-0.2,0.5-0.3,0.7c0,0.1,0.1,0.2,0.2,0.2
			c0.3-0.1,0.5-0.4,0.5-0.6c0-0.1,0.1-0.3-0.1-0.4c-0.1-0.4-0.6-0.7-0.9-0.8c-0.5,0-1,0.1-1.4,0.5c-0.5,0.4-0.5,1.1-0.3,1.7
			c0.3,0.9,1.3,1.5,2.2,1.6l19.5,0.1c1.9,0.1,4-0.2,6,0.2c0.7,0.2,1.4,0.7,1.6,1.5c0,0-0.1,0-0.1,0c-1.6-1-3.7-1.4-5.7-1.2
			c-0.8,0-1.5,0.3-2.2,0.5c-0.4,0.1-0.7-0.1-1-0.3c-0.7-0.6-2-0.6-2.9-0.4c0,0.1,0,0.1,0,0.1c1-0.1,1.6,0.8,2.4,0.9
			c0.2,0,0.4-0.2,0.5,0c-0.9,0.4-1.8,1-2.8,1.3c-0.3-0.1-0.5-0.3-0.7-0.5c-0.4-0.4-1.1-0.2-1.6-0.3c-0.2,0-0.3-0.1-0.5,0
			c0.2,0.3,0.5,0.5,0.9,0.7c0.5,0.2,1.1,0,1.5,0.3c-0.1,0.1-0.3,0.2-0.4,0.3c-0.9,0.4-1.7,1.2-2.8,1.2c-1.1,0.1-2.2-0.2-3-1
			c-0.3-0.8-1.1-1.2-2-1.2c-0.1,0-0.1,0-0.1,0.1c0.4,0.3,0.8,0.8,1.2,1.1c0.3,0.3,0.8,0,1.1,0.4c0.4,0.3,0.9,0.5,1.3,0.6
			c0.3,0.1,0.7,0.2,1,0.3l-0.1,0.1c-1.8,0.6-3.9,0.7-6,0.6c-0.6,0-1.2-0.2-1.8-0.2c0.1,0.1,0.3,0.2,0.5,0.3
			c-0.2,0.1-0.3,0.1-0.5,0.2C35.5,36,35.3,36,35,36.2c-0.3,0-0.6,0.1-0.9,0.2c-0.3,0.4-0.7,0.7-1.1,0.9c0,0.1,0,0.2,0.1,0.2
			c0.4-0.2,0.9,0,1.2-0.2c0.7-0.1,1-0.8,1.6-1.1c0.6-0.4,1.4-0.3,2-0.2c0.4,0.1,0,0.3,0.1,0.5c0.2,0.1,0.3,0.3,0.5,0.2
			c0,0,0.1-0.1,0.1-0.1c0.1-0.2,0.1-0.3,0-0.5c0.3-0.2,0.7,0,1-0.1c0.8,0,1.5-0.2,2.3-0.2c0.1,0,0.3-0.1,0.4,0
			c-0.1,0.2-0.3,0.2-0.2,0.4c0,0.2,0.2,0.3,0.4,0.3c0.2-0.1,0.4-0.2,0.3-0.5c0-0.1-0.2-0.2-0.3-0.2c0.4-0.2,0.9-0.3,1.3-0.5
			c0.3-0.1,0.6-0.2,0.8-0.3c0.3,0,0.5-0.3,0.7-0.2c-0.1,0.3-0.2,0.7-0.4,1c-0.3,1.1-0.6,2.5,0,3.5c0.1,0,0.1,0,0.1,0
			c-0.4-1.1-0.2-2.3,0.2-3.3c0.3-1.7,2-2.2,3.3-2.9l0.1,0.1c-0.3,0.9-0.8,1.7-0.8,2.8c0,0.2-0.1,0.4,0,0.5c0.3-0.2,0.6-0.6,0.7-0.9
			c0.1-0.9-0.4-2,0.5-2.7c1.6-0.6,3.2-1.5,5.1-1.5c0.1,0.1,0.2,0,0.2,0.1c-0.4,0.4-1,0.9-1.2,1.4c-0.6,0.9-0.6,2.4-0.3,3.5
			c0.2,0.6-0.4,1-0.6,1.5c-0.1,0.2-0.2,0.5-0.3,0.7l0.4,0c0.3-0.4,0.7-0.8,0.7-1.3c0,0.2,0.2,0.4,0.4,0.4c0.1-0.2-0.1-0.4-0.1-0.6
			c0.3-0.2,0.5,0.2,0.7,0.3c0.4,0.1,0.8,0.3,1.2,0.3l0.1-0.1c-0.4-0.7-1.3-0.8-2.1-0.8c-0.4-0.7-0.4-1.5-0.4-2.3
			c0.1-0.4,0.2-0.9,0.4-1.3c0.1-0.3,0.4-0.5,0.6-0.8c0.4-0.3,0.8-0.6,1.3-0.7h0.1c0,0,0,0.1,0,0.1c-0.5,0.4-0.6,1-0.9,1.5
			c-0.3,0.5-0.5,1.2-0.2,1.8c0.1,0.3,0.1,0.7,0.3,0.8c0.3-0.4,0.3-0.8,0.4-1.2c-0.1-0.7-0.5-1.3-0.1-1.9c0.2-0.5,0.6-0.7,1.1-0.9
			c1.1-0.1,2.1,0.5,3,0.9c0.2,0.1,0.5,0.3,0.6,0.5c0,0.5-0.3,1.1-0.7,1.4c-0.5,0.3-1.3,0.4-1.8,0c-0.3-0.3-0.4-0.8-0.3-1.2
			c0.2-0.2,0.5-0.4,0.9-0.3c0.2,0.1,0.4,0.3,0.6,0.2c0.1-0.1,0.1-0.2,0.1-0.3c-0.2-0.1-0.3-0.4-0.6-0.5c-0.4-0.1-0.8,0-1.1,0.2
			c-0.4,0.4-0.6,0.9-0.5,1.4c0.1,0.6,0.6,1.1,1.2,1.3c0.9,0.2,1.9-0.1,2.5-0.8c0.2-0.3,0.3-0.5,0.4-0.9c1,0.6,1.7,1.6,2.1,2.7
			c0,0.3,0.1,0.7,0,1l0.7,0.1c-0.1-0.2,0-0.3,0.1-0.5c0.3-1.3,1.1-2.4,2.1-3.3c0.3-0.2,0.3,0.3,0.3,0.4c0.3,0.8,1,1.3,1.7,1.5
			c0.8,0.1,1.6-0.1,2.2-0.7c0.3-0.5,0.6-1.2,0.1-1.7c-0.3-0.3-0.7-0.5-1.1-0.5c-0.5,0-0.8,0.4-1.1,0.7c0,0.2,0,0.3,0.1,0.4
			c0.1,0,0.2,0,0.3-0.1c0-0.3,0.3-0.4,0.5-0.6c0.2-0.1,0.5,0,0.6,0.1c0.2,0.2,0.3,0.5,0.3,0.8c0,0.4-0.3,0.8-0.7,0.9
			c-0.6,0.3-1.4,0.2-1.9-0.2c-0.2-0.3-0.4-0.6-0.6-0.9c0-0.3-0.2-0.6,0-0.9c0.9-0.5,1.8-0.9,2.9-1c0.4,0.1,0.8,0.4,1.1,0.7
			c0.9,0.9-0.2,2.3,0.4,3.4c0.2,0,0.2-0.4,0.3-0.6c0.3-0.7-0.1-1.5-0.3-2.2c-0.2-0.4-0.4-0.8-0.8-1.2c0.1,0,0.1,0,0.2,0
			c0.4,0.3,0.9,0.6,1.2,1c0.6,1,0.9,2.1,0.8,3.3c-0.2,0.6-0.8,0.9-1.3,1.1c-0.2,0.2-0.4,0.4-0.5,0.6c0.2,0.1,0.6,0,0.8-0.1
			c0.4-0.1,0.6-0.6,0.9-0.8c0,0,0,0.1,0,0.1c0,0.2-0.1,0.5,0.1,0.6c0.1-0.3,0.1-0.7,0.2-1c0.3,0.3,0.3,0.6,0.4,1
			c0.2,0.4,0.5,0.8,1,0.9c0.1-0.2,0-0.4-0.1-0.5c-0.1-0.5-0.5-0.8-0.8-1.1c-0.7-1-0.4-2.5-0.9-3.6c-0.2-0.6-0.6-1-1.1-1.5l0.1-0.1
			c1,0,1.8,0.3,2.7,0.5c1.1,0.5,2.7,0.4,3.2,1.9c0.2,0.8,0.6,1.6,1.1,2.2l0.1,0c0.1-0.2,0.1-0.5,0-0.7c-0.1-1-1-1.3-1.5-2.1l0.1-0.1
			c0.5,0.1,1,0.3,1.5,0.5c1.6,0.4,2.7,2,2.9,3.7c0,1.3-0.2,2.4-0.7,3.5c-0.1,0.2-0.3,0.3-0.2,0.5c0.2-0.2,0.3-0.4,0.4-0.6
			c0.7-1.1,1-2.6,0.7-4.1c0-0.3-0.3-0.5-0.2-0.7c0.1,0.1,0.2,0.1,0.3,0.2c0.1-0.1,0.3-0.1,0.4-0.2c0-0.1,0.1-0.3,0-0.4
			c-0.1-0.2-0.4-0.2-0.6-0.1c-0.1,0.1-0.2,0.3-0.2,0.4c-0.2-0.3-0.4-0.8-0.7-1.1l0-0.1c0.9,0.3,1.7,0.7,2.6,1
			c0.2,0.1,0.4,0.2,0.7,0.2c0.8,0.3,1.6,0.4,2.5,0.6c0.6-0.1,1.1,0.2,1.7,0.1v0l0,0c-0.2-0.3-0.7,0-1-0.2c-1.4-0.1-2.7-0.5-3.9-1
			c0-0.1,0.1,0,0.2,0c0.2-0.1,0.3-0.3,0.3-0.5c-0.1-0.1-0.3-0.2-0.5-0.2c-0.1,0.1-0.3,0.2-0.3,0.3c0,0.2,0.2,0.3,0.3,0.4
			c0,0-0.1,0-0.2,0c-0.6-0.3-1.2-0.5-1.8-0.8c-0.2,0-0.4-0.2-0.6-0.3c-0.5-0.2-0.9-0.4-1.4-0.6c-1.3-0.7-2.7-1-4.1-1.5
			c-0.3-0.1-0.6-0.2-0.9-0.2c-0.5-0.1-1-0.3-1.5-0.4c-1.7-0.4-4-0.5-5.5,0.5c-0.2-0.1-0.4,0.3-0.5,0.1c0.4-1.1,1.6-1.5,2.7-1.5
			c8-0.1,15.6-0.1,23.5-0.3c0.9,0,1.8-0.3,2.3-1.2C95.2,28.6,95.3,27.8,95,27.3z M63.2,34.7c-0.1,0.2-0.2,0.4-0.2,0.7l-0.1,0
			c0.1-0.3-0.2-0.5-0.2-0.8c-0.2-0.2-0.2-0.5-0.3-0.8c-0.2-0.3,0.2-0.5,0.3-0.7c0.3,0.1,0.4,0.4,0.6,0.6
			C63.4,34.1,63.1,34.4,63.2,34.7z"/>
		<path class="st1" d="M84.9,33.5c0,0.1,0.1,0.1,0.1,0.2c-0.7,0.6-1.7,0.8-2.7,0.8c-0.1,0-0.2,0.1-0.3,0.1c-0.1,0-0.1-0.1,0-0.1
			C82.7,33.6,83.8,33.2,84.9,33.5z"/>
		<path class="st1" d="M81.7,33.8c0.1,0.3-0.1,0.4-0.3,0.5c-0.2,0-0.3-0.2-0.4-0.3c-0.1-0.2,0.1-0.2,0.1-0.3
			C81.2,33.5,81.6,33.5,81.7,33.8z"/>
		<path class="st1" d="M43.6,33.8c0,0.1,0,0.3-0.1,0.4c-0.1,0.1-0.3,0.1-0.4,0.1c-0.1,0-0.2-0.2-0.3-0.3c0-0.2,0.1-0.3,0.3-0.4
			C43.3,33.7,43.5,33.6,43.6,33.8z"/>
		<path class="st1" d="M40,35.1v0.1c-0.5,0.1-0.9,0-1.3-0.3c-0.3-0.4-0.6-0.8-1.1-1c0-0.1-0.1-0.1,0-0.2
			C38.6,33.8,39.2,34.6,40,35.1z"/>
		<path class="st1" d="M88,33.8c-0.5,0.7-0.9,1.5-1.7,1.8c-0.1,0-0.3,0.2-0.4,0.1c0.3-0.8,1-1.6,1.8-1.9
			C87.8,33.8,87.9,33.8,88,33.8z"/>
		<path class="st1" d="M44.7,34c0,0.2-0.1,0.3-0.3,0.4c-0.2,0-0.2-0.1-0.3-0.2c-0.1-0.2,0.1-0.3,0.2-0.4
			C44.5,33.8,44.7,33.9,44.7,34z"/>
		<path class="st1" d="M90.5,34.2c-0.2,0.3-0.1,0.6-0.3,0.9c-0.4,0.5-0.7,1-1.4,1.1c-0.1-0.2,0.1-0.4,0.2-0.6
			c0.3-0.6,0.7-1.3,1.3-1.6L90.5,34.2z"/>
		<path class="st1" d="M33.8,34.3c0.1,0.1,0.1,0.3,0,0.4c-0.1,0.1-0.3,0.1-0.5,0.1c-0.2-0.1-0.2-0.3-0.2-0.5
			C33.3,34.2,33.6,34.1,33.8,34.3z"/>
		<path class="st1" d="M32.6,34.6c0,0.1,0.1,0.2,0.1,0.3c-0.1,0.1-0.2,0.2-0.3,0.2c-0.2,0-0.4-0.1-0.5-0.3c0-0.2,0-0.3,0.2-0.4
			C32.3,34.3,32.5,34.4,32.6,34.6z"/>
		<path class="st1" d="M35,34.7c0,0.2,0.1,0.4-0.2,0.5c-0.3,0.1-0.4-0.1-0.6-0.2c0-0.2,0.1-0.3,0.2-0.4C34.7,34.5,34.9,34.5,35,34.7
			z"/>
		<path class="st1" d="M38.3,35c0,0.1,0,0.3-0.1,0.4c-0.1,0.1-0.3,0.1-0.4,0c0-0.1-0.3-0.2-0.1-0.4c0.1-0.1,0.2-0.2,0.3-0.2
			C38,34.9,38.2,34.8,38.3,35z"/>
		<path class="st1" d="M92.4,35.1c-0.1,0.1-0.1,0.3-0.3,0.3c-0.2,0-0.4,0-0.5-0.2c-0.1-0.2,0.1-0.3,0.3-0.4
			C92.1,34.8,92.4,34.9,92.4,35.1z"/>
		<path class="st1" d="M88.7,35.2c0,0.2-0.2,0.3-0.2,0.3c-0.3,0.1-0.5-0.1-0.6-0.3c0-0.2,0.2-0.3,0.3-0.4
			C88.5,34.9,88.6,35,88.7,35.2z"/>
		<path class="st1" d="M91.2,35.2c0,0.1-0.1,0.3-0.2,0.3c-0.2,0.1-0.4,0-0.5-0.1c-0.2-0.2,0-0.3,0.1-0.4
			C90.8,34.9,91.2,34.9,91.2,35.2z"/>
		<path class="st1" d="M33.3,35.5c0,0.2,0,0.4-0.2,0.5c-0.2,0-0.4-0.1-0.4-0.3c0-0.2,0-0.4,0.2-0.4C33,35.3,33.1,35.4,33.3,35.5z"/>
		<path class="st1" d="M87.7,35.7c0.1,0.2-0.1,0.4-0.3,0.5c-0.2,0-0.3,0-0.4-0.1c-0.1-0.1-0.2-0.3,0-0.4
			C87.2,35.4,87.6,35.5,87.7,35.7z"/>
		<path class="st1" d="M44,36c0.1,0.2-0.2,0.3-0.2,0.4c-0.1,0-0.2,0.1-0.3,0c-0.1-0.1-0.2-0.2-0.2-0.4c0.1-0.1,0.1-0.2,0.3-0.2
			C43.8,35.6,43.9,35.8,44,36z"/>
		<path class="st1" d="M92.1,36.1c0,0.1-0.1,0.2-0.1,0.3c-0.1,0.1-0.3,0.1-0.5,0.1c-0.2-0.1-0.2-0.3-0.2-0.4
			c0.1-0.1,0.1-0.2,0.3-0.2C91.8,35.8,92,35.9,92.1,36.1z"/>
		<path class="st1" d="M90.8,36.2c0.1,0.2-0.1,0.4-0.3,0.4c-0.1,0-0.2,0-0.2,0.1c0.5,0.3,0.8,0.7,1.2,1.1v0.2c-0.7,0-1.5-0.2-2-0.8
			C89.4,37,89.2,37,89,36.9c0.3-0.3,0.7-0.2,1.1-0.2c0.3-0.3-0.3-0.5,0-0.7c0.1,0,0.2-0.1,0.4-0.1C90.6,35.9,90.7,36,90.8,36.2z"/>
		<path class="st1" d="M82.6,36.2c0,0.1-0.1,0.2-0.1,0.3c-0.1,0.1-0.3,0.1-0.4,0.1c-0.1-0.1-0.3-0.3-0.2-0.5
			C82,35.8,82.5,35.9,82.6,36.2z"/>
		<path class="st1" d="M37.8,36.9c-0.1,0.2-0.1,0.3-0.3,0.3c-0.2,0-0.3-0.1-0.4-0.2c0-0.1,0.1-0.2,0.1-0.3
			C37.4,36.5,37.8,36.6,37.8,36.9z"/>
		<path class="st1" d="M39.4,36.6c0,0.3-0.3,0.4-0.4,0.7c-0.3,0.7-0.8,1.3-1.6,1.3c-0.1-0.2,0.3-0.4,0.3-0.6c0.3-0.7,1-1.1,1.5-1.5
			H39.4z"/>
		<path class="st1" d="M82.1,36.9c0,0.2-0.2,0.4-0.3,0.5c-0.2,0.1-0.3-0.1-0.4-0.2c-0.2-0.2-0.1-0.3,0-0.5
			C81.6,36.5,82,36.7,82.1,36.9z"/>
		<path class="st1" d="M83.4,37c0,0.2-0.2,0.4-0.4,0.4c0-0.1-0.1,0-0.2,0c-0.1-0.1-0.3-0.2-0.3-0.4c0.1-0.1,0.1-0.3,0.3-0.3
			C83,36.8,83.3,36.8,83.4,37z"/>
		<path class="st1" d="M42.5,37c0,0.2-0.1,0.3-0.3,0.4c-0.2,0-0.3-0.1-0.4-0.2c0-0.2,0.1-0.3,0.2-0.4C42.3,36.7,42.4,36.9,42.5,37z"
			/>
		<path class="st1" d="M43.9,37.1c-0.1,0.2-0.2,0.3-0.4,0.3c-0.1,0-0.3-0.1-0.4-0.2c0-0.2,0.1-0.3,0.3-0.4
			C43.6,36.8,43.9,36.9,43.9,37.1z"/>
		<path class="st1" d="M87.7,38.5c0.1,0.1,0.3,0.2,0.2,0.3c-0.3,0.1-0.6-0.2-0.9-0.3c-0.5-0.5-0.8-1-1-1.6c0.2-0.2,0.4,0,0.5,0.1
			C87,37.4,87.4,37.9,87.7,38.5z"/>
		<path class="st1" d="M88.4,37.1c0.1,0.1,0,0.3,0,0.4c-0.1,0.2-0.4,0.2-0.6,0.1c-0.1-0.1-0.3-0.3-0.2-0.5c0.1-0.2,0.2-0.2,0.4-0.3
			C88.2,36.9,88.3,37,88.4,37.1z"/>
		<path class="st1" d="M45.7,37.6c0,0.2,0.1,0.4-0.1,0.5c-0.2,0-0.4,0-0.5-0.2c-0.1-0.2,0.1-0.3,0.2-0.4
			C45.5,37.5,45.6,37.5,45.7,37.6z"/>
		<path class="st1" d="M83.3,38.9c0.3,0.4,0.5,0.9,0.5,1.4c-0.1,0.1,0.1,0.3,0,0.4h-0.1c-0.9-0.6-1.1-1.6-1.4-2.5
			c-0.1,0-0.1-0.1-0.1-0.2c0.2-0.2,0.3,0.2,0.5,0.2L83.3,38.9z"/>
		<path class="st1" d="M48.4,38.3C48.3,38.3,48.4,38.3,48.4,38.3c-0.8,0.6-1.9,0.9-2.8,0.4c0-0.1,0-0.2,0.1-0.2
			c0.6-0.2,1.1-0.5,1.8-0.4L48.4,38.3z"/>
		<path class="st1" d="M43.8,38.4c-0.7,0.4-1.3,1.3-2.1,1.5c-0.2,0.1-0.3,0.3-0.5,0.2c0.4-1.1,1.5-1.7,2.6-1.8V38.4z"/>
		<path class="st1" d="M82.1,39.3c0.1,0.2,0,0.4-0.2,0.4c-0.1,0.1-0.3,0.1-0.4,0c-0.2-0.1-0.2-0.3-0.2-0.4c0.1-0.1,0.2-0.2,0.3-0.2
			C81.9,39.1,82,39.1,82.1,39.3z"/>
		<path class="st1" d="M80.5,39.4c-0.1,0.3-0.5,0.4-0.7,0.5c-0.7,0.2-1.3-0.1-1.9-0.2c0-0.2,0.2-0.1,0.3-0.2c0.7-0.1,1.3-0.3,2-0.1
			C80.3,39.3,80.4,39.3,80.5,39.4z"/>
		<path class="st1" d="M43.8,40c-0.1,0.1-0.1,0.3-0.2,0.3c-0.1,0.1-0.3,0-0.4-0.1c0-0.1-0.2-0.2-0.1-0.4c0-0.1,0.2-0.2,0.3-0.2
			C43.6,39.6,43.7,39.8,43.8,40z"/>
		<path class="st1" d="M45,40.1c-0.1,0.1-0.1,0.3-0.3,0.4c-0.2,0-0.3,0-0.4-0.1c-0.1-0.1-0.1-0.3-0.1-0.4c0-0.1,0.2-0.1,0.3-0.2
			C44.7,39.8,44.9,40,45,40.1z"/>
		<path class="st1" d="M81.7,40.3c0,0.2-0.1,0.3-0.1,0.4c-0.1,0.1-0.3,0.2-0.4,0.1c-0.1,0-0.2-0.2-0.2-0.3c-0.1-0.2,0.1-0.3,0.1-0.4
			C81.3,39.9,81.6,40,81.7,40.3z"/>
		<path class="st1" d="M82.6,40.3c0,0.1,0.1,0.2,0,0.3c-0.1,0.1-0.2,0.4-0.4,0.3c-0.1,0-0.2-0.1-0.2-0.2c-0.1-0.2,0-0.5,0.2-0.5
			C82.4,40.1,82.5,40.2,82.6,40.3z"/>
		<path class="st1" d="M44.2,40.9c0,0.2,0,0.4-0.2,0.5c-0.2,0-0.5,0-0.6-0.2c0-0.2,0-0.5,0.2-0.6C43.9,40.6,44.1,40.6,44.2,40.9z"/>
		<path class="st1" d="M45.4,40.8c0,0.6-0.2,1.3-0.7,1.6c-0.3,0.1-0.6,0.4-1,0.2v-0.1C44.1,41.8,44.9,41.4,45.4,40.8z"/>
		<path class="st1" d="M78.6,41.3c0.1,0.1-0.1,0.2-0.1,0.3c-0.1,0.1-0.3,0.1-0.5,0c-0.1-0.1-0.2-0.3-0.1-0.4c0-0.1,0.2-0.2,0.3-0.2
			C78.3,41,78.5,41.1,78.6,41.3z"/>
		<path class="st1" d="M47.4,42.2c0.3,0.5,0.1,1.1,0.3,1.6c-0.3,0-0.5-0.3-0.7-0.5c-0.4-0.6-0.4-1.4-0.6-2.1c0-0.1,0.1-0.1,0.1,0
			c0.3,0.2,0.5,0.6,0.8,0.8C47.3,42.1,47.4,42.1,47.4,42.2z"/>
		<path class="st1" d="M79.6,41.4c0,0.2-0.2,0.2-0.3,0.3c-0.1,0-0.3-0.1-0.4-0.2c-0.1-0.2,0.1-0.3,0.2-0.4
			C79.3,41.1,79.5,41.2,79.6,41.4z"/>
		<path class="st1" d="M82,43.2c0,0.1,0,0.2-0.1,0.1h-0.1c-0.6-0.5-1.2-1.1-1.1-1.9l0.1,0C81.4,41.9,82,42.4,82,43.2z"/>
		<path class="st1" d="M80.5,42.6c0,0.2-0.1,0.3-0.2,0.4c-0.2,0.1-0.6,0-0.6-0.3c0-0.2,0.2-0.3,0.3-0.4
			C80.2,42.2,80.4,42.4,80.5,42.6z"/>
		<path class="st1" d="M79.2,43c-0.3,0.7-1,1.1-1.6,1.7c-0.1-0.1-0.1-0.2,0-0.3c0.2-0.8,0.8-1.5,1.5-1.8
			C79.4,42.6,79.1,42.8,79.2,43z"/>
		<path class="st1" d="M80.7,43.6c0,0.2-0.2,0.3-0.3,0.4c-0.2,0-0.3-0.1-0.4-0.2c0-0.2,0.1-0.3,0.3-0.4
			C80.4,43.3,80.6,43.4,80.7,43.6z"/>
		<path class="st1" d="M65.8,7c0.3,0,0.5,0.2,0.5,0.5C66.2,7.7,66,8,65.8,8h-5.9c-0.3,0-0.5-0.2-0.5-0.5c0-0.3,0.2-0.5,0.5-0.5H65.8
			z M61.5,7.8c0.6,0,0-0.7-0.3-0.7h-0.6c-0.6,0,0,0.7,0.3,0.7H61.5z M64,7.8c0.6,0,0-0.7-0.3-0.7h-0.6c-0.6,0,0,0.7,0.3,0.7H64z
			 M65.8,7.1h-0.2c-0.6,0-0.1,0.7,0.2,0.7C66.2,7.8,66.2,7.1,65.8,7.1z"/>
		<path class="st1" d="M65.2,13.8l1.1,0.4l1.1-0.4L67,15.4l0.9-0.2l-0.3,1l0.3,1L67.1,17l0.3,1.8l-1.1-0.4l-1.1,0.4l0.5-1.8
			l-0.9,0.3l0.2-1l-0.2-1l0.9,0.1L65.2,13.8z M66.9,16.8c0.3,0,0.3-0.4,0.3-0.7c0-0.7-0.5,0-0.8-0.6c-0.2,0.5-0.8,0-0.8,0.6
			c0,0.4,0,0.7,0.4,0.7H66.9z M65.8,16.2c0,0.3,0.4,0.1,0.6,0.1c0.3,0,0.6,0.2,0.6-0.1c0-0.4-0.4-0.2-0.6-0.2
			C66.1,15.9,65.8,15.8,65.8,16.2z"/>
		<polygon class="st1" points="62.6,16.2 62.6,16 62.4,16 62.5,15.8 62.4,15.7 62.6,15.7 62.8,15.5 62.9,15.7 63.1,15.7 63,15.8
			63.1,16 62.9,16 62.9,16.2 62.8,16.1 		"/>
		<polygon class="st1" points="61.7,17.4 61.7,17.2 61.5,17.1 61.6,17 61.6,16.8 61.8,16.8 61.9,16.6 62,16.8 62.2,16.8 62.1,17
			62.2,17.1 62,17.2 62,17.4 61.9,17.2 		"/>
		<polygon class="st1" points="63.2,17.2 63.2,17 63,17 63.1,16.8 63.1,16.7 63.2,16.7 63.4,16.5 63.5,16.7 63.7,16.7 63.6,16.8
			63.7,17 63.5,17 63.5,17.2 63.4,17.1 		"/>
		<polygon class="st1" points="63.4,18.1 63.4,18 63.3,17.9 63.3,17.8 63.3,17.7 63.4,17.8 63.5,17.6 63.5,17.8 63.6,17.7
			63.6,17.8 63.7,17.9 63.6,18 63.6,18.1 63.5,18 		"/>
		<polygon class="st1" points="62,19 62,18.7 61.6,18.6 61.9,18.4 61.7,18.1 62.1,18.1 62.3,17.7 62.5,18.1 62.8,18.1 62.7,18.4
			62.9,18.6 62.6,18.7 62.6,19 62.3,18.8 		"/>
		<polygon class="st1" points="62.7,0 63.4,1.7 65.2,1.2 64.3,2.8 65.8,3.9 64,4.2 64.1,6.1 62.7,4.9 61.3,6.1 61.4,4.2 59.6,3.9
			61.1,2.8 60.2,1.2 62,1.7 		"/>
		<path class="st1" d="M56.2,38.9C56,39,55.9,39.1,56,39.3l0.3,1.1c0,0.2,0.1,0.5-0.1,0.7c-0.2,0.2-0.5,0.4-0.7,0.4
			c-0.2,0-0.6,0.1-0.9,0c-0.2-0.1-0.3-0.2-0.4-0.5l-0.3-1.1c-0.1-0.3-0.2-0.3-0.4-0.2l0-0.1l1.3-0.3l0,0.1c-0.3,0.1-0.4,0.1-0.3,0.4
			l0.3,1.1c0,0.2,0.2,0.7,0.7,0.5c0.7-0.2,0.6-0.7,0.5-0.9l-0.2-1c0-0.2-0.1-0.3-0.5-0.2l0-0.1L56.2,38.9L56.2,38.9z"/>
		<path class="st1" d="M58.2,39.2c-0.1-0.2-0.4-0.6-0.9-0.4c-0.2,0-0.4,0.2-0.4,0.4c0,0.2,0.1,0.2,0.5,0.3l0.6,0.1
			c0.1,0,0.5,0.2,0.6,0.5c0.1,0.3-0.1,0.8-0.8,0.9c-0.4,0.1-0.6,0-0.7,0C57,41,57,41.1,57,41.2l-0.1,0l-0.2-0.8l0.1,0
			c0.2,0.3,0.5,0.6,1,0.5c0.5-0.1,0.4-0.4,0.4-0.5c0-0.2-0.3-0.3-0.5-0.3l-0.3,0c-0.7-0.1-0.8-0.4-0.8-0.6c0-0.2,0-0.7,0.7-0.9
			c0.3-0.1,0.5,0,0.6,0c0.1,0,0.1-0.1,0.1-0.1l0.1,0l0.2,0.7L58.2,39.2z"/>
		<path class="st1" d="M60.9,40.5l-1.5,0.1l0-0.1c0.3,0,0.4-0.1,0.4-0.4l-0.2-1.8c-0.3,0-0.7,0.1-0.7,0.7l-0.1,0l-0.1-0.7l2.4-0.2
			l0.1,0.7l-0.1,0c-0.1-0.5-0.6-0.5-0.8-0.5l0.2,1.8C60.4,40.4,60.5,40.4,60.9,40.5L60.9,40.5z"/>
		<path class="st1" d="M64.3,40.5l-0.8,0l-0.8-1.1l-0.1,0l0,0.7c0,0.3,0.1,0.3,0.4,0.3l0,0.1l-1.4,0l0-0.1c0.3,0,0.4,0,0.4-0.3
			l0-1.5c0-0.3-0.1-0.3-0.4-0.3l0-0.1l1.3,0c0.3,0,1.2,0,1.1,0.6c0,0.4-0.4,0.5-0.7,0.6l0.8,1C64.1,40.4,64.2,40.4,64.3,40.5
			L64.3,40.5z M62.5,39.3c0.5,0,0.7-0.1,0.8-0.5c0-0.3-0.2-0.5-0.5-0.5c-0.2,0-0.2,0-0.3,0.1L62.5,39.3z"/>
		<path class="st1" d="M66.9,40.8l-1.3-0.2l0-0.1c0.3,0,0.3,0,0.3-0.1c0-0.1-0.1-0.4-0.1-0.5l-0.9-0.1c-0.1,0.2-0.2,0.4-0.2,0.4
			c0,0.1,0.2,0.2,0.3,0.2l0,0.1l-0.8-0.1l0-0.1c0.2,0,0.3-0.1,0.4-0.3l1.1-1.8l0.1,0l0.7,1.9C66.7,40.6,66.7,40.7,66.9,40.8
			L66.9,40.8z M65.8,39.9L65.5,39L65,39.8L65.8,39.9z"/>
		<path class="st1" d="M69.3,41.3L67,40.9l0-0.1c0.2,0,0.4,0,0.4-0.2l0.3-1.6c0-0.2-0.1-0.3-0.3-0.3l0-0.1l1.4,0.3l0,0.1
			c-0.3,0-0.4-0.1-0.5,0.2L68,40.8c0,0.2,0.1,0.2,0.3,0.3c0.6,0.1,0.9-0.1,1.1-0.5l0.1,0L69.3,41.3z"/>
		<path class="st1" d="M70.9,41.7l-1.4-0.3l0-0.1c0.2,0,0.4,0,0.4-0.2l0.3-1.6c0-0.2-0.1-0.3-0.3-0.3l0-0.1l1.4,0.3l0,0.1
			c-0.2,0-0.4-0.1-0.4,0.2l-0.3,1.6C70.5,41.5,70.7,41.5,70.9,41.7L70.9,41.7z"/>
		<path class="st1" d="M73.7,42l-1.3-0.1l0-0.1c0.3,0,0.3,0,0.3-0.1c0-0.1-0.1-0.4-0.1-0.5l-0.9-0.1c-0.1,0.2-0.2,0.4-0.2,0.4
			c0,0.1,0.2,0.2,0.3,0.2l0,0.1l-0.8-0.1l0-0.1c0.2,0,0.3-0.1,0.4-0.4l1.1-1.8l0.1,0l0.7,1.9C73.5,41.8,73.5,41.9,73.7,42L73.7,42z
			 M72.5,41.1l-0.3-0.9L71.7,41L72.5,41.1z"/>
		<path class="st1" d="M63.2,14.3c0-0.8-0.5-0.1-0.7-0.8c-0.2,0.6-0.7,0.1-0.7,0.7c0,0.2,0.1,0.4,0.2,0.5V15c0,0.1,0.1,0.1,0.1,0.1
			H63c0.1,0,0.1-0.1,0.1-0.1v-0.3C63.2,14.7,63.2,14.5,63.2,14.3z M62.5,14.5c-0.2,0-0.6,0.2-0.6-0.1c0-0.4,0.3-0.3,0.5-0.3
			c0.2,0,0.6-0.1,0.6,0.3C63.1,14.7,62.8,14.5,62.5,14.5z"/>
		<path class="st1" d="M70.4,24.4c0.2,0,0.4-0.1,0.4-0.3c0-0.2-0.2-0.3-0.4-0.3c-0.2,0-0.4,0.1-0.4,0.3C70,24.3,70.2,24.4,70.4,24.4
			z"/>
		<path class="st1" d="M68.6,12.2c0,0-0.2,0.3-0.2,0.4c0,0.1,0.1,0.2,0.2,0.2c0.1,0,0.2-0.1,0.2-0.2C68.8,12.6,68.6,12.2,68.6,12.2z
			"/>
		<path class="st1" d="M56.5,12.2c0,0-0.2,0.3-0.2,0.4c0,0.1,0.1,0.2,0.2,0.2c0.1,0,0.2-0.1,0.2-0.2C56.7,12.6,56.5,12.2,56.5,12.2z
			"/>
		<path class="st1" d="M59.6,12.2c0,0-0.2,0.3-0.2,0.4c0,0.1,0.1,0.2,0.2,0.2c0.1,0,0.2-0.1,0.2-0.2C59.7,12.6,59.6,12.2,59.6,12.2z
			"/>
		<path class="st1" d="M62.6,12.2c0,0-0.2,0.3-0.2,0.4c0,0.1,0.1,0.2,0.2,0.2c0.1,0,0.2-0.1,0.2-0.2C62.8,12.6,62.6,12.2,62.6,12.2z
			"/>
		<path class="st1" d="M65.6,12.2c0,0-0.2,0.3-0.2,0.4c0,0.1,0.1,0.2,0.2,0.2c0.1,0,0.2-0.1,0.2-0.2C65.8,12.6,65.6,12.2,65.6,12.2z
			"/>
		<path class="st1" d="M56.5,16.4c0,0,0.2,0.3,0.2,0.4c0,0.1-0.1,0.2-0.2,0.2c-0.1,0-0.2-0.1-0.2-0.2C56.4,16.7,56.5,16.4,56.5,16.4
			z"/>
		<path class="st1" d="M56.5,20.4c0,0,0.2,0.3,0.2,0.4c0,0.1-0.1,0.2-0.2,0.2c-0.1,0-0.2-0.1-0.2-0.2C56.4,20.8,56.5,20.4,56.5,20.4
			z"/>
		<path class="st1" d="M57,23.6c0,0,0.2,0.3,0.2,0.4c0,0.1-0.1,0.2-0.2,0.2c-0.1,0-0.2-0.1-0.2-0.2C56.8,24,57,23.6,57,23.6z"/>
		<path class="st1" d="M59.6,25.3c0,0,0.2,0.3,0.2,0.4c0,0.1-0.1,0.2-0.2,0.2c-0.1,0-0.2-0.1-0.2-0.2C59.4,25.7,59.6,25.3,59.6,25.3
			z"/>
		<path class="st1" d="M68.8,16.4c0,0-0.2,0.3-0.2,0.4c0,0.1,0.1,0.2,0.2,0.2c0.1,0,0.2-0.1,0.2-0.2C69,16.7,68.8,16.4,68.8,16.4z"
			/>
		<path class="st1" d="M68.8,20.4c0,0-0.2,0.3-0.2,0.4c0,0.1,0.1,0.2,0.2,0.2c0.1,0,0.2-0.1,0.2-0.2C69,20.8,68.8,20.4,68.8,20.4z"
			/>
		<path class="st1" d="M68.3,23.6c0,0-0.2,0.3-0.2,0.4c0,0.1,0.1,0.2,0.2,0.2c0.1,0,0.2-0.1,0.2-0.2C68.5,24,68.3,23.6,68.3,23.6z"
			/>
		<path class="st1" d="M65.8,25.3c0,0-0.2,0.3-0.2,0.4c0,0.1,0.1,0.2,0.2,0.2c0.1,0,0.2-0.1,0.2-0.2C66,25.7,65.8,25.3,65.8,25.3z"
			/>
		<path class="st1" d="M62.7,27.1c0,0-0.2,0.3-0.2,0.4c0,0.1,0.1,0.2,0.2,0.2c0.1,0,0.2-0.1,0.2-0.2C62.9,27.5,62.7,27.1,62.7,27.1z
			"/>
		<path class="st1" d="M67.6,21.1c0,0.1,0.1,0.1,0.3,0l0.1-0.3c0,0-0.1-0.2-0.2-0.1c-0.3,0.1-0.7,0.1-0.9,0.4c0,0.2,0.2,0.4,0.3,0.5
			c0.1,0,0.1,0.1,0.2,0.1c0,0.1,0,0.2-0.1,0.2c-0.2-0.2-0.6,0.1-0.8-0.2c0.1-0.3,0.2-0.6,0-0.9c0-0.1,0.1-0.1,0.1-0.2
			c-0.1-0.3-0.4-0.1-0.6-0.1c-0.3,0-0.5,0.1-0.7,0.3c0,0.1,0.1,0.2,0.2,0.3c0.1,0,0.1,0,0.1,0.1l-0.2,0.1c0.1,0.1,0.1,0.1,0.1,0.2
			c-0.1,0.1-0.3-0.1-0.3-0.2c0-0.2,0-0.4-0.2-0.5c0,0-0.2,0.1-0.2,0.1c0,0.1-0.1,0.2-0.1,0.3c0,0.1,0.1,0.3,0.1,0.3s0.6,0.4,0.7,0.7
			c-0.2,0.3-0.2,0.8-0.6,1c-0.1,0.1-0.1,0.2-0.1,0.3l0.1,0.1c0.2-0.1,0.7-0.2,0.7-0.6c0.1-0.2,0.2-0.4,0.4-0.5
			c0.2,0,0.4,0.1,0.4,0.2c-0.1,0.3-0.2,0.5-0.5,0.6c0,0,0,0.1,0,0.2c0.1,0.1,0.3,0.1,0.4,0.1c0.3-0.2,0.5-0.6,0.7-0.7
			c0,0.2-0.4,0.2-0.1,0.4c0.2,0,0.4,0,0.5-0.2c-0.1-0.3,0.5-0.5,0.1-0.8c0-0.3,0.3-0.4,0.3-0.7c-0.1-0.3-0.5-0.3-0.6-0.6
			C67.3,21,67.5,21,67.6,21.1z"/>
		<path class="st1" d="M53.7,24.6c0.2,0,0.4-0.1,0.4-0.3c0-0.2-0.2-0.3-0.4-0.3s-0.4,0.1-0.4,0.3C53.3,24.4,53.5,24.6,53.7,24.6z"/>
		<path class="st1" d="M34.1,36.1c0.2,0,0.4-0.2,0.4-0.4c0-0.2-0.2-0.4-0.4-0.4c-0.2,0-0.4,0.2-0.4,0.4
			C33.7,35.9,33.9,36.1,34.1,36.1z"/>
		<path class="st1" d="M46.6,38.8L46.6,38.8L46.6,38.8L46.6,38.8L46.6,38.8C46.5,38.8,46.5,38.8,46.6,38.8L46.6,38.8L46.6,38.8
			L46.6,38.8C46.5,38.8,46.5,38.8,46.6,38.8L46.6,38.8C46.5,38.8,46.5,38.8,46.6,38.8L46.6,38.8L46.6,38.8
			C46.5,38.8,46.5,38.8,46.6,38.8C46.5,38.8,46.5,38.8,46.6,38.8L46.6,38.8C46.6,38.8,46.6,38.8,46.6,38.8L46.6,38.8z M46.5,38.8
			C46.5,38.8,46.5,38.8,46.5,38.8C46.5,38.8,46.5,38.8,46.5,38.8C46.5,38.8,46.5,38.8,46.5,38.8L46.5,38.8z"/>
		<path class="st1" d="M46.6,38.8C46.6,38.8,46.6,38.8,46.6,38.8C46.6,38.8,46.6,38.8,46.6,38.8C46.6,38.8,46.6,38.8,46.6,38.8
			L46.6,38.8C46.6,38.8,46.6,38.8,46.6,38.8C46.6,38.8,46.6,38.8,46.6,38.8C46.6,38.8,46.6,38.8,46.6,38.8
			C46.6,38.8,46.6,38.8,46.6,38.8L46.6,38.8L46.6,38.8L46.6,38.8C46.6,38.8,46.6,38.8,46.6,38.8C46.6,38.8,46.6,38.8,46.6,38.8
			C46.6,38.8,46.6,38.8,46.6,38.8L46.6,38.8C46.6,38.8,46.6,38.8,46.6,38.8C46.6,38.8,46.6,38.8,46.6,38.8
			C46.6,38.8,46.6,38.8,46.6,38.8C46.6,38.8,46.6,38.8,46.6,38.8L46.6,38.8L46.6,38.8L46.6,38.8z"/>
		<path class="st1" d="M46.7,38.8C46.7,38.8,46.7,38.8,46.7,38.8L46.7,38.8L46.7,38.8L46.7,38.8L46.7,38.8L46.7,38.8L46.7,38.8
			l-0.1,0c0,0,0,0,0,0v0L46.7,38.8L46.7,38.8C46.7,38.8,46.6,38.8,46.7,38.8C46.6,38.8,46.6,38.8,46.7,38.8L46.7,38.8L46.7,38.8
			L46.7,38.8L46.7,38.8C46.7,38.8,46.7,38.8,46.7,38.8L46.7,38.8L46.7,38.8L46.7,38.8C46.7,38.8,46.7,38.8,46.7,38.8
			C46.7,38.8,46.7,38.8,46.7,38.8L46.7,38.8L46.7,38.8L46.7,38.8C46.7,38.8,46.7,38.8,46.7,38.8C46.7,38.8,46.7,38.8,46.7,38.8
			L46.7,38.8L46.7,38.8L46.7,38.8z"/>
		<path class="st1" d="M46.7,38.8C46.8,38.8,46.8,38.8,46.7,38.8C46.8,38.8,46.8,38.8,46.7,38.8C46.8,38.8,46.8,38.8,46.7,38.8
			C46.8,38.8,46.7,38.8,46.7,38.8C46.7,38.8,46.7,38.8,46.7,38.8C46.8,38.8,46.8,38.8,46.7,38.8C46.8,38.8,46.8,38.8,46.7,38.8
			L46.7,38.8z M46.8,38.8C46.8,38.8,46.8,38.8,46.8,38.8C46.8,38.8,46.8,38.8,46.8,38.8C46.8,38.8,46.8,38.8,46.8,38.8
			C46.8,38.8,46.8,38.8,46.8,38.8C46.8,38.8,46.8,38.8,46.8,38.8z"/>
		<path class="st1" d="M46.8,38.8C46.8,38.8,46.8,38.8,46.8,38.8C46.8,38.8,46.8,38.8,46.8,38.8C46.8,38.8,46.8,38.8,46.8,38.8
			C46.8,38.8,46.8,38.8,46.8,38.8C46.8,38.8,46.8,38.8,46.8,38.8C46.8,38.8,46.8,38.8,46.8,38.8C46.8,38.8,46.8,38.8,46.8,38.8
			C46.8,38.8,46.8,38.8,46.8,38.8C46.8,38.8,46.8,38.8,46.8,38.8L46.8,38.8L46.8,38.8L46.8,38.8L46.8,38.8L46.8,38.8z"/>
		<path class="st1" d="M69.6,11.8L69.6,11.8l-14,0v0h0l0,10.7c0,1.1,0.5,2,1.1,2.3l5.4,3.4c0.1,0.1,0.3,0.2,0.5,0.2
			c0.2,0,0.3-0.1,0.4-0.2l5.5-3.5c0.6-0.3,1.1-1.2,1.1-2.3L69.6,11.8L69.6,11.8z M69.3,22.6c-0.1,0.8-0.3,1.5-0.9,1.9l-5.3,3.3h0
			c-0.1,0.1-0.2,0.1-0.4,0.1c-0.2,0-0.3-0.1-0.4-0.1L57,24.4c-0.6-0.4-0.8-1.1-0.9-1.9V12.1h13.2V22.6z"/>
		<path class="st1" d="M64.5,27.3l0.2-0.1C64.6,27.3,64.6,27.3,64.5,27.3z"/>
		<path class="st1" d="M54,41.9l-1.3,0.2l0-0.1c0.2,0,0.3-0.1,0.3-0.2c0-0.1-0.2-0.3-0.2-0.4l-0.9,0.1c-0.1,0.3-0.1,0.4-0.1,0.5
			c0,0.1,0.2,0.1,0.3,0.1l0,0.1l-0.8,0.1l0-0.1c0.2-0.1,0.3-0.2,0.4-0.4l0.7-2l0.1,0l1.1,1.7C53.7,41.7,53.8,41.9,54,41.9L54,41.9z
			 M52.7,41.2l-0.5-0.8l-0.3,0.9L52.7,41.2z"/>
		<path class="st1" d="M77.1,36.9c-0.2-0.6-0.7-1.1-1.4-1.3c-0.6-0.1-1.3,0-1.7,0.4c-0.7,0.6-0.2,1.6-0.2,2.3c0,0.2,0,0.3-0.1,0.4
			c-2.9-0.3-5.6-1-8.5-1.3c-0.7-0.1-1.3-0.1-2-0.2l-0.8-0.1c-2.5,0.1-5,0.2-7.4,0.8c-0.5,0.2-1.1,0.2-1.6,0.4
			c-0.4-0.1-0.7,0.2-1,0.1l-0.7,0.2c-0.1,0-0.1,0-0.2,0c-0.3-0.8,0.6-1.3,0.3-2.1c-0.3-0.5-0.8-0.9-1.4-0.8
			c-0.7-0.1-1.3,0.3-1.6,0.8c-0.5,1,0.1,2.1,0.3,3c0,0.3,0.3,0.7,0,0.9c-0.6-0.4-1.5-0.7-2.3-0.5c-0.2,0.1-0.7,0-0.8,0.2
			c0.9,0.5,2,0.4,2.9,0.4c0.1,0,0.2-0.1,0.3,0c0.1,0.5-0.1,1.2,0.2,1.7c0.4,0.5,1,0.6,1.5,0.7c1.8-0.1,3.5-0.6,5.2-1
			c0.3,0,0.5-0.2,0.7-0.2c0.9-0.2,1.9-0.4,2.8-0.4c-0.4,0.5-0.7,1.2-0.8,1.8c-0.2,0.5,0.4,0.6,0.6,0.9c-0.6,0.2-1.1,0.6-1.6,0.8
			c-1.3,0-2.4,0.4-3.6,0.6c0,0.3,0.4,0.2,0.5,0.4c-0.1,0.2-0.2,0.2-0.4,0.3c0,0.1,0,0.1,0.1,0.2c0.1-0.1,0.4,0,0.5-0.2
			c0.4,0,0.7-0.1,1.1-0.1c0.3-0.1,0.7-0.2,1-0.4c0.4-0.1,0.7-0.4,1.1-0.5c0.6,0,1.1-0.2,1.7-0.2v0.1c-0.5,0.7-0.9,1.5-1.4,2.2
			c-0.1,0.1,0,0.3,0.1,0.3c0.3,0.1,0.6,0,0.8-0.1c0.4-0.7,0.8-1.4,1.1-2.2c0.1-0.7,0.6-1,1.1-1.5c0.1,0,0.2-0.2,0.3,0
			c-0.4,0.5-0.7,0.9-1,1.4c-0.2,0.6-0.2,1.3,0.3,1.8c0.2,0.2,0.6,0.1,0.9,0.2c0.8-0.4,1.8,0.2,2.4-0.5c0.4-0.1,0.4,0.4,0.6,0.6
			c0.3,0.1,0.7,0.4,1,0.2c0-0.2-0.3-0.4-0.4-0.6c-0.2-0.4-0.5-0.8-0.8-1.2c-0.1-0.3-0.3-0.5-0.3-0.7c0.4,0.1,0.7,0.4,1.1,0.4
			c0.3,0.1,0.8,0.1,1.1,0.3c0.3,0.3,0.7,0.5,1,0.8c0.5,0.2,1.1,0.3,1.6,0.5c0.2,0,0.5,0.2,0.6,0c-0.1-0.1-0.2-0.2-0.3-0.2
			c-0.1-0.3,0.4-0.1,0.5-0.3c0-0.1-0.1-0.1-0.2-0.2c-0.3-0.2-1-0.2-1.2-0.3c-0.2,0-0.5-0.1-0.7-0.2c-1.2,0-1.9-1.1-2.8-1.5
			c0.2-0.2,0.6-0.4,0.7-0.7c0.2-0.3,0.2-0.7,0.1-1.1c-0.2-0.6-1-0.5-1.4-0.9l0.1-0.1c0.8,0,1.5,0.1,2.2,0.3c1.9,0.3,3.7,1,5.7,1
			c1.1,0,2.5,0.1,3-1c0.1-0.6,0.2-1.3,0.3-1.9C76.6,38.9,77.2,38,77.1,36.9z M55.5,46.1l-0.3-0.3c0.1-0.2,0.4-0.1,0.7-0.2
			c0.5-0.2,1.1-0.4,1.7-0.2C57,45.9,56.2,46,55.5,46.1z M68,45.8c0.5,0.2,1.4,0.4,2.1,0.5c-0.1,0.3-0.6,0-0.5,0.4
			c-0.6-0.2-1.3-0.4-1.8-0.8C67.9,45.8,67.9,45.8,68,45.8z M49.2,37.2c0.1-0.4,0.1-0.7,0.5-1c0.5-0.3,1.1-0.2,1.6,0.1
			c0.1,0.1,0.2,0.2,0.3,0.4c0.1,0.3-0.1,0.7-0.3,0.9h-0.2c0-0.3,0-0.6,0.1-0.9c0-0.2-0.2-0.3-0.4-0.4c-0.3-0.1-0.6,0.1-0.9,0.2
			c-0.2,0.2-0.4,0.5-0.3,0.9c0.1,0.2,0,0.5,0.1,0.8l-0.1,0.1C49.5,38,49.1,37.7,49.2,37.2z M50.1,37.8c0.3,0.2,0.7,0.1,1.1,0.2
			c0.1,0.2,0.1,0.5-0.1,0.7c-0.3-0.1-0.8,0-1-0.4C50.2,38.1,50.1,37.9,50.1,37.8z M50.1,37.1c0.1-0.2,0-0.4,0.2-0.4
			c0.1,0,0.4,0,0.4,0.1c0,0.2,0,0.5-0.1,0.7C50.3,37.5,50.2,37.4,50.1,37.1z M59.5,43.6c-0.1-0.7,0.2-1.3,0.6-1.8
			c0.3-0.1,0.6-0.1,0.9,0c-0.5,0.1-1.2,0.3-1.3,0.9c0,0.3-0.1,0.4,0.1,0.6c0.2,0.4,0.7,0.2,1,0.5c0,0.1-0.1,0.2-0.2,0.2
			C60.2,43.9,59.8,43.9,59.5,43.6z M58.8,45c0.5-0.2,1-0.6,1.5-0.4C59.9,44.8,59.3,45,58.8,45z M60.7,45.2c-0.3,0.6-0.6,1.3-1,1.9
			c0,0.1-0.2,0.1-0.3,0.1c0-0.3,0.3-0.5,0.4-0.7c0.4-0.5,0.5-1.1,1-1.7C60.9,44.9,60.7,45,60.7,45.2z M61.2,44L61.2,44L61.2,44
			L61.2,44L61.2,44L61.2,44C61.2,44,61.1,44,61.2,44L61.2,44z M61,43.5c-0.3,0-0.7-0.1-1-0.2c-0.2-0.2,0-0.4,0-0.6
			c0.3-0.4,1.1-0.7,1.5-0.3C61.4,42.8,61.3,43.1,61,43.5z M61.4,43.5c0.1-0.3,0.2-0.6,0.3-0.8C61.7,42.9,61.6,43.2,61.4,43.5z
			 M61.6,41.8c-0.3-0.1-0.4-0.4-0.7-0.4c0.2-0.1,0.5-0.1,0.8,0C61.8,41.6,61.7,41.7,61.6,41.8z M61.9,42.4L61.9,42.4l0-0.2h0V42.4z
			 M61.9,43.4c0-0.1,0-0.2,0.1-0.3c0.1-0.1,0.2,0.1,0.2,0.1C62.1,43.3,62,43.4,61.9,43.4z M62.2,42.1c0.1-0.3,0.1-0.5,0.3-0.7
			c0.2,0,0.4,0,0.5,0.1c0,0.4,0.5,0.9,0,1.3c-0.2,0.1-0.4,0.3-0.6,0.1C62.1,42.6,62.1,42.4,62.2,42.1z M63.7,41.6
			c0-0.2,0.2,0,0.3-0.1l0.6,0C64.2,41.4,63.8,42.2,63.7,41.6z M64.7,41.8c-0.2,0.1-0.4,0.4-0.7,0.4C64.1,42,64.4,41.8,64.7,41.8z
			 M63.8,43.1L63.8,43.1L63.8,43.1L63.8,43.1L63.8,43.1z M63.9,44.3c0,0,0,0.1,0,0.1l-0.5-0.4C63.6,44,63.7,44.1,63.9,44.3z
			 M63.3,43.7c0,0,0.1,0,0.2,0H63.3z M63,43.4c0.1-0.1,0.2-0.3,0.3-0.3c0,0,0,0,0,0.1C63.3,43.2,63.2,43.3,63,43.4z M62.6,43.3
			L62.6,43.3l0-0.1C62.7,43.2,62.6,43.3,62.6,43.3z M62.6,44.1c0.3-0.3,0.5,0.2,0.6,0.4c0.3,0.4,1.1,0.8,0.8,1.5
			c-0.4,0.3-1,0-1.4,0.3c-0.2,0-0.6,0-0.7-0.2C62.1,45.4,62.3,44.7,62.6,44.1z M62.1,44.5l0.1-0.2c-0.2,0.5-0.4,1-0.7,1.5
			C61.4,45.3,61.9,44.9,62.1,44.5z M63,46.9c-0.4,0-1,0.2-1.3-0.1c0-0.2-0.2-0.2-0.1-0.4c0.3-0.1,0.6,0.3,0.9,0c0.5,0,0.9-0.1,1.4,0
			c0.2,0.1,0.6-0.4,0.6,0.1C64.3,47.1,63.4,46.7,63,46.9z M64.1,44L64.1,44L64.1,44L64.1,44L64.1,44z M64.3,45.2
			c0,0.2,0.2,0.3,0.1,0.5C64.3,45.6,64.2,45.4,64.3,45.2z M64.8,46.5l-0.1,0c-0.1-0.1-0.1-0.3,0-0.4C64.8,46.2,64.9,46.3,64.8,46.5z
			 M65.8,46.9c0,0.1-0.1,0.1-0.2,0c-0.6-0.8-0.9-1.6-1.3-2.4l0.1,0C65,45.3,65.3,46.2,65.8,46.9z M66.6,45.1
			C66.5,45.1,66.5,45.1,66.6,45.1c-0.6,0.1-1-0.2-1.4-0.5l0-0.1C65.6,44.5,66.1,44.8,66.6,45.1z M66,42.4c0.2,0.1,0.3,0.3,0.3,0.5
			c0,0.4-0.3,0.8-0.7,1c-0.2,0.1-0.6,0.2-0.8,0.1c0.5,0,1-0.2,1.2-0.7L66,42.4z M65.6,42.3c0.1,0.3,0.3,0.5,0.2,0.9
			c-0.2,0.4-0.6,0.4-1,0.5c-0.2,0-0.3,0-0.5-0.1c0-0.1,0-0.1-0.1-0.2c0.1-0.3-0.5-0.5-0.1-0.7C64.5,42.3,65.3,41.6,65.6,42.3z
			 M75.8,40.8c-0.2,0.2,0,0.5-0.2,0.7c0,0.4-0.3,0.5-0.6,0.7c-2.4,0.5-4.7-0.3-7-0.7c-3.2-0.7-7-0.9-10.3-0.2
			c-1.5,0.3-3,0.6-4.5,1.1c-0.9,0.1-1.9,0.3-2.8,0c-0.7-0.3-0.4-1.3-0.6-1.9c0-0.5-0.1-0.9-0.2-1.4c-0.1-0.2-0.1-0.4-0.1-0.5
			c0.3,0,0.6,0.3,0.9,0.3c1.7,0.3,3.2-0.2,4.8-0.5c1.5-0.3,3-0.6,4.6-0.7c1.8,0,3.6-0.1,5.4,0.2c0.6,0,1,0.2,1.6,0.2
			c1.1,0.1,2.2,0.4,3.3,0.5c0.2,0.1,0.4,0.1,0.6,0.1c1.8,0.3,3.8,0.8,5.6,0C76.2,39.5,75.9,40.1,75.8,40.8z M75.2,38.4
			c0,0.3-0.3,0.2-0.4,0.4h-0.5c-0.1-0.2-0.1-0.4-0.1-0.6C74.6,38.2,74.9,38.2,75.2,38.4z M75,37.9c0.2-0.2-0.1-1.5,0.6-0.7
			c0,0.2,0,0.4-0.1,0.5C75.3,37.8,75.2,38,75,37.9z M76.6,37.7c-0.2,0.4-0.5,0.6-0.9,0.7c0-0.5,0.5-0.8,0.3-1.4
			c-0.3-0.4-0.8-0.5-1.3-0.4c-0.2,0.1-0.1,0.3-0.2,0.5l-0.1,0.7c-0.4,0-0.4-0.4-0.5-0.6c0-0.4,0.2-0.8,0.6-1.1
			c0.3-0.2,0.8-0.1,1.2,0c0.3,0.1,0.6,0.2,0.7,0.4C76.8,36.8,76.7,37.3,76.6,37.7z"/>
	</g>
</g>
</svg>
