<svg width="351" height="184" viewBox="0 0 351 184" fill="none" xmlns="http://www.w3.org/2000/svg">
<path d="M159.77 170.43V125H188.54V134.55H169.9V143.2H186.81V152.1H169.9V160.81H188.6V170.42H159.77V170.43ZM202.79 170.43H193.05V138.59H202.47V142.25C204.2 139.24 208.11 137.77 211.37 137.77C219.38 137.77 222.96 143.47 222.96 150.45V170.43H213.22V152.11C213.22 148.97 211.56 146.6 208.03 146.6C204.83 146.6 202.77 148.97 202.77 152.17V170.43H202.79ZM256.7 161.26C255.16 166.77 250.1 171.38 242.02 171.38C233.25 171.38 225.43 165.1 225.43 154.4C225.43 143.7 233.05 137.62 241.31 137.62C251.18 137.62 257.27 143.7 257.27 153.96C257.27 155.31 257.14 156.78 257.08 156.97H234.91C235.1 160.56 238.38 163.12 242.15 163.12C245.68 163.12 247.66 161.46 248.56 158.96L256.7 161.27V161.26ZM247.86 150.68C247.73 148.24 246.07 145.3 241.45 145.3C237.35 145.3 235.3 148.31 235.1 150.68H247.86ZM280.38 148.19C279.29 147.94 278.26 147.87 277.31 147.87C273.4 147.87 269.88 150.18 269.88 156.52V170.42H260.14V138.58H269.56V142.87C271.22 139.28 275.26 138.26 277.83 138.26C278.79 138.26 279.75 138.39 280.39 138.58V148.19H280.38ZM289.09 169.77C289.72 172.84 292.29 175.09 295.95 175.09C300.81 175.09 303.83 172.72 303.83 166.95V165.48C302.67 167.21 299.92 169.07 295.31 169.07C286.85 169.07 280.51 162.4 280.51 153.57C280.51 144.74 286.59 138 295.31 138C300.5 138 303.26 140.31 304.15 141.97V138.58H313.44V166.45C313.44 175.62 308.31 183.55 296.4 183.55C287.23 183.55 281.41 177.91 280.52 172.21L289.1 169.77H289.09ZM303.89 153.56C303.89 149.21 300.75 146.51 297.1 146.51C293.45 146.51 290.24 149.2 290.24 153.56C290.24 157.92 293.19 160.61 297.1 160.61C301.01 160.61 303.89 157.92 303.89 153.56ZM320.48 182.65L327.72 166.12L314.33 138.57H325.22L332.98 155.61L340.03 138.57H350.34L330.74 182.65H320.48ZM17.34 125C26.3 125 31.5 130.19 31.5 137.18C31.5 141.85 28.55 145.7 24.83 146.92C28.93 147.88 32.9 151.66 32.9 157.56C32.9 164.99 27.26 170.43 18.68 170.43H0.359985V125H17.34ZM15.74 143.19C19.27 143.19 21.57 141.34 21.57 138.26C21.57 135.18 19.59 133.4 15.62 133.4H10.24V143.2H15.75L15.74 143.19ZM16.58 162.16C20.49 162.16 22.86 160.12 22.86 156.84C22.86 153.56 20.55 151.52 16.58 151.52H10.23V162.16H16.58ZM56.51 148.19C55.42 147.94 54.39 147.87 53.44 147.87C49.53 147.87 46.01 150.18 46.01 156.52V170.42H36.27V138.58H45.69V142.87C47.35 139.28 51.39 138.26 53.96 138.26C54.92 138.26 55.88 138.39 56.52 138.58V148.19H56.51ZM78.45 167.21C76.79 169.97 73.13 171.12 69.93 171.12C62.17 171.12 57.82 165.48 57.82 158.69V138.58H67.56V156.65C67.56 159.72 69.22 162.16 72.69 162.16C75.95 162.16 78.01 159.91 78.01 156.71V138.58H87.75V164.72C87.75 167.6 88 169.91 88.07 170.42H78.71C78.58 169.85 78.46 168.05 78.46 167.22L78.45 167.21ZM99.97 154.53C99.97 159.6 103.36 162.41 107.4 162.41C111.18 162.41 113.29 160.04 114 157.67L122.58 160.3C121.17 165.87 115.91 171.38 107.4 171.38C97.92 171.38 90.3 164.4 90.3 154.53C90.3 144.66 97.73 137.62 107.08 137.62C115.85 137.62 120.98 143 122.39 148.7L113.68 151.33C112.98 148.89 111.05 146.59 107.27 146.59C103.23 146.59 99.97 149.41 99.97 154.54V154.51V154.53ZM154.09 161.26C152.55 166.77 147.49 171.38 139.41 171.38C130.64 171.38 122.82 165.1 122.82 154.4C122.82 143.7 130.44 137.62 138.7 137.62C148.57 137.62 154.66 143.7 154.66 153.96C154.66 155.31 154.53 156.78 154.47 156.97H132.3C132.49 160.56 135.77 163.12 139.54 163.12C143.07 163.12 145.05 161.46 145.95 158.96L154.09 161.27V161.26ZM145.25 150.68C145.12 148.24 143.46 145.3 138.84 145.3C134.74 145.3 132.69 148.31 132.49 150.68H145.25Z" fill="#202020"/>
<path d="M300.4 75.16H275.4V100.16H300.4V75.16Z" fill="#FF7A00"/>
<path d="M262.9 0H162.9V25H262.9V0ZM262.9 37.5H162.9V62.5H262.9V37.5ZM262.9 75H162.9V100H262.9V75ZM150.4 0H50.4V100H150.4V0Z" fill="#002AF0"/>
</svg>
