<svg width="924" height="428" viewBox="0 0 924 428" fill="none" xmlns="http://www.w3.org/2000/svg">
<g clip-path="url(#clip0_193_28)">
<path d="M176 222.1C235.8 220.2 283.2 172.6 283.9 113.5V62.7H349.7V118.9C348.4 210.3 269 282.4 176 284.4C81.4 283.8 1.40001 211.2 0.100012 118.8V17.8C1.17663e-05 7.50004 6.70001 0.80003 16.8 0.90003H283.9V62.6L74.5 62.7C69.1 62.7 65.9 66 65.9 71.3V112.5C66.6 172.4 114.8 221.5 176 222.1Z" fill="#FF7D41"/>
<path d="M919.5 105.7H893.5V241.9H919.5V105.7Z" fill="#5A5A5A"/>
<path d="M700.3 241.9V48.2H766.7C827.1 48.2 859.6 90.9 859.6 145.1C859.6 200.2 826 242 766.4 242L700.3 241.9ZM761.7 218.8C808.4 218.8 833.6 194.3 833.6 145.1C833.6 94.5 807 71.2 762.8 71.2H726.4V218.8H761.7Z" fill="#5A5A5A"/>
<path d="M889.9 60.2C889.9 51 897.4 43.5 906.6 43.5C915.8 43.5 923.3 51 923.3 60.2C923.3 69.4 915.8 76.9 906.6 76.9C897.3 76.8 889.9 69.4 889.9 60.2Z" fill="#5A5A5A"/>
<path d="M655.1 105.7H629.1V241.9H655.1V105.7Z" fill="#5A5A5A"/>
<path d="M434.8 241.9V48.2H501.2C561.6 48.2 594.1 90.9 594.1 145.1C594.1 200.2 560.5 242 500.9 242L434.8 241.9ZM496.2 218.8C542.9 218.8 568.1 194.3 568.1 145.1C568.1 94.5 541.5 71.2 497.3 71.2H460.9V218.8H496.2Z" fill="#5A5A5A"/>
<path d="M625.5 60.2C625.5 51 633 43.5 642.2 43.5C651.4 43.5 658.9 51 658.9 60.2C658.9 69.4 651.4 76.9 642.2 76.9C633 76.8 625.5 69.4 625.5 60.2Z" fill="#5A5A5A"/>
<path d="M0.399994 363.6H9.3V418.4H38.1V426.2H0.399994V363.6Z" fill="#808080"/>
<path d="M40.3 394.8C40.3 376.3 54.2 362.6 72.2 362.6C90.2 362.6 103.9 376.3 103.9 394.7C103.9 413.1 90.2 427 72.1 427C53.9 427.1 40.3 413.1 40.3 394.8ZM94.8 394.9C94.8 381 85.2 370.6 72.1 370.6C59 370.6 49.3 380.9 49.3 394.9C49.3 408.8 58.9 419.2 72.1 419.2C85.2 419.2 94.8 408.8 94.8 394.9Z" fill="#808080"/>
<path d="M117.5 363.6L132.2 413.1L144.9 371.9H153.2L166.1 413.3L180.8 363.6H190L170 426.2H161.4L148.8 386L136.3 426.2H127.8L108 363.6H117.5Z" fill="#808080"/>
<path d="M208.7 426.2H199.9V363.6H238.8V371.4H208.7V392H233.7V399.7H208.7V426.2Z" fill="#808080"/>
<path d="M280.1 409.5H253.8L247.9 426.2H238.8L262 363.6H272.2L295.7 426.2H286.1L280.1 409.5ZM277.4 402L266.9 372.8L256.5 402H277.4Z" fill="#808080"/>
<path d="M304.9 363.6H327.2C340.4 363.6 348.2 371.8 348.2 382.7C348.2 391.5 343.1 398.4 334.7 401L350 426.2H339.5L325.5 402.1H313.7V426.2H305V363.6H304.9ZM325.6 394.2C334.1 394.2 339.2 390.1 339.2 382.9C339.2 375.3 333.6 371.4 325.6 371.4H313.6V394.2H325.6Z" fill="#808080"/>
<path d="M399.5 363.6V371.4H369.7V390.8H395.6V398.6H369.7V418.5H400.2V426.3H360.8V363.6H399.5Z" fill="#808080"/>
<path d="M454.3 363.6H476.6C489.8 363.6 497.6 371.8 497.6 382.7C497.6 391.5 492.5 398.4 484.1 401L499.4 426.2H488.9L474.9 402.1H463V426.2H454.3V363.6ZM475 394.2C483.5 394.2 488.6 390.1 488.6 382.9C488.6 375.3 483 371.4 475 371.4H463V394.2H475Z" fill="#808080"/>
<path d="M510.3 363.6H519.2V426.2H510.3V363.6Z" fill="#808080"/>
<path d="M535.2 426.2V363.6H556.6C576.1 363.6 586.6 377.4 586.6 394.9C586.6 412.7 575.7 426.2 556.5 426.2H535.2ZM555 418.4C569.9 418.4 577.9 410.6 577.9 394.9C577.9 378.8 569.4 371.4 555.3 371.4H544.1V418.4H555Z" fill="#808080"/>
<path d="M637.5 363.6V371.4H607.7V390.8H633.6V398.6H607.7V418.5H638.2V426.3H598.8V363.6H637.5Z" fill="#808080"/>
<path d="M666.5 419.1C673.6 419.1 680.2 416.3 680.2 409.5C680.2 394 646.7 403.1 646.7 380.8C646.7 369.1 655.9 362.7 667.6 362.7C674.7 362.7 682.4 365.1 688 369.5L683.9 375.8C679.8 372.5 673.2 370.5 668 370.5C661.4 370.5 655.4 373.7 655.4 380.1C655.4 395.3 689.1 386 689.1 408.7C689.1 421 679.1 427.1 666.9 427.1C658.8 427.1 651.4 424.5 644.9 419.4L649 412.9C654 416.9 660.2 419.1 666.5 419.1Z" fill="#808080"/>
<path d="M700.7 363.6H709.6V390.8H740.8V363.6H749.7V426.2H740.8V398.5H709.6V426.2H700.7V363.6Z" fill="#808080"/>
<path d="M800.3 409.5H774L768.1 426.2H759L782.2 363.6H792.4L815.9 426.2H806.3L800.3 409.5ZM797.6 402L787.1 372.8L776.7 402H797.6Z" fill="#808080"/>
<path d="M825 363.6H847.3C860.5 363.6 868.3 371.8 868.3 382.7C868.3 391.5 863.2 398.4 854.8 401L870.1 426.2H859.6L845.6 402.1H833.8V426.2H825V363.6ZM845.8 394.2C854.3 394.2 859.4 390.1 859.4 382.9C859.4 375.3 853.8 371.4 845.8 371.4H833.8V394.2H845.8Z" fill="#808080"/>
<path d="M919.7 363.6V371.4H889.9V390.8H915.8V398.6H889.9V418.5H920.4V426.3H881V363.6H919.7Z" fill="#808080"/>
</g>
<defs>
<clipPath id="clip0_193_28">
<rect width="924" height="428" fill="white"/>
</clipPath>
</defs>
</svg>
	