<?xml version="1.0" encoding="UTF-8"?><svg id="Layer_2" xmlns="http://www.w3.org/2000/svg" viewBox="0 0 765.67 171.93"><defs><style>.cls-1{fill:#231f20;stroke-width:0px;}</style></defs><g id="Layer_1-2"><path class="cls-1" d="M418.86,169.06l.38-168.88,107.9-.18.04,26.54h-78.67v45.67h70.06v24.63h-70.06v47.35h78.67v24.87h-108.33ZM650.52,169.06l-46.36-72.48,44.93-47.09h-36.59l-42.57,43.52V0h-28.46v169.06h28.46l1.05-48.81,9.57-10.21,37.44,59.01h32.52ZM737.45,115.5c0,28.46-14.59,34.2-25.83,34.2-6.7,0-13.15-.48-18.65-6.22-6.22-6.22-5.98-15.78-5.98-25.35V49.5h-28.93v70.06c0,14.35.72,29.17,10.04,39.22,8.61,9.09,19.37,13.15,34.68,13.15,16.5,0,28.69-7.17,35.15-20.33v17.46h27.74V49.5h-28.21v66ZM173.4,72.06L242.35,0H0v72.05h173.4ZM173.4,97.01l-68.95,72.05h242.35v-72.05h-173.4Z"/></g></svg>