<svg version="1.1" xmlns="http://www.w3.org/2000/svg" xmlns:xlink="http://www.w3.org/1999/xlink" x="0px" y="0px" width="209.8px"
	 height="192.3px" viewBox="0 0 209.8 192.3" style="enable-background:new 0 0 209.8 192.3;" xml:space="preserve">
<style type="text/css">
	.st0{fill:#4C565C;}
	.st1{fill:#0064A7;}
	.st2{fill:#65BEEC;}
</style>
<defs>
</defs>
<g>
	<path class="st0" d="M160.1,155.3v-7.4c-0.6-0.2-2.1-0.3-2.6-0.3c-3.4,0-5.8,1.1-8.1,3.5v-3h-7.8v32.3h8.1v-2.9v-11.7
		c0-4.4-0.1-7.4,1.5-9.2C153.8,153.5,158.6,154.9,160.1,155.3z"/>
	<path class="st0" d="M0,180.5v-44.2h29.1v7.7H8.6v10.4h17.4v7.7H8.6v10.7h20.5v7.7H0z"/>
	<path class="st0" d="M162.7,149.1v-9.6h8.1v9.6h7.1v6.1h-7.1v15.5c0,1.9,0.9,2.9,2.8,2.9h4.3v6.8H172c-6.6,0-9.4-4.7-9.4-9.2v-16
		V149.1z"/>
	<path class="st0" d="M201.7,180.5v-19.7c0-4.3-2.7-5.7-5.3-5.7c-2.5,0-5.2,1.5-5.2,5.7v19.7h-8.1v-44.2h8.1v14.8
		c2.2-2.2,4.9-3.4,7.8-3.4c7.1,0,10.8,5,10.8,11.8v20.9H201.7z"/>
	<path class="st0" d="M58.2,177.9c-1.8,1.8-4.7,2.9-7.9,2.9c-3.3,0-5.7-0.9-7.8-3.2v14.7h-8.1v-44.2h7.8v3c2.2-2.5,4.7-3.4,8.1-3.4
		c3.2,0,6.1,1.1,7.9,2.9c3.2,3.2,3.3,8.7,3.3,13.6C61.5,169.1,61.4,174.7,58.2,177.9z M48,155c-4.8,0-5.5,4-5.5,9.2
		c0,5.3,0.6,9.3,5.5,9.3c4.8,0,5.5-4,5.5-9.3C53.4,159,52.8,155,48,155z"/>
	<path class="st0" d="M99.1,180.5h-6.6l-6.8-20.3L79,180.5h-6.6l-9.9-32.3H71l5.2,20l6.6-20h5.9l6.6,20l5.2-20h8.5L99.1,180.5z"/>
	<path class="st0" d="M133.1,176.9c-2,2.1-5.3,4-10.1,4c-4.8,0-8-1.9-10-4c-2.9-3-3.7-6.7-3.7-12.6c0-5.8,0.7-9.5,3.7-12.5
		c2-2.1,5.2-4,10-4c4.8,0,8.1,1.9,10.1,4c2.9,3,3.7,6.7,3.7,12.5C136.8,170.2,136,173.8,133.1,176.9z M126.9,156.5
		c-0.9-0.9-2.2-1.4-3.8-1.4c-1.6,0-2.8,0.5-3.7,1.4c-1.7,1.7-1.9,4.5-1.9,7.8c0,3.3,0.2,6.2,1.9,7.9c0.9,0.9,2.1,1.4,3.7,1.4
		c1.6,0,2.9-0.5,3.8-1.4c1.7-1.7,1.9-4.5,1.9-7.9C128.7,160.9,128.5,158.1,126.9,156.5z"/>
</g>
<path class="st1" d="M165.5,60.6c0,33.4-27.1,60.6-60.6,60.6c-33.4,0-60.6-27.1-60.6-60.6C44.3,27.1,71.5,0,104.9,0
	C138.4,0,165.5,27.1,165.5,60.6z"/>
<path class="st2" d="M142.5,59.7c0.7,0.8-0.4,1.7-1.5,2.7c-3.3,2.9-20.4,13.5-29.3,16.4c-0.2,4.2-2.2,47.7-2.3,49
	c-0.1,1.4-2,3.3-4,3.3c-2.1,0-4.2-1.6-4.3-3.3c-0.1-1.6-1.6-45.8-1.6-45.8c-5.9,1.4-13.4,2.5-19.3,2.5c-11.2,0-23.3-2.8-23.3-11.7
	c0-5.4,4.7-11.2,13.1-17.6c6.9-5.3,17.5-9.8,19.2-10c0.4,0,0.7,0,0.9,0.2c0.4,0.5,0,1-1,1.5C85,49.5,67.6,60.1,67.6,68.7
	c0,4.9,6.1,8.2,18.7,8c17.5-0.3,36.8-6.5,52.9-16C139.3,60.7,141.7,58.9,142.5,59.7z M138,31.5L138,31.5C138,31.5,138,31.5,138,31.5
	c-9,0-22.4,3.7-31.9,6.4C98.1,40.2,97,45,97,47.2c0,4.4,3.6,8.1,8.1,8.1c4.4,0,8.1-3.6,8.1-8.1c0-3.1-1.8-5.9-4.4-7.2
	c0,0,0.1,0,0.1,0c11-3.3,21.5-5.4,27-5.4c2.4,0,5.7,0.4,5.7,3.3c0,2.6-5,9.1-16.7,15.7c-13.3,7.6-26.7,10.2-33.7,10.2
	c-5,0-7.3-1.1-7.3-2.8c0-0.6,0.3-1.2,0.5-1.6c0.1-0.2,0.1-0.5,0-0.7c-0.1-0.2-0.4-0.3-0.6-0.3C80,59.3,78,62.5,78,65
	c0,2.1,0.8,3.6,2.2,4.6C82,70.7,84.7,71,89,71c26.8,0,62.6-21.1,62.6-32.1C151.6,32.1,141.5,31.5,138,31.5z"/>
</svg>
