<svg version="1.1" xmlns="http://www.w3.org/2000/svg" xmlns:xlink="http://www.w3.org/1999/xlink" x="0px" y="0px" width="441.2px"
	 height="79.4px" viewBox="0 0 441.2 79.4" style="enable-background:new 0 0 441.2 79.4;" xml:space="preserve">
<style type="text/css">
	.st0{fill:#236AB1;}
</style>
<defs>
</defs>
<path class="st0" d="M273,47.4c6.2,0,11.4-4.8,11.4-12.1c0-7.1-5.3-12.1-11.4-12.1c-6.4,0-11.4,5-11.4,12.1
	C261.5,42.6,266.5,47.4,273,47.4 M273,15.1c11.9,0,21.3,8.5,21.3,20.4s-9.4,20.4-21.3,20.4s-21.3-8.2-21.3-20.4
	C251.7,23.6,261.1,15.1,273,15.1"/>
<path class="st0" d="M298.1,16h9.1v4.6c0,0.9-0.1,1.8-0.2,2.7h0.2c2.7-5.1,8-8.2,13.7-8c8.5,0,13.5,4.6,13.5,14.6v24.9h-9.6V32
	c0-4.8-1.1-7.8-6.2-7.8c-4.8-0.1-9.1,3.1-10.3,7.8c-0.5,1.7-0.7,3.5-0.7,5.3v17.9h-9.6L298.1,16z"/>
<path class="st0" d="M197,38c0,4.8-3.7,10.1-8.7,10.1c-3.9,0-6-2.5-6-5c0-5.5,8-6.2,12.8-6.2h1.6V38L197,38z M190.4,15.1h-13.5
	c0,3.8,2.7,7.1,6.4,7.8h6.2c4.4,0,7.3,1.8,7.3,6.9v0.5h-1.4c-6.4,0-22.9,0.9-22.9,13c0,7.8,6.2,12.1,13,12.1
	c8.7,0,11.9-6.9,11.7-6.9h0.2c-0.2,0.9-0.2,1.8-0.2,2.8v3.2h8.9v-24C206.6,20.6,200.6,15.1,190.4,15.1"/>
<path class="st0" d="M26.1,24.5H9.8V9.2h23.6V0.7H0v53.8h9.8V32.7h11.2C24.2,31.2,26.1,28,26.1,24.5"/>
<path class="st0" d="M238.2,25.6v29.3h9.6V16c-5.2-0.1-9.5,4-9.6,9.2C238.2,25.3,238.2,25.5,238.2,25.6"/>
<path class="st0" d="M231.6,46.5c-2.7,0-7.6-0.9-7.6-7.3V24h8.7v-7.6H224V3.7c-4.6,0.1-8.4,3.3-9.4,7.8v5h-5.3V24h5v16.2
	c0,13,10.8,14.6,16,14.6c1,0,2-0.1,3-0.2v-8.4C233.2,46.5,232.5,46.5,231.6,46.5"/>
<path class="st0" d="M87,47.4c-5.7,0-9.6-4.8-9.6-12.1c0-7.6,4.3-11.9,9.6-11.9c6.4,0,9.6,6,9.6,11.9C96.8,43.7,92,47.4,87,47.4
	 M96.6,9.6v10.5h-0.2c0,0-2.7-5-11.2-5c-10.3,0-17.6,8-17.6,20.4c0,11.9,6.6,20.4,17.2,20.4c8.9,0,12.1-6.6,12.1-6.6H97
	c-0.2,0.8-0.2,1.7-0.2,2.5v3.2h9.2V0C100.7,0.1,96.5,4.3,96.6,9.6C96.6,9.6,96.6,9.6,96.6,9.6"/>
<path class="st0" d="M243.2,3.7c2.7,0,4.8,2.1,4.8,4.8c0,2.7-2.1,4.8-4.8,4.8s-4.8-2.1-4.8-4.8c0,0,0,0,0,0
	C238.4,5.8,240.6,3.7,243.2,3.7"/>
<path class="st0" d="M47.1,22.4c4.3,0,7.6,2.7,7.6,8H37.8C38.9,25.4,42.3,22.4,47.1,22.4 M60.1,43.5c-3.1,2.4-6.8,3.7-10.8,3.9
	c-5.7,0-11-3.4-11.7-10.3h26.9c0,0,0.2-2.5,0.2-3.7c0-10.3-6-18.3-17.2-18.3C36.2,15.1,28,23.3,28,35.5c0,11,8,20.4,20.8,20.4
	c8.2,0,14.2-5.5,16-7.6L60.1,43.5z"/>
<path class="st0" d="M129.5,22.4c4.4,0,7.6,2.7,7.6,8h-16.9C121.1,25.4,124.5,22.4,129.5,22.4 M142.3,43.5
	c-3.1,2.4-6.8,3.7-10.8,3.9c-5.7,0-11-3.4-11.7-10.3h26.8c0,0,0.2-2.5,0.2-3.7c0-10.3-5.9-18.3-17.2-18.3
	c-11.4,0-19.7,8.2-19.7,20.4c0,11,8,20.4,20.8,20.4c8.2,0,14.2-5.5,16-7.6L142.3,43.5z"/>
<path class="st0" d="M151,16h9.1v6.2c0,0.9-0.1,1.8-0.2,2.7h0.2c1.8-5.5,6.4-9.8,12.4-9.8c0.6,0,1.2,0.1,1.8,0.2v9.4
	c-0.8-0.2-1.5-0.2-2.3-0.2c-4.9,0-9.2,3.3-10.5,8c-0.7,2.1-1,4.2-0.9,6.4v15.8H151V16z"/>
<path class="st0" d="M59,65.4h1.8v8.9c-0.1,1.8,1.3,3.3,3,3.4c0.1,0,0.3,0,0.4,0c1.7,0.2,3.3-1.1,3.4-2.8c0-0.2,0-0.4,0-0.6v-8.9
	h1.8v8.9c0,3-2.3,5-5.5,5s-5.5-2.1-5.5-5v-8.9H59z"/>
<path class="st0" d="M76.4,65.4h1.8l6.2,8.9c0.5,0.7,1.2,2.1,1.2,2.1c-0.1-0.7-0.2-1.4-0.2-2.1v-8.9h1.8v13.7h-1.8l-6.2-8.9
	c-0.5-0.7-1.1-2.1-1.1-2.1c0.1,0.7,0.2,1.4,0.2,2.1v8.9h-1.8V65.4z"/>
<rect x="94.1" y="65.4" class="st0" width="1.8" height="13.7"/>
<path class="st0" d="M100.9,65.4h2.1l3.4,9.8c0.2,0.7,0.5,1.8,0.5,1.8s0.2-1.1,0.5-1.8l3.4-9.8h2.1l-5,13.7H106L100.9,65.4z"/>
<polygon class="st0" points="118.1,65.5 126.1,65.5 126.1,67.1 119.9,67.1 119.9,71.4 124.9,71.4 124.9,73 119.9,73 119.9,77.3
	126.3,77.3 126.3,79 118.1,79 "/>
<path class="st0" d="M136.8,72.1c1.3,0.1,2.4-0.8,2.5-2c0-0.2,0-0.3,0-0.5c0.1-0.9-0.4-1.7-1.1-2.1c-0.6-0.2-1.2-0.3-1.8-0.2h-2.3v5
	h2.7L136.8,72.1z M132,65.4h4.1c0.8-0.1,1.7,0,2.5,0.2c1.5,0.6,2.4,2.1,2.3,3.7c0.1,1.7-0.9,3.2-2.5,3.7c0.2,0.2,0.3,0.4,0.4,0.7
	l3,5.3h-2.3l-2.5-5.3h-3v5.5h-1.8V65.4H132z"/>
<path class="st0" d="M147.6,76.2c0.9,0.9,2.2,1.3,3.4,1.4c1.4,0,2.3-0.7,2.3-2.1c0-3-6.6-2.3-6.6-6.6c0.1-2.3,2.1-4,4.3-3.9
	c0,0,0,0,0,0c1.4,0,2.8,0.4,3.9,1.4L154,68c-0.9-0.7-1.9-1.1-3-1.1c-1.3-0.1-2.4,0.8-2.5,2.1c0,2.7,6.6,2.1,6.6,6.6
	c0,2.1-1.6,3.9-4.4,3.9c-1.7,0-3.4-0.6-4.6-1.8L147.6,76.2z"/>
<rect x="161.1" y="65.4" class="st0" width="1.8" height="13.7"/>
<polygon class="st0" points="172.8,67.1 167.9,67.1 167.9,65.4 179.4,65.4 179.4,67.1 174.6,67.1 174.6,79.2 172.8,79.2 "/>
<path class="st0" d="M187.2,73.5l-4.6-8h2.3l2.5,4.6c0.4,0.6,0.7,1.2,0.9,1.8l0.9-1.8l2.5-4.6h2.3l-4.6,8v5.9h-1.8v-5.9H187.2z"/>
<path class="st0" d="M199.6,71.9c0-1.4,1.1-2.5,2.5-2.5c1.4,0,2.5,1.1,2.5,2.5c0,1.4-1.1,2.5-2.5,2.5
	C200.7,74.4,199.6,73.2,199.6,71.9"/>
<path class="st0" d="M216.7,67.2c0,0-0.2,1.1-0.5,2.1l-1.6,4.4h4.1l-1.6-4.4C217,68.6,216.8,67.9,216.7,67.2 M219.2,75.2h-5.3
	l-1.4,3.9h-2.1l5-13.7h2.1l5,13.7h-2L219.2,75.2z"/>
<path class="st0" d="M227.4,65.4h1.8v8.9c-0.1,1.8,1.3,3.3,3.1,3.4c0.1,0,0.3,0,0.4,0c1.7,0.2,3.3-1.1,3.4-2.8c0-0.2,0-0.4,0-0.6
	v-8.9h1.8v8.9c0,3-2.3,5-5.5,5s-5.5-2.1-5.5-5v-8.9H227.4z"/>
<path class="st0" d="M244.8,76.2c0.9,0.9,2.2,1.3,3.4,1.4c1.4,0,2.3-0.7,2.3-2.1c0-3-6.6-2.3-6.6-6.6c0.1-2.3,2.1-4,4.3-3.9
	c0,0,0,0,0,0c1.4,0,2.8,0.4,3.9,1.4l-0.9,1.6c-0.9-0.7-1.9-1.1-3-1.1c-1.3-0.1-2.4,0.8-2.5,2.1c0,2.7,6.6,2.1,6.6,6.6
	c0,2.1-1.6,3.9-4.4,3.9c-1.7,0-3.4-0.6-4.6-1.8L244.8,76.2z"/>
<polygon class="st0" points="261.3,67.1 256.5,67.1 256.5,65.4 267.9,65.4 267.9,67.1 263.1,67.1 263.1,79.2 261.3,79.2 "/>
<path class="st0" d="M277.6,72.1c1.3,0.1,2.4-0.8,2.5-2c0-0.2,0-0.3,0-0.5c0.1-0.9-0.4-1.7-1.1-2.1c-0.6-0.2-1.2-0.3-1.8-0.2h-2.3v5
	h2.7V72.1z M272.8,65.4h4.1c0.8-0.1,1.7,0,2.5,0.2c1.5,0.6,2.4,2.1,2.3,3.7c0.1,1.7-0.9,3.2-2.5,3.7c0.2,0.2,0.3,0.4,0.5,0.7l3,5.3
	h-2.3l-3-5.5h-3v5.5h-1.8V65.4H272.8z"/>
<path class="st0" d="M292.4,67.2c0,0-0.2,1.1-0.5,2.1l-1.6,4.4h4.1l-1.6-4.4C292.8,68.6,292.7,67.9,292.4,67.2 M295.2,75.2h-5.3
	l-1.3,3.9h-2.1l5-13.7h2.1l5,13.7h-2L295.2,75.2z"/>
<polygon class="st0" points="303.4,65.5 305.2,65.5 305.2,77.6 311.4,77.6 311.4,79.2 303.4,79.2 "/>
<rect x="316.7" y="65.4" class="st0" width="1.8" height="13.7"/>
<path class="st0" d="M329.5,67.2c0,0-0.2,1.1-0.5,2.1l-1.6,4.4h4.1l-1.6-4.4C329.9,68.6,329.7,67.9,329.5,67.2 M332.3,75.2H327
	l-1.4,3.9h-2l5-13.7h2.1l5,13.7h-2.1L332.3,75.2z"/>
<path class="st0" d="M298.1,16h9.1v4.6c0,0.9-0.1,1.8-0.2,2.7h0.2c2.7-5.1,8-8.2,13.7-8c8.5,0,13.5,4.6,13.5,14.6v24.9h-9.6V32
	c0-4.8-1.1-7.8-6.2-7.8c-4.8-0.1-9.1,3.1-10.3,7.8c-0.5,1.7-0.7,3.5-0.7,5.3v17.9h-9.6L298.1,16z"/>
<path class="st0" d="M365.6,39.6v4.1l3.2-2.5l3.2,2.5v-4.1l4.1-0.9l-3.2-2.5l1.8-3.7l-4.1,0.9l-1.8-3.7l-1.8,3.7l-4.1-0.9l1.8,3.7
	l-3.2,2.5L365.6,39.6z M384.4,48.2c-11.1-1.3-22.3,0-32.7,3.9v23.1c10.5-3.8,21.7-5.1,32.7-3.7V48.2z M351.5,30.4V7.8
	c12.1-4.6,31.1-5.7,38.9-3c6.9,2.3-6.2,2.5-6.2,4.6v17.2C373.1,25,361.8,26.3,351.5,30.4"/>
<path class="st0" d="M441.2,50.6c-12.1-2.5-24,2.3-36.2,5v23.3c12.1-3,24-8.2,36.2-6.2V50.6z M400.4,19.7l-3.9,0.9l-1.8-3.7
	l-1.8,3.7l-4.1-0.9l1.8,3.7l-3.2,2.5l4.1,0.9v4.1l3.2-2.5l3.2,2.5v-4.1l4.1-0.9l-3.2-2.5L400.4,19.7z M400.4,39.8l-4.1,0.9l-1.8-3.7
	l-1.8,3.7l-4.1-0.9l1.8,3.7l-3.2,2.5l4.1,0.9V51l3.2-2.5l3.2,2.5v-4.1l4.1-0.9l-3.2-2.5L400.4,39.8z M441.2,30.7V7.8
	c-12.1-3.2-24,0.9-36.2,2.8v24C416.9,32.2,429,27.7,441.2,30.7 M422.2,38.2l-0.7-3.9l-2.5,3l-3.4-1.8l0.7,3.9l-3.7,1.6l3.4,1.8
	l-0.9,3.7l3.7-1.6l2.3,3.2l0.9-3.7l3.9,0.2l-2.3-3.2l2.5-3L422.2,38.2z M398.6,64.8l3.2,2.5l-4.1,0.9v4.1l-3.2-2.5l-3.2,2.5v-4.1
	l-4.1-0.9l3.2-2.5l-1.8-3.7l4.1,0.9l1.8-3.7l1.8,3.7l4.1-0.9L398.6,64.8z"/>
</svg>
