<svg xmlns="http://www.w3.org/2000/svg" viewBox="0 0 708.66358 185.455"><title>Hachette</title><path d="M215.8462,185.1035l-2.8711-8.3789H196.5098l-2.8711,8.3789h-6.7383l15.2935-41.7197h5.0976l15.293,41.7197Zm-10.957-32.2862-6.5044,18.5167h12.8325Z" fill="#68737a"/><path d="M242.8008,185.455c-8.4961,0-14.9414-5.8007-14.9414-14.414V143.3838h6.3281V170.748c0,5.5664,3.3985,9.0235,8.6133,9.0235s8.67189-3.4571,8.67189-9.0235V143.3838h6.3286V171.041C257.80129,179.6543,251.29739,185.455,242.8008,185.455Z" fill="#68737a"/><path d="M279.11919,185.455c-6.2696,0-10.7813-1.4648-14.7662-5.5078l4.2193-4.16011c3.0469,3.04691,6.3867,3.98441,10.664,3.98441,5.4493,0,8.61381-2.3438,8.61381-6.3868a5.61367,5.61367,0,0,0-1.64061-4.3359c-1.0552-.9961-2.10939-1.4063-4.5708-1.7578l-4.9219-.7031a14.28189,14.28189,0,0,1-7.9101-3.3399,10.38033,10.38033,0,0,1-3.0469-7.9687c0-7.2657,5.2734-12.2461,13.94531-12.2461,5.50829,0,9.37549,1.4052,12.94969,4.7461l-4.043,3.9843c-2.5786-2.4619-5.5664-3.2236-9.0825-3.2236-4.9219,0-7.61719,2.8125-7.61719,6.5049a4.96378,4.96378,0,0,0,1.58209,3.86719,9.318,9.318,0,0,0,4.6875,1.93361l4.7461.7021c3.8676.5869,6.0356,1.5244,7.7934,3.1065,2.2852,1.9922,3.3984,4.9804,3.3984,8.5547C294.11959,180.8847,287.8501,185.455,279.11919,185.455Z" fill="#68737a"/><path d="M314.458,149.0673v36.0362h-6.3286V149.0673H296.645v-5.6835h29.2974v5.6835Z" fill="#68737a"/><path d="M354.88969,185.1035l-8.7891-17.5781h-7.9102v17.5781h-6.3281V143.3838h16.1719c7.9106,0,12.9497,5.0976,12.9497,12.1884a10.95655,10.95655,0,0,1-8.32079,11.0743l9.60989,18.457Zm-7.3243-36.0362h-9.375v13.0674h9.375c4.2188,0,7.0899-2.4033,7.0899-6.5049C354.65529,151.5293,351.78419,149.0673,347.56539,149.0673Z" fill="#68737a"/><path d="M394.19579,185.1035l-2.8721-8.3789h-16.4638l-2.8721,8.3789h-6.7383l15.294-41.7197h5.0967l15.29391,41.7197Zm-10.957-32.2862-6.5039,18.5167h12.831Z" fill="#68737a"/><path d="M406.853,185.1035V143.3838h6.3282v36.0361h19.3271v5.6836Z" fill="#68737a"/><path d="M438.106,185.1035V143.3838h6.32811v41.7197Z" fill="#68737a"/><path d="M479.29539,185.1035l-2.8711-8.3789h-16.4648l-2.8721,8.3789H450.3491l15.294-41.7197h5.09759l15.293,41.7197Zm-10.957-32.2862-6.5039,18.5167h12.832Z" fill="#68737a"/><path d="M242.0132,117.0805V67.4355c0-14.6572-7.6489-22.3672-20.6396-22.3672-12.9888,0-21.0523,7.9995-21.0523,22.3672v49.645H189.9087V0h10.4126V45.9624c5.8809-6.7476,13.6934-10.1226,22.9131-10.1226,18.207,0,29.19139,11.6255,29.19139,29.8384v51.4023Z" fill="#68737a"/><path d="M318.13819,63.3994c0-12.1465-6.0098-18.49031-21.36909-18.49031-10.70561,0-16.14361,2.63581-20.99711,9.55381l-7.2764-6.4942c7.0196-9.333,15.3677-12.1289,28.4312-12.1289,21.3608,0,31.624,9.4526,31.624,26.6182v54.6225h-10.332v-7.8139c-6.584,6.583-12.7134,8.7998-23.6973,8.7998-11.35739,0-18.0142-2.0977-23.1118-7.3345-3.7769-3.9531-5.95359-9.8853-5.95359-16.1001,0-14.3896,10.20069-23.19971,27.90479-23.19971h14.3056V79.6289h-12.9619c-12.7349,0-18.9556,5.164-18.9556,14.9306,0,9.76759,6.0157,14.51959,19.4092,14.51959,7.0362,0,13.4263-.61919,18.7407-5.76759,2.8399-2.7158,4.2393-7.4107,4.2393-14.4522Z" fill="#68737a"/><path d="M379.45849,118.0664c-20.8662,0-35.418-14.5039-35.418-41.13331,0-26.62839,14.5518-41.09329,35.418-41.09329,11.0117,0,18.0713,2.915,26.4629,12.0498l-7.1455,6.6919c-6.38479-7.1269-11.3691-9.5132-19.3174-9.5132-8.2842,0-15.208,3.3775-19.6973,9.7686-3.86809,5.4775-5.3085,11.647-5.3085,22.09619,0,10.45071,1.44041,16.65961,5.3085,22.13721,4.4893,6.3901,11.4131,9.7705,19.6973,9.7705,7.9483,0,12.93261-2.3882,19.3174-9.51471l7.1455,6.65141C397.52979,115.1123,390.47019,118.0664,379.45849,118.0664Z" fill="#68737a"/><path d="M467.523,117.0805V67.4355c0-14.6572-7.6494-22.3672-20.6397-22.3672-12.98919,0-21.0517,7.9995-21.0517,22.3672v49.645h-10.4121V0h10.4121V45.9624c5.8779-6.7476,13.6933-10.1226,22.913-10.1226,18.2081,0,29.19151,11.6255,29.19151,29.8384v51.4023Z" fill="#68737a"/><path d="M513.25249,71.4243v8.2119h44.3769V74.8413c0-24.0528-12.2422-39.0015-32.61029-39.0015-20.25591,0-32.61141,15.2481-32.61141,41.09329,0,27.74661,12.9912,41.13331,34.6241,41.13331,13.5117,0,21.0712-4.19,29.248-12.3672l-7.3203-6.16311c-6.5449,6.54251-12.1025,9.29791-21.4736,9.29791-12.7579,0-20.4317-6.5298-23.3936-18.3262a52.78707,52.78707,0,0,1-1.3809-13.6138c0-9.3442.38771-14.1421,2.7334-19.42091a21.46368,21.46368,0,0,1,39.1358,0c1.8779,4.61921,2.376,7.07911,2.6689,13.95121Z" fill="#68737a"/><path d="M592.72319,117.0805c-13.253,0-19.9893-9.3115-19.9893-21.3159V45.0219h-10.5342V37.1845h10.5342V11.8603H583.147V37.1845H598.2241v7.8374H583.147v50.669c0,7.706,3.584,12.3203,11.45311,12.3203h5.457v9.0693Z" fill="#68737a"/><path d="M633.78369,117.0805c-13.2539,0-19.9902-9.3115-19.9902-21.3159V45.0219h-10.5362V37.1845h10.5362V11.8603h10.4131V37.1845h15.0771v7.8374h-15.0771v50.669c0,7.706,3.5839,12.3203,11.4541,12.3203h5.456v9.0693Z" fill="#68737a"/><path d="M664.28758,71.4243v8.2119h44.376V74.8413c0-24.0528-12.2412-39.0015-32.6104-39.0015-20.2539,0-32.60929,15.2481-32.60929,41.09329,0,27.74661,12.99021,41.13331,34.623,41.13331,13.5137,0,21.0703-4.19,29.2481-12.3672l-7.3204-6.16311c-6.5439,6.54251-12.10148,9.29791-21.4746,9.29791-12.7558,0-20.4306-6.5298-23.3925-18.3262a52.82679,52.82679,0,0,1-1.3809-13.6138c0-9.3442.3887-14.1421,2.7344-19.42091a21.4636,21.4636,0,0,1,39.1357,0c1.877,4.61921,2.374,7.07911,2.669,13.95121Z" fill="#68737a"/><polygon points="147.914 185.103 147.914 37.189 91.467 37.189 91.467 47.904 137.2 47.904 137.2 174.39 102.181 174.39 102.181 128.657 45.732 128.657 45.732 139.371 91.467 139.371 91.467 185.103 147.914 185.103" fill="#68737a" fill-rule="evenodd"/><polygon points="56.446 82.922 102.181 82.922 102.181 93.636 45.732 93.636 45.732 47.904 10.713 47.904 10.713 174.39 56.446 174.39 56.446 185.103 0 185.103 0 37.189 56.446 37.189 56.446 82.922" fill="#68737a" fill-rule="evenodd"/></svg>