<svg version="1.1" xmlns="http://www.w3.org/2000/svg" xmlns:xlink="http://www.w3.org/1999/xlink" x="0px" y="0px" width="389px"
	 height="138.1px" viewBox="0 0 389 138.1" style="enable-background:new 0 0 389 138.1;" xml:space="preserve">
<style type="text/css">
	.st0{opacity:1;}
	.st1{fill:#121212;}
</style>
<defs>
</defs>
<title>OMG_</title>
<g id="Layer_3_1_">
	<g class="st0">
		<g>
			<g>
				<path class="st1" d="M68.7,0.7H44.9l-26,20.8h-1V0.7H0v54.6h17.9V33.7h0.7l28.9,21.6h24.7l-36-27.9L68.7,0.7z M75.4,55.3h16.8
					V0.7H75.4V55.3z M122.1,33.5H163V22.1h-40.8v-8.8h43.1V0.7h-59.9v54.6h60.9V43.6h-44.1L122.1,33.5z M269,33.5h40.8V22.1H269
					v-8.8h43.1V0.7h-59.9v54.6h60.9V43.6H269V33.5z M374.7,38c6.6-1.6,13.5-5.4,13.6-15v-4.8c0-9.8-4.8-17.5-17.7-17.5H323v54.6
					h16.8V39h16.9l13.2,16.3H389L374.7,38z M371.4,21c0,3.9-3.1,4.9-7.7,4.9h-25V13.5h25c5.3,0,7.7,0.9,7.7,5.7L371.4,21z
					 M211.3,21.3c-18,0.1-20-0.1-20-4.8c0-2.9,2.6-4.2,6.3-4.2h18.6c7.7,0,8.2,1.7,8.2,5.7h16.8v-1.7C241.2,6.6,239.4,0,220,0h-23.5
					c-21.2,0-22.1,7.6-22.1,17.5c0,13.5,2.9,16.5,28.1,16.5c21.6,0,23.6,0.3,23.6,5.1c0,4.2-3.6,5.1-7.2,5.1h-20.6
					c-4.8,0-7.2-1-7.3-6.8h-16.8v3.8c0,8.8,3.4,12.7,11.4,14.1h44.4c10.5-1.4,13.2-5.6,13.2-16.5C243.4,22.8,237.4,21.3,211.3,21.3"
					/>
				<rect y="58.1" class="st1" width="389" height="36.2"/>
				<path class="st1" d="M0,115h7c2.6,0,6.4,0.7,6.4,5.1c0,2.3-1.7,4.2-4,4.5l0,0c2.7,0.3,4.6,2.1,4.6,4.6c0,5-4.5,5.8-7,5.8H0
					L0,115z M4,123h1.6c1.7,0,3.8-0.4,3.8-2.4c0-2.3-2-2.5-3.9-2.5H4V123z M4,131.8h1.9c1.9,0,4.1-0.5,4.1-2.8c0-2.6-2.1-3-4.1-3H4
					V131.8z"/>
				<polygon class="st1" points="19.2,115 31,115 31,118.1 23.2,118.1 23.2,123 30.3,123 30.3,126.2 23.2,126.2 23.2,131.8
					31,131.8 31,134.9 19.2,134.9 				"/>
				<path class="st1" d="M57.2,118.6c-1.3-0.6-2.7-0.9-4.1-0.9c-1.4,0-3.1,0.6-3.1,2.8c0,3.5,8.8,2,8.8,8.7c0,4.4-3.5,6-7.5,6
					c-1.7,0-3.5-0.3-5.1-0.8l0.4-3.6c1.4,0.8,2.9,1.2,4.5,1.2c1.5,0,3.5-0.8,3.5-2.6c0-3.8-8.8-2.2-8.8-8.8c0-4.5,3.5-6.1,7-6.1
					c1.6,0,3.2,0.2,4.8,0.7L57.2,118.6z"/>
				<polygon class="st1" points="67.7,118.1 62,118.1 62,115 77.4,115 77.4,118.1 71.7,118.1 71.7,134.9 67.7,134.9 				"/>
				<path class="st1" d="M81.3,115h4.3c4.3,0,9.4-0.1,9.4,5.4c0,2.4-1.7,4.4-4.1,4.6v0.1c1.1,0.1,1.7,1.2,2.1,2.1l3.2,7.8h-4.5
					l-2.4-6.2c-0.6-1.5-1.1-2.1-2.8-2.1h-1.3v8.3h-4L81.3,115z M85.3,123.5h1.3c2,0,4.2-0.3,4.2-2.8s-2.2-2.6-4.2-2.6h-1.3V123.5z"
					/>
				<path class="st1" d="M109.7,114.6c6.3,0,9.8,4.2,9.8,10.3c0,6-3.5,10.4-9.8,10.4s-9.8-4.3-9.8-10.4S103.3,114.6,109.7,114.6
					 M109.7,132.1c4.1,0,5.6-3.6,5.6-7.2s-1.6-7.1-5.6-7.1s-5.6,3.6-5.6,7.1C104.1,128.4,105.6,132.1,109.7,132.1"/>
				<polygon class="st1" points="124.6,115 129.6,115 137.2,129.9 137.2,129.9 137.2,115 141.1,115 141.1,134.9 136.2,134.9
					128.5,120 128.5,120 128.5,134.9 124.6,134.9 				"/>
				<path class="st1" d="M162.8,118.8c-1.6-0.7-3.4-1.1-5.1-1.1c-4.7,0-7.2,3.1-7.2,7.2s2.5,7.1,6.8,7.1c0.9,0,1.8-0.1,2.6-0.3v-5.2
					h-4.2v-3.1h8.1v10.7c-2.1,0.6-4.3,0.9-6.5,1c-6.5,0-10.9-3.2-10.9-10s4.2-10.7,10.9-10.7c2,0,4,0.3,5.9,0.8L162.8,118.8z"/>
				<polygon class="st1" points="169.7,130.9 173.9,130.9 171.3,138.1 167.9,138.1 				"/>
				<path class="st1" d="M199.6,118.6c-1.3-0.6-2.7-0.9-4.1-0.9c-1.4,0-3.1,0.6-3.1,2.8c0,3.5,8.8,2,8.8,8.7c0,4.4-3.5,6-7.5,6
					c-1.7,0-3.5-0.3-5.1-0.8l0.4-3.6c1.4,0.8,2.9,1.2,4.5,1.2c1.5,0,3.5-0.8,3.5-2.6c0-3.8-8.8-2.2-8.8-8.8c0-4.5,3.5-6.1,7-6.1
					c1.6,0,3.2,0.2,4.8,0.7L199.6,118.6z"/>
				<polygon class="st1" points="210.1,118.1 204.4,118.1 204.4,115 219.9,115 219.9,118.1 214.1,118.1 214.1,134.9 210.1,134.9
									"/>
				<path class="st1" d="M227.5,115h4.5l7.8,20h-4.3l-1.7-4.6h-8.1L224,135h-4.1L227.5,115z M229.7,119L229.7,119l-2.9,8.2h5.8
					L229.7,119z"/>
				<polygon class="st1" points="246.7,127 239.4,115 244.1,115 248.8,123.3 253.6,115 257.8,115 250.7,127 250.7,134.9
					246.7,134.9 				"/>
				<path class="st1" d="M282.5,118.6c-1.3-0.6-2.7-0.9-4.1-0.9c-1.4,0-3.1,0.6-3.1,2.8c0,3.5,8.8,2,8.8,8.7c0,4.4-3.5,6-7.5,6
					c-1.7,0-3.5-0.3-5.1-0.8l0.4-3.6c1.4,0.8,2.9,1.2,4.5,1.2c1.5,0,3.5-0.8,3.5-2.6c0-3.8-8.8-2.2-8.8-8.8c0-4.5,3.5-6.1,7-6.1
					c1.6,0,3.2,0.2,4.8,0.7L282.5,118.6z"/>
				<polygon class="st1" points="293.1,118.1 287.4,118.1 287.4,115 302.8,115 302.8,118.1 297.1,118.1 297.1,134.9 293.1,134.9
									"/>
				<path class="st1" d="M306.7,115h4.3c4.3,0,9.4-0.1,9.4,5.4c0,2.4-1.7,4.4-4.1,4.6v0.1c1.1,0.1,1.7,1.2,2.1,2.1l3.2,7.8h-4.5
					l-2.4-6.2c-0.6-1.5-1.1-2.1-2.8-2.1h-1.3v8.3h-4L306.7,115z M310.7,123.5h1.3c2,0,4.2-0.3,4.2-2.8s-2.2-2.6-4.2-2.6h-1.3V123.5z
					"/>
				<path class="st1" d="M335,114.6c6.3,0,9.8,4.2,9.8,10.3c0,6-3.5,10.4-9.8,10.4s-9.8-4.3-9.8-10.4S328.7,114.6,335,114.6
					 M335,132.1c4.1,0,5.6-3.6,5.6-7.2s-1.6-7.1-5.6-7.1s-5.6,3.6-5.6,7.1C329.4,128.4,331,132.1,335,132.1"/>
				<polygon class="st1" points="350,115 354.9,115 362.5,129.9 362.6,129.9 362.6,115 366.4,115 366.4,134.9 361.5,134.9
					353.9,120 353.8,120 353.8,134.9 350,134.9 				"/>
				<path class="st1" d="M388.1,118.8c-1.6-0.7-3.4-1.1-5.1-1.1c-4.7,0-7.2,3.1-7.2,7.2s2.5,7.1,6.8,7.1c0.9,0,1.8-0.1,2.6-0.3v-5.2
					h-4.2v-3.1h8.1v10.7c-2.1,0.6-4.3,0.9-6.5,1c-6.5,0-11-3.2-11-10s4.2-10.7,11-10.7c2,0,4,0.3,5.9,0.8L388.1,118.8z"/>
			</g>
		</g>
	</g>
</g>
</svg>
