<svg id="Layer_1" data-name="Layer 1" xmlns="http://www.w3.org/2000/svg" viewBox="0 0 471.9 196.86"><defs><style>.cls-1{fill:#fff;}</style></defs><path class="cls-1" d="M112.63,78c0,30.34-15.25,54.33-38.22,54.33-22.45,0-38.56-23-38.56-54.67,0-30.34,15.25-54.33,38.22-54.33,22.45,0,38.56,23,38.56,54.67m25.2-.85C137.83,43.07,111.78,16,74.41,16,40,16,10.65,40.67,10.65,78.55c0,34.1,26.06,61.18,63.42,61.18,34.45,0,63.76-24.68,63.76-62.55m55.53,12.34c0,12-5.48,22.28-14.05,22.28-8.23,0-14.74-9.09-14.74-23,0-11.83,5.48-22.28,14.22-22.28,8.05,0,14.57,9.08,14.57,23m58.27-47.14c0-8.57-7.71-14.91-21.94-14.91-19.54,0-34.62,12.68-34.62,32.05,0,1.54.17,2.74.17,3.94a41.34,41.34,0,0,0-15.94-3.08c-15.42,0-33.93,9.42-33.93,29.82,0,9.43,5.31,18.17,14.57,23.31-13.72,1.89-21.6,9.26-21.6,20.74,0,11.65,9.26,20.05,26.57,18l25-3.08c12.51-1.54,16.63,2.91,16.63,9.43,0,11.31-10.63,20.39-27.6,20.39-13.54,0-18.51-4.8-18.51-11.65,0-1,.17-2.4.17-3.43,0-4.11-2.57-7-6.68-7.2-4.8,0-7.72,3.43-7.72,8.4,0,11.31,10.8,21.42,32.91,21.42,24.86,0,40.62-16.11,40.62-34.62,0-14.74-11.82-22.79-28.1-20.74L163,134.76c-9.42,1.2-12.34-1.88-12.34-6.68,0-5.66,6.17-10.11,27.6-10.11h.34c15.6,0,33.93-9.43,33.93-29.83a25.13,25.13,0,0,0-6.85-17.31c-1.54-3.08-2.06-6.17-2.06-10.62,0-15.09,10.28-23.65,20.91-23.65,4.46,0,5.83.68,5.83,3.77,0,.85-.17,1.54-.17,2.57a10.71,10.71,0,0,0,21.42-.52m53.13,90-8.39-.85a2.35,2.35,0,0,1-2.06-2.57V10.33L264.14,18v3.6l8.57,2.74a2.8,2.8,0,0,1,1.89,2.92V128.42c0,1.89-1.54,3.26-3.77,3.26l-7.65.15-8.12-.15c-2.23,0-3.77-1.37-3.77-3.26V60l-30.17,7.72v3.6l8.57,2.74A2.77,2.77,0,0,1,231.58,77v51.94a2.35,2.35,0,0,1-2.06,2.57l-7,.85v5.49h82.26Zm156.48-64.1V63H431.93v5.14l6.86,1.37c2.4.52,3.08,2.4,1.54,6.17l-15.77,38.05c-.68,1.54-1.54,1.54-2.05,0L407.77,75.63c-1.55-3.94-.69-5.65,1.71-6.17l6.86-1.37V63h-61v5.14l6.86,1.37c2.4.52,3.26,2.4,1.71,6.17l-15.25,40.11c-.69,1.54-1.54,1.54-2.06,0L331.16,75.63c-1.37-3.94-.69-5.65,1.71-6.17l6.86-1.37V63H301v5.31l3.77.86a6.57,6.57,0,0,1,5.14,4.29l26.23,64.44H348l26.23-64.44c1.37-3.43,2.91-4.81,5.65-4.81h1c2.23,0,3.94.86,5.31,4.12l27.42,66.84L406.22,157c-4.8,11.66-8.39,13.72-12.85,13.72-1.89,0-3.94-.35-6-.35-5.31,0-8.57,3.77-8.57,7.89,0,4.63,3.77,7.88,9.77,7.88,8.57,0,17-6.85,24-23.31l37.36-87.58c1.71-3.94,3.94-5.66,7.54-6.34Z"/></svg>