<svg id="Ebene_1" data-name="Ebene 1" xmlns="http://www.w3.org/2000/svg" xmlns:xlink="http://www.w3.org/1999/xlink" viewBox="0 0 258 57.46"><defs><style>.cls-1{fill:#4a4a49;}.cls-2{fill:#e51941;}.cls-3{fill:#878787;}.cls-4{fill:url(#Unbenannter_Verlauf);}.cls-5{fill:url(#Unbenannter_Verlauf_2);}</style><linearGradient id="Unbenannter_Verlauf" x1="-163.9" y1="314.27" x2="-162.89" y2="314.3" gradientTransform="matrix(40.89, 0, 0, -21.45, 6701.59, 6770.98)" gradientUnits="userSpaceOnUse"><stop offset="0" stop-color="#b80a2e"/><stop offset="0.04" stop-color="#bd092f"/><stop offset="0.11" stop-color="#cb0633"/><stop offset="0.19" stop-color="#e10139"/><stop offset="0.2" stop-color="#e4003a"/><stop offset="0.49" stop-color="#f0847f"/><stop offset="0.5" stop-color="#e7726f"/><stop offset="0.51" stop-color="#d85457"/><stop offset="0.52" stop-color="#cc3b46"/><stop offset="0.54" stop-color="#c3293a"/><stop offset="0.56" stop-color="#bd1a33"/><stop offset="0.58" stop-color="#b90e2f"/><stop offset="0.66" stop-color="#b80a2e"/><stop offset="0.71" stop-color="#c3293a"/><stop offset="0.8" stop-color="#e06363"/><stop offset="0.85" stop-color="#f0847f"/><stop offset="1" stop-color="#b80a2e"/></linearGradient><linearGradient id="Unbenannter_Verlauf_2" x1="-163.9" y1="313.94" x2="-162.89" y2="313.97" gradientTransform="matrix(40.88, 0, 0, -20.89, 6699.92, 6573.22)" gradientUnits="userSpaceOnUse"><stop offset="0" stop-color="#b80a2e"/><stop offset="0.05" stop-color="#bc092f"/><stop offset="0.1" stop-color="#c50832"/><stop offset="0.15" stop-color="#d40536"/><stop offset="0.2" stop-color="#e4003a"/><stop offset="0.29" stop-color="#e8384b"/><stop offset="0.49" stop-color="#f0847f"/><stop offset="0.5" stop-color="#e7726f"/><stop offset="0.51" stop-color="#d85457"/><stop offset="0.52" stop-color="#cc3b46"/><stop offset="0.54" stop-color="#c3293a"/><stop offset="0.56" stop-color="#bd1a33"/><stop offset="0.58" stop-color="#b90e2f"/><stop offset="0.66" stop-color="#b80a2e"/><stop offset="0.71" stop-color="#c3293a"/><stop offset="0.8" stop-color="#e06363"/><stop offset="0.85" stop-color="#f0847f"/><stop offset="1" stop-color="#b80a2e"/></linearGradient></defs><g id="Page-1"><g id="macmillan-publishers"><g id="Group"><path id="Path" class="cls-1" d="M90.77,13.35a8.79,8.79,0,0,0-4.36,1.14,7.21,7.21,0,0,0-3,3.15A5.52,5.52,0,0,0,81,14.49a8,8,0,0,0-4.21-1.14,8.45,8.45,0,0,0-4.71,1.23,8.92,8.92,0,0,0-2.87,3.2V14H66.37V37.38h3.08v-13a13.61,13.61,0,0,1,.4-3.35,7.72,7.72,0,0,1,1.21-2.64,5.69,5.69,0,0,1,2.1-1.75A6.94,6.94,0,0,1,76.22,16a5.37,5.37,0,0,1,2.23.43,3.79,3.79,0,0,1,1.45,1.19,5.13,5.13,0,0,1,.79,1.79,9.87,9.87,0,0,1,.24,2.19v15.8H84V24.19a16.44,16.44,0,0,1,.29-3.09,7.92,7.92,0,0,1,1-2.62,5.26,5.26,0,0,1,1.88-1.81,6,6,0,0,1,3-.68c2,0,3.37.49,4.15,1.45a6.78,6.78,0,0,1,1.18,4.28V37.38h3.08V21.58C98.55,16.13,95.94,13.35,90.77,13.35Z" transform="translate(-0.07 -0.88)"/><path id="Shape" class="cls-1" d="M123,34.75c-1,0-1.53-.51-1.53-1.57V20.91a8.21,8.21,0,0,0-.78-3.84,6.16,6.16,0,0,0-2-2.31,7.5,7.5,0,0,0-2.78-1.12,15.65,15.65,0,0,0-6.78.16,8.49,8.49,0,0,0-2.93,1.41,6.89,6.89,0,0,0-2,2.46,9.55,9.55,0,0,0-.86,3.54v.14h3.08v-.13a4.9,4.9,0,0,1,1.74-4A7,7,0,0,1,112.5,16a13.05,13.05,0,0,1,2.33.2,5.12,5.12,0,0,1,1.88.72,3.54,3.54,0,0,1,1.25,1.4,5.07,5.07,0,0,1,.46,2.29,3.76,3.76,0,0,1-.24,1.47,2,2,0,0,1-.65.86,2.68,2.68,0,0,1-1.07.45c-.45.09-1,.16-1.55.22l-4.5.56a16.55,16.55,0,0,0-4,1,6.9,6.9,0,0,0-2.89,2.12,6.14,6.14,0,0,0-1.1,3.87,7.14,7.14,0,0,0,.62,3.08,5.91,5.91,0,0,0,1.69,2.15,7,7,0,0,0,2.51,1.24,12,12,0,0,0,3,.38,12.25,12.25,0,0,0,3-.32,8.28,8.28,0,0,0,2.23-.91,7.46,7.46,0,0,0,1.77-1.48c.48-.54,1-1.15,1.41-1.77a11.18,11.18,0,0,0,.11,1.35,3.17,3.17,0,0,0,.49,1.33,2.44,2.44,0,0,0,1.06.88,4.46,4.46,0,0,0,1.78.3,8.37,8.37,0,0,0,1,0c.26,0,.55-.07.89-.13l.11,0V34.49l-.18.08A1.72,1.72,0,0,1,123,34.75Zm-4.6-9.83v3.39a6.7,6.7,0,0,1-.64,3,6.79,6.79,0,0,1-1.71,2.24A7.41,7.41,0,0,1,113.56,35a7.92,7.92,0,0,1-4.93.18,5,5,0,0,1-1.62-.9,4.52,4.52,0,0,1-1.11-1.39,4,4,0,0,1-.41-1.84,3.24,3.24,0,0,1,1-2.52A6.61,6.61,0,0,1,109,27.1a19.77,19.77,0,0,1,3.45-.73c1.27-.16,2.5-.35,3.7-.56a12,12,0,0,0,1.36-.32A2.13,2.13,0,0,0,118.44,24.92Z" transform="translate(-0.07 -0.88)"/><path id="Path-2" data-name="Path" class="cls-1" d="M143.37,29a7.57,7.57,0,0,1-.7,2.6,7.29,7.29,0,0,1-1.45,2.05,6.78,6.78,0,0,1-2,1.34,6.17,6.17,0,0,1-2.41.48,7.07,7.07,0,0,1-3.47-.83,7.86,7.86,0,0,1-2.49-2.2,9.93,9.93,0,0,1-1.5-3.12,12.75,12.75,0,0,1,0-7.14,10,10,0,0,1,1.5-3.11,7.64,7.64,0,0,1,2.49-2.2,7,7,0,0,1,3.47-.84,6,6,0,0,1,4.3,1.44,7.66,7.66,0,0,1,2.11,4l0,.1h3.08l0-.15a8.55,8.55,0,0,0-3.12-6,10.18,10.18,0,0,0-6.37-2,10.82,10.82,0,0,0-4.73,1A10.36,10.36,0,0,0,128.6,17a11.65,11.65,0,0,0-2.13,3.91,16.09,16.09,0,0,0,0,9.52,11.56,11.56,0,0,0,2.13,3.91A10,10,0,0,0,132.07,37a11,11,0,0,0,4.73,1,9.2,9.2,0,0,0,6.54-2.39A10.85,10.85,0,0,0,146.47,29l0-.15H143.4Z" transform="translate(-0.07 -0.88)"/><path id="Path-3" data-name="Path" class="cls-1" d="M174.53,13.35a8.79,8.79,0,0,0-4.36,1.14,7.18,7.18,0,0,0-2.95,3.16,5.52,5.52,0,0,0-2.44-3.15,8,8,0,0,0-4.21-1.14,8.43,8.43,0,0,0-4.71,1.23,8.9,8.9,0,0,0-2.86,3.2V14h-2.86V37.39h3.08v-13a13.09,13.09,0,0,1,.4-3.35,7.72,7.72,0,0,1,1.21-2.64,5.69,5.69,0,0,1,2.1-1.75A6.94,6.94,0,0,1,160,16a5.41,5.41,0,0,1,2.23.43,3.79,3.79,0,0,1,1.45,1.19,5,5,0,0,1,.78,1.79,9.8,9.8,0,0,1,.24,2.19V37.4h3.08V24.2a16.44,16.44,0,0,1,.29-3.09,7.76,7.76,0,0,1,1-2.62,5.26,5.26,0,0,1,1.88-1.81,6,6,0,0,1,3-.68c2,0,3.38.49,4.15,1.45a6.78,6.78,0,0,1,1.18,4.28V37.39h3.08V21.59C182.31,16.13,179.7,13.35,174.53,13.35Z" transform="translate(-0.07 -0.88)"/><rect id="Rectangle" class="cls-1" x="188.3" y="13.15" width="3.08" height="23.36"/><rect id="Rectangle-2" data-name="Rectangle" class="cls-1" x="197.47" y="4.28" width="3.08" height="32.22"/><rect id="Rectangle-3" data-name="Rectangle" class="cls-1" x="206.65" y="4.28" width="3.08" height="32.22"/><path id="Shape-2" data-name="Shape" class="cls-1" d="M234.34,34.75c-1,0-1.53-.51-1.53-1.57V20.91a8.35,8.35,0,0,0-.77-3.84,6.17,6.17,0,0,0-2-2.31,7.6,7.6,0,0,0-2.78-1.12,15.62,15.62,0,0,0-6.77.16,8.4,8.4,0,0,0-2.93,1.41,6.77,6.77,0,0,0-2,2.46,9.35,9.35,0,0,0-.87,3.54v.14h3.09v-.13a4.9,4.9,0,0,1,1.74-4A7,7,0,0,1,223.82,16a13.05,13.05,0,0,1,2.33.2,5.05,5.05,0,0,1,1.88.72,3.54,3.54,0,0,1,1.25,1.4,5.07,5.07,0,0,1,.46,2.29,3.79,3.79,0,0,1-.24,1.47,2,2,0,0,1-.65.86,2.75,2.75,0,0,1-1.07.45c-.44.09-1,.16-1.56.22l-4.5.56a17.26,17.26,0,0,0-4,1,7,7,0,0,0-2.9,2.12,6.13,6.13,0,0,0-1.1,3.86,7.26,7.26,0,0,0,.61,3.08,5.83,5.83,0,0,0,1.7,2.15,7,7,0,0,0,2.51,1.24,12,12,0,0,0,3,.38,12.39,12.39,0,0,0,3-.32,8.28,8.28,0,0,0,2.23-.91,7.54,7.54,0,0,0,1.77-1.48A19.91,19.91,0,0,0,230,33.5a10.69,10.69,0,0,0,.11,1.35,3.21,3.21,0,0,0,.49,1.32,2.49,2.49,0,0,0,1.06.88,4.42,4.42,0,0,0,1.78.3,8.7,8.7,0,0,0,1-.05c.26,0,.55-.07.88-.13l.11,0V34.47l-.18.08A1.63,1.63,0,0,1,234.34,34.75Zm-4.61-9.83v3.39a6.63,6.63,0,0,1-2.35,5.23A7.6,7.6,0,0,1,224.85,35a7.92,7.92,0,0,1-4.93.18,4.62,4.62,0,0,1-1.61-.9,4.52,4.52,0,0,1-1.11-1.39,4.08,4.08,0,0,1-.41-1.84,3.21,3.21,0,0,1,1-2.52,6.7,6.7,0,0,1,2.52-1.38,20.17,20.17,0,0,1,3.45-.73c1.27-.16,2.51-.35,3.7-.56a13,13,0,0,0,1.36-.32A2.15,2.15,0,0,0,229.73,24.92Z" transform="translate(-0.07 -0.88)"/><path id="Path-4" data-name="Path" class="cls-1" d="M257.65,18.65a6.76,6.76,0,0,0-1.41-2.85A6.58,6.58,0,0,0,253.57,14a11.59,11.59,0,0,0-4.09-.64,8.59,8.59,0,0,0-4.59,1.3,6.94,6.94,0,0,0-2.76,3V14h-3.08V37.39h3.08V23.79a10.35,10.35,0,0,1,.55-3.12,7.63,7.63,0,0,1,1.41-2.47,6.49,6.49,0,0,1,2.2-1.62,7.16,7.16,0,0,1,3-.59,6.71,6.71,0,0,1,2.79.52A4.41,4.41,0,0,1,253.81,18a5.77,5.77,0,0,1,.92,2.17,13.68,13.68,0,0,1,.26,2.73V37.39h3.08v-15A17.06,17.06,0,0,0,257.65,18.65Z" transform="translate(-0.07 -0.88)"/><path id="Path-5" data-name="Path" class="cls-1" d="M190,5.16a1.94,1.94,0,1,0,1.94,1.94A1.94,1.94,0,0,0,190,5.16Z" transform="translate(-0.07 -0.88)"/></g><g id="Group-2" data-name="Group"><path id="Shape-3" data-name="Shape" class="cls-2" d="M70.77,46.38H66.38V58h1.54V54h2.64c2.29,0,4.6-1.2,4.6-3.87C75.16,47.85,73.44,46.38,70.77,46.38Zm-.16,6.19H67.92V47.82h2.75c1.86,0,2.93.86,2.93,2.36S72.43,52.57,70.61,52.57Z" transform="translate(-0.07 -0.88)"/><path id="Path-6" data-name="Path" class="cls-2" d="M82.76,54.3a2.34,2.34,0,0,1-2.39,2.5,2.12,2.12,0,0,1-2.2-2.41v-5H76.66V54.7A3.21,3.21,0,0,0,80,58.2a3.25,3.25,0,0,0,2.75-1.35V58h1.49V49.36H82.76V54.3Z" transform="translate(-0.07 -0.88)"/><path id="Shape-4" data-name="Shape" class="cls-2" d="M91.73,49.17a3.74,3.74,0,0,0-3.09,1.6V45.88H87.13V58h1.51V56.66a3.82,3.82,0,0,0,3.09,1.53,4.24,4.24,0,0,0,4.15-4.52A4.24,4.24,0,0,0,91.73,49.17Zm-.22,1.39a2.9,2.9,0,0,1,2.83,3.14,2.86,2.86,0,0,1-2.83,3.12,3.14,3.14,0,0,1,0-6.26Z" transform="translate(-0.07 -0.88)"/><rect id="Rectangle-4" data-name="Rectangle" class="cls-2" x="97.97" y="45.01" width="1.51" height="12.13"/><rect id="Rectangle-5" data-name="Rectangle" class="cls-2" x="102.49" y="45.25" width="1.69" height="1.64"/><rect id="Rectangle-6" data-name="Rectangle" class="cls-2" x="102.58" y="48.47" width="1.51" height="8.67"/><path id="Path-7" data-name="Path" class="cls-2" d="M110.33,53c-1-.32-2-.62-2-1.34s.6-1.09,1.5-1.09a4.59,4.59,0,0,1,2.42.79l.11.07.7-1.16-.1-.07a5.9,5.9,0,0,0-3.1-.95c-1.76,0-3,1-3,2.57s1.66,2.15,2.87,2.5,2,.62,2,1.39-.65,1.2-1.61,1.2a4.73,4.73,0,0,1-2.83-1l-.11-.08-.78,1.1.09.08A5.91,5.91,0,0,0,110,58.18c1.87,0,3.12-1.07,3.12-2.68S111.48,53.3,110.33,53Z" transform="translate(-0.07 -0.88)"/><path id="Path-8" data-name="Path" class="cls-2" d="M119.49,49.17a3.27,3.27,0,0,0-2.75,1.35V45.89h-1.51V58h1.51V53.08a2.34,2.34,0,0,1,2.39-2.5,2.12,2.12,0,0,1,2.2,2.41v5h1.51V52.68A3.22,3.22,0,0,0,119.49,49.17Z" transform="translate(-0.07 -0.88)"/><path id="Shape-5" data-name="Shape" class="cls-2" d="M128.89,49.17a4.25,4.25,0,0,0-4.16,4.52,4.33,4.33,0,0,0,4.32,4.52,4.44,4.44,0,0,0,3.56-1.62l.09-.1-1-.87-.09.09a3.37,3.37,0,0,1-2.55,1.15,2.79,2.79,0,0,1-2.81-2.59h6.64v-.12a3,3,0,0,0,0-.4C132.94,51,131.31,49.17,128.89,49.17Zm0,1.32a2.61,2.61,0,0,1,2.54,2.6h-5.12A2.73,2.73,0,0,1,128.86,50.49Z" transform="translate(-0.07 -0.88)"/><path id="Path-9" data-name="Path" class="cls-2" d="M136.71,51.14V49.35H135.2V58h1.51V54.54c0-2.26,1.26-3.73,3.3-3.73h.13v-1.6h-.27A3.67,3.67,0,0,0,136.71,51.14Z" transform="translate(-0.07 -0.88)"/><path id="Path-10" data-name="Path" class="cls-2" d="M145,53c-1-.32-2-.62-2-1.34s.62-1.09,1.5-1.09a4.68,4.68,0,0,1,2.42.79l.11.07.7-1.16-.11-.07a5.9,5.9,0,0,0-3.09-.95c-1.76,0-3,1-3,2.57s1.66,2.15,2.88,2.5,2,.62,2,1.39-.65,1.2-1.61,1.2a4.73,4.73,0,0,1-2.83-1l-.1-.08-.78,1.1.09.08a5.91,5.91,0,0,0,3.56,1.26c1.87,0,3.12-1.07,3.12-2.68S146.14,53.3,145,53Z" transform="translate(-0.07 -0.88)"/></g><rect id="Rectangle-7" data-name="Rectangle" class="cls-3" x="52.69" width="1.5" height="57.46"/><g id="Group-3" data-name="Group"><path id="Path-11" data-name="Path" class="cls-4" d="M41,30.24c0-10.3-7.37-11.31-13-6.73-3.56,2.91-8.12,8.2-8.12,3.18C19.87,14.77,8,20,.07,30.26v11C8,31.09,19.87,25.82,19.87,37.74c0,5,4.56-.26,8.12-3.17,5.08-4.16,11.63-3.71,12.79,4.11H41V30.24Z" transform="translate(-0.07 -0.88)"/><path id="Path-12" data-name="Path" class="cls-5" d="M41,15.77C41,5.47,33.59,4.46,28,9c-3.56,2.91-8.12,8.21-8.12,3.17C19.87.29,8,5.56.08,15.78V26.26c8.05-9.62,19.79-14.91,19.79-3,0,5,4.56-.26,8.12-3.17,5.08-4.16,11.63-3.71,12.79,4.11H41V15.77Z" transform="translate(-0.07 -0.88)"/></g></g></g></svg>