<?xml version="1.0" encoding="UTF-8"?><svg id="Layer_2" xmlns="http://www.w3.org/2000/svg" viewBox="0 0 271 88"><defs><style>.cls-1{fill:#000;}.cls-1,.cls-2{stroke-width:0px;}.cls-2{fill:#0eeb93;}</style></defs><g id="Layer_1-2"><g id="main_logo_reversed"><path class="cls-1" d="M121,11h5.3l9.2,12.6,9.2-12.6h5.2v28.3h-5.8v-18.4l-8.7,11.9-8.7-11.9v18.4h-5.7V11Z"/><path class="cls-1" d="M153.1,39.3l12.2-28.3h5.1l12.2,28.3h-6l-2.8-6.5h-12.1l-2.7,6.5h-5.9ZM167.9,18.6l-3.9,9.2h7.8l-3.9-9.2Z"/><path class="cls-1" d="M211.1,39.3h-5l-14.5-18.5v18.5h-5.8V11h5l14.5,18.5V11h5.8v28.3Z"/><path class="cls-1" d="M222.6,39.3v-22.8h-7.5v-5.5h21v5.5h-7.6v22.8h-5.9Z"/><path class="cls-1" d="M240,39.3V11h5.8v28.3h-5.8Z"/><path class="cls-1" d="M261.2,39.7c-2.8.1-5.6-.8-7.8-2.7-1.9-1.6-3-4-3.1-6.5h5.8c.2,1.2.8,2.2,1.7,2.9,1,.7,2.2,1,3.4,1,1,0,2-.2,2.9-.8.7-.5,1.1-1.2,1.1-2.1,0-1.6-1.3-2.7-3.8-3.4l-3-.9c-2.1-.5-3.9-1.6-5.4-3.1-1.3-1.4-2-3.3-2-5.3-.1-2.3.8-4.6,2.6-6.1,1.9-1.6,4.4-2.4,6.9-2.2,2.6-.1,5.1.8,7,2.6,1.7,1.5,2.7,3.7,2.9,6h-5.7c-.2-1-.8-1.9-1.6-2.5-1.6-1-3.6-1.1-5.2-.1-.7.4-1,1.2-1,1.9-.1.8.3,1.5.8,2.1.8.6,1.7,1.1,2.7,1.3l3.3.9c4.9,1.3,7.3,4.2,7.3,8.6,0,2.3-1,4.5-2.7,6-2.1,1.7-4.6,2.5-7.1,2.4Z"/><path class="cls-1" d="M121,77v-28.2h17.2v5.5h-11.4v5.9h9v5.5h-9v11.3h-5.8Z"/><path class="cls-1" d="M153.8,77.4c-3.1.1-6.1-1-8.3-3.2-2.2-2.3-3.3-5.3-3.2-8.4v-17.2h5.8v17.2c-.1,1.6.5,3.2,1.6,4.4,2.4,2.1,6,2.1,8.4,0,1.1-1.2,1.6-2.8,1.6-4.4v-17.2h5.8v17.1c.4,6.1-4.3,11.3-10.3,11.6-.6.1-1,.1-1.4.1Z"/><path class="cls-1" d="M196.5,76.9h-5l-14.5-18.4v18.4h-5.8v-28.3h5l14.5,18.4v-18.4h5.8v28.3Z"/><path class="cls-1" d="M202.8,76.9v-28.3h9.3c3.9-.1,7.6,1.4,10.3,4.1,5.5,5.4,5.7,14.3.3,19.8-.1.1-.2.2-.3.3-2.7,2.7-6.5,4.2-10.3,4.1h-9.3ZM208.6,71.6h3.5c2.4.1,4.7-.8,6.3-2.6,3.2-3.6,3.2-9,0-12.6-1.6-1.7-3.9-2.6-6.3-2.5h-3.5v17.7Z"/><path class="cls-1" d="M240.4,77.4c-2.9.1-5.6-.9-7.8-2.8-1.9-1.6-3-4-3.1-6.5h5.8c.2,1.2.8,2.2,1.7,2.9,1,.7,2.2,1,3.4,1,1,0,2-.2,2.9-.8.7-.5,1.1-1.2,1.1-2.1,0-1.6-1.3-2.7-3.8-3.4l-3-.9c-2.1-.5-3.9-1.6-5.4-3.1-1.3-1.4-2-3.3-2-5.2-.1-2.3.8-4.6,2.6-6.1,1.9-1.6,4.4-2.4,6.9-2.2,2.6-.1,5.2.8,7.1,2.6,1.7,1.5,2.7,3.7,2.9,6h-5.7c-.2-1-.8-1.9-1.6-2.5-.8-.5-1.7-.8-2.6-.8s-1.8.2-2.6.7c-.7.4-1.1,1.2-1.1,1.9-.1.8.3,1.5.8,2.1.8.6,1.7,1.1,2.7,1.3l3.3.9c4.9,1.3,7.3,4.2,7.3,8.6,0,2.3-1,4.5-2.7,6-1.9,1.7-4.5,2.5-7.1,2.4Z"/><polygon class="cls-2" points="0 88 88 0 88 88 0 88"/><polygon class="cls-2" points="0 8 36 44 0 80 0 8"/></g></g></svg>