<svg width="51px" height="69px" viewBox="0 0 51 69" version="1.1" xmlns="http://www.w3.org/2000/svg" xmlns:xlink="http://www.w3.org/1999/xlink" class="icon">
    <g id="Page-1" stroke="none" stroke-width="1" fill="none" fill-rule="evenodd">
        <path d="M8.41121,9.72431 C7.20365,11.8274 5.81373,13.4826 3.83481,18.2729 C3.3296,19.4949 2.95008,20.4442 2.95008,20.4442 C2.53606,21.4787 2.56317,22.2138 3.01416,22.0872 C3.09056,22.0653 3.15463,22.0458 3.22363,22.0264 L5.30852,21.3399 C5.30852,21.3399 5.3652,21.3205 5.39478,21.3789 C5.40463,21.3984 5.40217,21.413 5.39724,21.4276 C5.39231,21.447 5.37506,21.4592 5.37506,21.4592 L4.36712,22.1481 C4.36712,22.1481 3.86192,22.4231 3.49965,23.6207 C3.406,23.9274 3.31235,24.2317 3.22363,24.5335 C-1.38481,39.8806 -0.615914,46.5112 2.79729,45.9659 L2.83919,45.9586 C2.88108,45.9513 2.91805,45.9805 2.91805,46.0292 L2.91805,46.0633 C2.35616,67.8195 3.96542,79.8197 15.5728,55.6927 C16.009,54.8042 16.3934,54.001 17.0416,53.3413 C17.3496,53.0468 17.6035,52.9324 17.6035,52.9324 C17.8622,52.8082 18.3058,52.7182 19.2398,52.7182 L27.3724,52.7182 C27.6607,52.7182 27.9269,52.5673 28.0673,52.3092 C28.2078,52.0585 28.2004,51.7543 28.0476,51.5108 L26.3201,48.7773 L26.3127,48.7725 C28.0254,47.4118 29.79,45.6787 31.4189,43.6048 C33.0405,41.5285 34.5389,39.1577 35.744,36.6043 C36.3058,35.4189 36.8037,34.197 37.2251,32.9482 L37.2744,32.7949 C37.3877,32.442 37.1684,32.2472 36.7913,32.3641 L36.7051,32.3787 C36.5079,32.4127 36.3132,32.42 36.1087,32.4127 C35.3866,32.3714 34.7459,32.072 34.2407,31.6144 C34.1791,31.5657 34.115,31.5024 34.0583,31.4391 C34.0016,31.3831 33.9449,31.3271 33.8981,31.2663 C33.7133,31.0521 33.5383,30.8014 33.3781,30.5385 L33.0824,30.0736 C32.8089,29.5259 32.178,28.2772 31.6851,27.2865 C31.6851,27.2865 31.5446,27.009 30.9753,26.1278 C28.989,23.0268 26.6059,21.1525 24.0356,20.0645 C22.1823,19.2807 20.2354,18.8985 18.2688,18.7671 C16.906,18.677 15.5383,18.7038 14.1829,18.8011 L13.7959,18.8304 C13.3745,18.8644 13.207,18.4141 13.409,17.8324 L13.6136,17.3236 C13.9857,16.4011 14.3948,15.5467 14.8285,14.7581 C17.4186,9.99937 21.0241,7.52873 24.7872,7.17579 C26.5148,7.01513 28.2719,7.29993 29.9846,8.01556 C30.8915,8.39041 31.7837,8.88941 32.6462,9.50767 C32.8507,9.65129 33.0479,9.79977 33.245,9.95799 L33.6246,10.2574 C34.0312,10.6176 33.977,11.0533 33.4989,11.214 L32.6018,11.3381 C31.6333,11.4696 30.4036,11.5888 29.2502,11.6789 C29.1936,10.4935 28.2472,9.52228 27.0249,9.45169 C25.7188,9.38353 24.6024,10.3742 24.5334,11.6643 C24.4619,12.9544 25.4674,14.0522 26.7735,14.1203 C27.4315,14.1544 28.0452,13.9183 28.5011,13.5094 C29.9427,13.8696 35.0268,15.1378 36.6977,15.6319 C39.6698,16.5131 41.8754,16.9853 44.2683,16.8319 C45.4488,16.7638 46.6785,16.535 48.0685,16.1309 C49.0715,15.8388 49.5373,15.6587 49.5373,15.6587 C50.5477,15.2765 50.9641,14.7435 50.4565,14.466 L49.4732,13.9938 C46.5997,12.6282 41.4515,10.401 41.4515,10.401 C40.4608,9.97016 39.0709,9.3738 38.8959,9.10361 C34.2875,1.73553 27.9392,0.187427 24.8956,0.0219071 C24.6073,0.00730236 24.314,0 24.0183,0 C20.3389,0 16.3146,1.21219 12.0019,4.0163 L11.817,4.138 C10.7549,4.93883 9.88739,5.56927 9.88739,5.56927 C9.00021,6.25325 8.2116,7.0127 9.10125,7.02 L9.32058,7.02 L11.5164,6.95672 C11.5164,6.95672 11.5755,6.95672 11.5878,7.01757 C11.5928,7.03704 11.5878,7.05408 11.5755,7.06382 C11.5632,7.08086 11.5435,7.08816 11.5435,7.08816 L10.3753,7.46058 C10.3753,7.46058 9.811,7.57985 9.11603,8.62409 C8.93613,8.89184 8.7587,9.15716 8.58372,9.41761 L8.40875,9.72188 L8.41121,9.72431 Z" id="Path" fill="#000000" fill-rule="nonzero"></path>
    </g>
</svg>