<svg class="OMG-logo-blk__svg" xmlns="http://www.w3.org/2000/svg" viewBox="0 0 24 66.34">
  <title>OMG_Black_RGB</title>
  <path class="OMG-logo__path" d="M20.72,21.21H3.29A2.33,2.33,0,0,1,.89,19L0,2.28A2,2,0,0,1,.51.67,2.39,2.39,0,0,1,2.15,0H21.86a2.07,2.07,0,0,1,1.55.58A2.37,2.37,0,0,1,24,2.25L23.12,19a2.29,2.29,0,0,1-2.4,2.26ZM2.15,1.67a1,1,0,0,0-.44.14.71.71,0,0,0-.06.38l.91,16.68c0,.7.52.7.73.7H20.72a.69.69,0,0,0,.76-.7l.91-16.68a.84.84,0,0,0-.15-.46s-.12-.06-.38-.06ZM19.58,43.79H4.43A2.33,2.33,0,0,1,2,41.53l-.88-16.7a2,2,0,0,1,.5-1.58,2.48,2.48,0,0,1,1.64-.67H20.72a2,2,0,0,1,1.55.59,2.38,2.38,0,0,1,.59,1.66L22,41.53a2.29,2.29,0,0,1-2.37,2.26ZM3.29,24.22a1,1,0,0,0-.44.15s-.06.14-.06.38L3.7,41.42c0,.7.52.7.73.7H19.58a.69.69,0,0,0,.76-.7l.91-16.67a.87.87,0,0,0-.15-.47.71.71,0,0,0-.38-.06ZM12,66.34A10.62,10.62,0,1,1,22.65,55.72,10.63,10.63,0,0,1,12,66.34Zm0-19.57a8.95,8.95,0,1,0,9,8.95A9,9,0,0,0,12,46.77Zm0,14.07A5.12,5.12,0,1,1,12,50.6a5,5,0,0,1,3.83,1.73.85.85,0,0,1,0,1.17.86.86,0,0,1-1.17-.06A3.52,3.52,0,0,0,12,52.27a3.45,3.45,0,1,0,0,6.9,3.41,3.41,0,0,0,2.46-1,3.45,3.45,0,0,0,.91-1.61H13.35a.82.82,0,0,1-.82-.82.84.84,0,0,1,.82-.82h3a.82.82,0,0,1,.82.82,5.07,5.07,0,0,1-1.49,3.63A5.21,5.21,0,0,1,12,60.84Zm0-45.13a5.12,5.12,0,1,1,5.12-5.12A5.12,5.12,0,0,1,12,15.71Zm0-8.54a3.45,3.45,0,1,0,3.45,3.45A3.46,3.46,0,0,0,12,7.17Zm0,31a.86.86,0,0,1-.76-.47L8.55,32.06v5.32a.82.82,0,0,1-.82.82.84.84,0,0,1-.82-.82V28.81A.82.82,0,0,1,7.73,28h.18a.86.86,0,0,1,.76.47l3.33,7,3.31-7a.84.84,0,0,1,.76-.47h.23a.82.82,0,0,1,.82.82v8.57a.82.82,0,0,1-.82.82.84.84,0,0,1-.82-.82V32l-2.69,5.7a.88.88,0,0,1-.76.47Z" fill="#000"/></svg>
