<svg xmlns="http://www.w3.org/2000/svg" viewBox="0 0 269.50291 60.06348"><path d="M12.77637,20.61133H6.47363V32.93945H.0791V.18359H12.77637c6.76269,0,10.81152,4.64649,10.81152,10.21289C23.58789,15.96484,19.53906,20.61133,12.77637,20.61133ZM12.4541,5.88867H6.47363v8.97071H12.4541c2.89844,0,4.73926-1.793,4.73926-4.4629C17.19336,7.72852,15.35254,5.88867,12.4541,5.88867Z" fill="#00a0dd"/><path d="M42.76758,30.27148a9.93369,9.93369,0,0,1-7.45313,2.94532,9.81992,9.81992,0,0,1-7.40625-2.94532c-2.16211-2.2539-2.71484-4.96875-2.71484-9.33984,0-4.32422.55273-7.03711,2.71484-9.293a9.82654,9.82654,0,0,1,7.40625-2.94336,9.94043,9.94043,0,0,1,7.45313,2.94336c2.16211,2.25586,2.71484,4.96875,2.71484,9.293C45.48242,25.30273,44.92969,28.01758,42.76758,30.27148ZM38.12109,15.13672a3.77734,3.77734,0,0,0-2.80664-1.0586,3.66726,3.66726,0,0,0-2.75976,1.0586c-1.24219,1.24219-1.37989,3.3125-1.37989,5.79492,0,2.48438.1377,4.60156,1.37989,5.84375A3.67464,3.67464,0,0,0,35.31445,27.834a3.785,3.785,0,0,0,2.80664-1.05859C39.36328,25.5332,39.501,23.416,39.501,20.93164,39.501,18.44922,39.36328,16.37891,38.12109,15.13672Z" fill="#00a0dd"/><path d="M55.18555,32.93945c-4.92188,0-6.99219-3.44922-6.99219-6.85351V.18359h5.98047V25.7168c0,1.42578.59765,2.16211,2.11621,2.16211h2.2998v5.06054Z" fill="#00a0dd"/><path d="M61.53223,32.93945V8.9707H67.5127V32.93945Z" fill="#00a0dd"/><path d="M81.86523,33.2168c-4.78515,0-10.71972-2.57618-10.71972-12.28516,0-9.707,5.93457-12.23633,10.71972-12.23633A10.20674,10.20674,0,0,1,89.77832,11.916l-4.04883,4.04882a4.83422,4.83422,0,0,0-3.86426-1.88672,4.14609,4.14609,0,0,0-3.40429,1.56446c-.91992,1.15039-1.334,2.75976-1.334,5.28906,0,2.53125.41407,4.1875,1.334,5.33789A4.14611,4.14611,0,0,0,81.86523,27.834a4.83993,4.83993,0,0,0,3.86426-1.88671l4.04883,4.002A10.24275,10.24275,0,0,1,81.86523,33.2168Z" fill="#00a0dd"/><path d="M97.36523,22.81836c0,3.082,1.88672,5.33789,5.24512,5.33789a6.63157,6.63157,0,0,0,5.42871-2.25586l3.63379,3.543a11.41484,11.41484,0,0,1-9.1084,3.77344c-5.65918,0-11.08789-2.57618-11.08789-12.28516,0-7.82031,4.23242-12.23633,10.44336-12.23633,6.6709,0,10.44336,4.877,10.44336,11.45508v2.668Zm8.55762-6.66992a4.46624,4.46624,0,0,0-8.00488,0,6.5961,6.5961,0,0,0-.55274,2.57617h9.10938A6.59582,6.59582,0,0,0,105.92285,16.14844Z" fill="#00a0dd"/><path d="M129.24316,32.93945H116.82227V.18359H128.875c5.42871,0,9.47754,3.17579,9.47754,8.55664a7.48043,7.48043,0,0,1-5.10645,7.36133,7.9856,7.9856,0,0,1,5.61231,7.91406C138.8584,29.85742,134.99414,32.93945,129.24316,32.93945Zm-.64355-30.54687h-9.293V15.08984h9.293c3.956,0,7.26855-1.83984,7.26855-6.34961C135.86816,4.23242,132.55566,2.39258,128.59961,2.39258Zm.36816,14.90625h-9.66113V30.73242h9.66113c4.46192,0,7.40625-2.48437,7.40625-6.7168S133.42969,17.29883,128.96777,17.29883Z" fill="#00a0dd"/><path d="M157.34863,30.73242c-1.88672,1.88477-3.63476,2.48438-6.76269,2.48438-3.3125,0-5.10645-.55274-6.53321-2.02539a6.13567,6.13567,0,0,1-1.61035-4.32422c0-4.04883,2.89844-6.39453,7.7295-6.39453h7.17675V17.98828c0-3.543-1.70215-5.42773-6.25683-5.42773-3.12891,0-4.69239.78125-6.11914,2.80468l-1.70215-1.4707c1.88672-2.623,4.18652-3.4043,7.82129-3.4043,5.88867,0,8.60254,2.6211,8.60254,7.26758V32.93945h-2.34571Zm-6.90136-8.373c-3.77247,0-5.65821,1.4707-5.65821,4.46093,0,2.94531,1.74805,4.32617,5.79688,4.32617,2.02441,0,3.91015-.18554,5.52051-1.70312.82812-.78125,1.24218-2.209,1.24218-4.23242V22.35938Z" fill="#00a0dd"/><path d="M178.55371,19.18359c0-4.27734-2.11621-6.623-6.11914-6.623-4.002,0-6.25684,2.39062-6.25684,6.623V32.93945H163.832V10.76562h2.3457v2.623a9.01054,9.01054,0,0,1,12.42188-.7832,8.22338,8.22338,0,0,1,2.2998,6.16406V32.93945h-2.3457Z" fill="#00a0dd"/><path d="M192.35156,20.74805,187.291,26.5918v6.34765h-2.34668V.18359H187.291V23.2793l10.99511-12.51368h2.99024l-7.31446,8.28126,8.92481,13.89257h-2.89844Z" fill="#00a0dd"/><path d="M4.89844,55.7168H3.9043V43.4873H0v-.88378H8.82129v.88378H4.89844Z" fill="#575656"/><path d="M16.59082,50.21c0-1.71289-.84668-2.65234-2.44922-2.65234A2.341,2.341,0,0,0,11.63672,50.21V55.7168h-.93945V42.60352h.93945v5.28613A3.26829,3.26829,0,0,1,14.252,46.72949,3.03935,3.03935,0,0,1,17.53027,50.044V55.7168h-.93945Z" fill="#575656"/><path d="M23.47656,54.98047a3.09383,3.09383,0,0,0,2.4502-1.06836l.69922.55273a4.02812,4.02812,0,0,1-3.2041,1.36231c-2.4502,0-3.7754-1.584-3.7754-4.54883,0-2.873,1.3252-4.54883,3.55372-4.54883s3.55468,1.60156,3.55468,4.32813v.42285H20.585C20.585,53.74609,21.58008,54.98047,23.47656,54.98047Zm2.02637-5.93067a2.52213,2.52213,0,0,0-4.60449,0,4.86526,4.86526,0,0,0-.31348,1.67579h5.23047A4.04486,4.04486,0,0,0,25.50293,49.0498Z" fill="#575656"/><path d="M36.292,55.82715a4.8707,4.8707,0,0,1-3.59179-1.27051l.64453-.64453a3.83643,3.83643,0,0,0,2.91015,1.08594c1.75,0,2.6709-.60743,2.6709-1.80469,0-.93945-.51562-1.36231-1.69433-1.49121l-1.47364-.12891c-1.78613-.14746-2.6709-.9209-2.6709-2.32129,0-1.54687,1.25293-2.52246,3.18653-2.52246a5.20685,5.20685,0,0,1,3.1123.93848l-.626.627a4.10492,4.10492,0,0,0-2.48633-.75586c-1.47364,0-2.26563.6084-2.26563,1.71289,0,.93946.55274,1.36328,1.80469,1.49219l1.43652.12891c1.47364.14746,2.59766.58886,2.59766,2.32031C39.84668,54.81445,38.4834,55.82715,36.292,55.82715Z" fill="#575656"/><path d="M42.23828,53.39648V47.53906H41.02344v-.69922h1.21484V44.00293h.93945v2.83691h2.00782v.69922H43.17773v5.876c0,.93848.42383,1.47266,1.36329,1.47266h.64453v.8291H44.375A2.0734,2.0734,0,0,1,42.23828,53.39648Z" fill="#575656"/><path d="M50.48828,47.55762a2.44975,2.44975,0,0,0-2.376,2.68945V55.7168h-.93945v-8.877h.93945v1.17871A3.04,3.04,0,0,1,50.709,46.72949a2.71354,2.71354,0,0,1,2.13672.84668l-.68164.68164A2.0331,2.0331,0,0,0,50.48828,47.55762Z" fill="#575656"/><path d="M57.35645,54.98047a3.09052,3.09052,0,0,0,2.44921-1.06836l.7002.55273a4.02878,4.02878,0,0,1-3.20508,1.36231c-2.44922,0-3.77539-1.584-3.77539-4.54883,0-2.873,1.32617-4.54883,3.55469-4.54883s3.55469,1.60156,3.55469,4.32813v.42285H54.46484C54.46484,53.74609,55.459,54.98047,57.35645,54.98047Zm2.02539-5.93067a2.52213,2.52213,0,0,0-4.6045,0,4.8451,4.8451,0,0,0-.3125,1.67579h5.23047A4.04323,4.04323,0,0,0,59.38184,49.0498Z" fill="#575656"/><path d="M69.10449,50.21c0-1.71289-.84765-2.65234-2.45019-2.65234A2.34148,2.34148,0,0,0,64.14941,50.21V55.7168h-.93847v-8.877h.93847v1.04981A3.27834,3.27834,0,0,1,70.043,50.044V55.7168h-.93848Z" fill="#575656"/><path d="M75.419,60.06348a3.781,3.781,0,0,1-2.92774-1.17871l.626-.626a2.88342,2.88342,0,0,0,2.30176.97559c1.86035,0,2.68945-1.30762,2.68945-3.0752v-1.584a2.94555,2.94555,0,0,1-2.63379,1.252,3.07,3.07,0,0,1-2.17383-.77344,5.32752,5.32752,0,0,1-1.1416-3.77539,5.32752,5.32752,0,0,1,1.1416-3.77539,3.07,3.07,0,0,1,2.17383-.77344,2.94556,2.94556,0,0,1,2.63379,1.252V46.83984h.93848v9.374A3.51161,3.51161,0,0,1,75.419,60.06348Zm.18457-12.50586c-2.17383,0-2.50489,1.8789-2.50489,3.7207s.33106,3.71973,2.50489,3.71973c2.17285,0,2.50488-1.87793,2.50488-3.71973S77.77637,47.55762,75.60352,47.55762Z" fill="#575656"/><path d="M82.37793,53.39648V47.53906H81.16309v-.69922h1.21484V44.00293h.93945v2.83691H85.3252v.69922H83.31738v5.876c0,.93848.42383,1.47266,1.36328,1.47266h.64454v.8291h-.81055A2.07339,2.07339,0,0,1,82.37793,53.39648Z" fill="#575656"/><path d="M93.5752,50.21c0-1.71289-.84766-2.65234-2.4502-2.65234A2.34148,2.34148,0,0,0,88.62012,50.21V55.7168h-.93848V42.60352h.93848v5.28613a3.26963,3.26963,0,0,1,2.61523-1.16016A3.03889,3.03889,0,0,1,94.51367,50.044V55.7168H93.5752Z" fill="#575656"/><path d="M107.27344,54.85156a3.60894,3.60894,0,0,1-4.93555,0,4.87163,4.87163,0,0,1-1.10547-3.57324,4.87163,4.87163,0,0,1,1.10547-3.57324,3.60894,3.60894,0,0,1,4.93555,0,4.87094,4.87094,0,0,1,1.10449,3.57324A4.87094,4.87094,0,0,1,107.27344,54.85156Zm-.626-6.53808a2.62187,2.62187,0,0,0-3.68359,0,4.12732,4.12732,0,0,0-.792,2.96484,4.12732,4.12732,0,0,0,.792,2.96484,2.62427,2.62427,0,0,0,3.68359,0,4.13191,4.13191,0,0,0,.792-2.96484A4.13191,4.13191,0,0,0,106.64746,48.31348Z" fill="#575656"/><path d="M112.18848,55.7168H111.249V47.53906H110.0332v-.69922H111.249v-1.916a2.07289,2.07289,0,0,1,2.13672-2.32031h.81055v.8291h-.64551c-.93848,0-1.3623.53418-1.3623,1.47363v1.93359h2.00781v.69922h-2.00781Z" fill="#575656"/><path d="M123.7334,55.82715c-2.43067,0-3.9043-1.73145-3.9043-4.54883,0-2.81836,1.47363-4.54883,3.9043-4.54883a3.4496,3.4496,0,0,1,2.92871,1.36231l-.64453.58984a2.71483,2.71483,0,0,0-2.28418-1.124,2.68244,2.68244,0,0,0-2.35742,1.17871,4.12621,4.12621,0,0,0-.60743,2.542,4.123,4.123,0,0,0,.60743,2.541,2.68244,2.68244,0,0,0,2.35742,1.17871,2.76287,2.76287,0,0,0,2.28418-1.123l.64453.58984A3.4496,3.4496,0,0,1,123.7334,55.82715Z" fill="#575656"/><path d="M134.15625,54.85156a3.61017,3.61017,0,0,1-4.93652,0,4.87091,4.87091,0,0,1-1.1045-3.57324,4.87091,4.87091,0,0,1,1.1045-3.57324,3.61017,3.61017,0,0,1,4.93652,0,4.87513,4.87513,0,0,1,1.10449,3.57324A4.87513,4.87513,0,0,1,134.15625,54.85156Zm-.62695-6.53808a2.62188,2.62188,0,0,0-3.6836,0,4.132,4.132,0,0,0-.792,2.96484,4.132,4.132,0,0,0,.792,2.96484,2.62428,2.62428,0,0,0,3.6836,0,4.12736,4.12736,0,0,0,.792-2.96484A4.12736,4.12736,0,0,0,133.5293,48.31348Z" fill="#575656"/><path d="M149.64258,50.21c0-1.71289-.84668-2.65234-2.44922-2.65234a2.31718,2.31718,0,0,0-2.50488,2.48633V55.7168H143.749V50.21c0-1.71289-.84668-2.65234-2.44922-2.65234A2.341,2.341,0,0,0,138.79492,50.21V55.7168h-.93945v-8.877h.93945v1.04981a3.30585,3.30585,0,0,1,2.63379-1.16016,2.99493,2.99493,0,0,1,2.85449,1.62012,3.393,3.393,0,0,1,3.02051-1.62012,3.32888,3.32888,0,0,1,2.33887.84668,3.29033,3.29033,0,0,1,.9209,2.46778V55.7168h-.9209Z" fill="#575656"/><path d="M164.98047,50.21c0-1.71289-.84668-2.65234-2.44922-2.65234a2.31719,2.31719,0,0,0-2.50488,2.48633V55.7168h-.93946V50.21c0-1.71289-.84668-2.65234-2.44921-2.65234A2.341,2.341,0,0,0,154.13281,50.21V55.7168h-.93945v-8.877h.93945v1.04981a3.30585,3.30585,0,0,1,2.63379-1.16016,2.99493,2.99493,0,0,1,2.85449,1.62012,3.393,3.393,0,0,1,3.02051-1.62012,3.32888,3.32888,0,0,1,2.33887.84668,3.29033,3.29033,0,0,1,.9209,2.46778V55.7168h-.9209Z" fill="#575656"/><path d="M174.31445,54.667a3.27838,3.27838,0,0,1-5.89355-2.15527V46.83984h.93945v5.50684c0,1.71289.84766,2.65137,2.44922,2.65137a2.34029,2.34029,0,0,0,2.50488-2.65137V46.83984h.93946v8.877h-.93946Z" fill="#575656"/><path d="M183.88867,50.21c0-1.71289-.84668-2.65234-2.44922-2.65234A2.341,2.341,0,0,0,178.93457,50.21V55.7168h-.93945v-8.877h.93945v1.04981a3.27833,3.27833,0,0,1,5.89355,2.1543V55.7168h-.93945Z" fill="#575656"/><path d="M187.34863,42.60352h1.16016v1.16015h-1.16016Zm.11035,4.23632h.93946v8.877H187.459Z" fill="#575656"/><path d="M191.73145,53.39648V47.53906h-1.21583v-.69922h1.21583V44.00293h.93945v2.83691h2.00683v.69922H192.6709v5.876c0,.93848.42285,1.47266,1.3623,1.47266h.64453v.8291h-.81054A2.07268,2.07268,0,0,1,191.73145,53.39648Z" fill="#575656"/><path d="M198.54492,59.16113a2.41885,2.41885,0,0,1-1.67676.57032h-.4414v-.82813h.34961c1.01269,0,1.30761-.332,1.62109-1.21582l.71777-1.9707-3.24121-8.877h1.03125l2.6709,7.77149,2.66992-7.77149h1.03223l-4.126,11.29A2.35566,2.35566,0,0,1,198.54492,59.16113Z" fill="#575656"/><rect x="241.83985" y="0.34321" width="27.66306" height="27.66306" fill="#00a0dd"/><rect x="214.17679" y="28.00627" width="27.66306" height="27.66306" fill="#00a0dd"/><rect x="61.52611" y="0.18359" width="5.9927" height="5.9927" fill="#00a0dd"/></svg>