<?xml version="1.0" encoding="UTF-8"?><svg id="Horiz" xmlns="http://www.w3.org/2000/svg" viewBox="0 0 400.25 55.66"><defs><style>.cls-1{fill:#4d4d4f;}.cls-1,.cls-2{stroke-width:0px;}.cls-2{fill:#ad59ff;}</style></defs><path class="cls-1" d="M29.78,35.18c-2.62,2.18-6.35,3.27-11.2,3.27h-9.3v16.06H0V9.84h19.18c4.42,0,7.95,1.15,10.58,3.46,2.63,2.3,3.94,5.87,3.94,10.7,0,5.28-1.31,9-3.92,11.18ZM22.66,19.09c-1.18-.99-2.84-1.49-4.97-1.49h-8.41v13.16h8.41c2.13,0,3.79-.54,4.97-1.61s1.77-2.77,1.77-5.09-.59-3.98-1.77-4.97ZM63.94,50.48c-2.79,3.44-7.02,5.16-12.7,5.16s-9.91-1.72-12.7-5.16c-2.79-3.44-4.18-7.59-4.18-12.43s1.39-8.89,4.18-12.39c2.79-3.49,7.02-5.24,12.7-5.24s9.91,1.75,12.7,5.24c2.79,3.49,4.18,7.62,4.18,12.39s-1.39,8.99-4.18,12.43ZM57.03,45.7c1.35-1.8,2.03-4.35,2.03-7.66s-.68-5.86-2.03-7.64c-1.35-1.78-3.29-2.68-5.82-2.68s-4.47.89-5.83,2.68c-1.36,1.79-2.05,4.33-2.05,7.64s.68,5.86,2.05,7.66c1.36,1.79,3.31,2.69,5.83,2.69s4.46-.9,5.82-2.69ZM78.18,43.97c.18,1.54.58,2.63,1.19,3.27,1.08,1.15,3.07,1.73,5.97,1.73,1.71,0,3.06-.25,4.07-.76,1-.5,1.51-1.26,1.51-2.27s-.4-1.71-1.21-2.21c-.81-.5-3.82-1.37-9.04-2.61-3.75-.93-6.4-2.09-7.93-3.48-1.54-1.38-2.3-3.35-2.3-5.94,0-3.05,1.2-5.67,3.6-7.86s5.78-3.29,10.13-3.29,7.5.82,10.1,2.47c2.6,1.65,4.1,4.49,4.48,8.53h-8.64c-.12-1.11-.44-1.99-.94-2.64-.95-1.17-2.57-1.76-4.86-1.76-1.88,0-3.23.29-4.03.88-.8.59-1.2,1.27-1.2,2.06,0,.99.43,1.71,1.28,2.15.85.46,3.86,1.26,9.02,2.39,3.44.81,6.02,2.03,7.74,3.67,1.7,1.66,2.55,3.73,2.55,6.21,0,3.27-1.22,5.95-3.66,8.02-2.44,2.07-6.21,3.1-11.31,3.1s-9.05-1.1-11.53-3.29c-2.48-2.19-3.72-4.99-3.72-8.38h8.76-.03ZM113.33,17.54h-8.76v-7.97h8.76v7.97ZM104.57,21.48h8.76v33.04h-8.76V21.48ZM168.45,17.54h-8.76v-7.97h8.76v7.97ZM159.69,21.48h8.76v33.04h-8.76V21.48ZM195.62,21.48h9.27l-11.93,33.04h-9.11l-11.85-33.04h9.7l6.88,24.37,7.03-24.37h0ZM228.48,22.15c2.3,1.03,4.21,2.66,5.71,4.89,1.35,1.96,2.23,4.24,2.63,6.83.23,1.52.33,3.71.28,6.56h-24.06c.13,3.31,1.29,5.64,3.46,6.97,1.32.83,2.91,1.24,4.76,1.24,1.97,0,3.57-.51,4.8-1.52.67-.55,1.26-1.3,1.78-2.28h8.82c-.23,1.96-1.3,3.95-3.2,5.97-2.96,3.21-7.1,4.82-12.43,4.82-4.4,0-8.28-1.35-11.64-4.06s-5.04-7.12-5.04-13.23c0-5.72,1.52-10.11,4.55-13.17,3.03-3.05,6.97-4.58,11.81-4.58,2.88,0,5.46.52,7.77,1.55h0ZM215.56,29.61c-1.22,1.26-1.99,2.96-2.3,5.11h14.88c-.16-2.29-.92-4.03-2.3-5.22-1.38-1.19-3.09-1.78-5.12-1.78-2.22,0-3.94.63-5.16,1.89ZM282.73,23.78c-.71-3.05-2.44-5.18-5.18-6.39-1.54-.67-3.24-1-5.12-1-3.6,0-6.55,1.36-8.87,4.07-2.31,2.71-3.47,6.79-3.47,12.24s1.25,9.37,3.76,11.64c2.51,2.28,5.35,3.42,8.55,3.42s5.7-.9,7.7-2.7c2-1.8,3.23-4.15,3.7-7.06h-10.34v-7.46h18.61v23.97h-6.18l-.94-5.58c-1.8,2.11-3.42,3.6-4.85,4.47-2.47,1.51-5.5,2.26-9.09,2.26-5.92,0-10.77-2.05-14.55-6.15-3.94-4.12-5.91-9.75-5.91-16.9s1.99-13.02,5.97-17.38c3.98-4.36,9.24-6.54,15.79-6.54,5.68,0,10.24,1.44,13.68,4.32,3.45,2.88,5.42,6.47,5.93,10.78h-9.19ZM325.01,50.48c-2.79,3.44-7.02,5.16-12.7,5.16s-9.91-1.72-12.7-5.16c-2.79-3.44-4.18-7.59-4.18-12.43s1.39-8.89,4.18-12.39c2.79-3.49,7.02-5.24,12.7-5.24s9.91,1.75,12.7,5.24c2.79,3.49,4.18,7.62,4.18,12.39s-1.39,8.99-4.18,12.43ZM318.1,45.7c1.35-1.8,2.03-4.35,2.03-7.66s-.68-5.86-2.03-7.64c-1.35-1.78-3.29-2.68-5.82-2.68s-4.47.89-5.83,2.68c-1.36,1.79-2.05,4.33-2.05,7.64s.68,5.86,2.05,7.66c1.36,1.79,3.31,2.69,5.83,2.69s4.46-.9,5.82-2.69ZM361.37,50.48c-2.79,3.44-7.02,5.16-12.7,5.16s-9.91-1.72-12.7-5.16c-2.79-3.44-4.18-7.59-4.18-12.43s1.39-8.89,4.18-12.39c2.79-3.49,7.02-5.24,12.7-5.24s9.91,1.75,12.7,5.24c2.79,3.49,4.18,7.62,4.18,12.39s-1.39,8.99-4.18,12.43ZM354.46,45.7c1.35-1.8,2.03-4.35,2.03-7.66s-.68-5.86-2.03-7.64c-1.35-1.78-3.29-2.68-5.82-2.68s-4.47.89-5.83,2.68c-1.36,1.79-2.05,4.33-2.05,7.64s.68,5.86,2.05,7.66c1.36,1.79,3.31,2.69,5.83,2.69s4.46-.9,5.82-2.69ZM387.7,22.01c1.56.88,2.82,2.1,3.79,3.65v-15.76h8.76v44.61h-8.4v-4.58c-1.23,1.96-2.64,3.38-4.21,4.27-1.58.89-3.54,1.33-5.88,1.33-3.86,0-7.11-1.56-9.74-4.68-2.64-3.12-3.96-7.13-3.96-12.02,0-5.64,1.3-10.07,3.89-13.3,2.6-3.23,6.07-4.85,10.41-4.85,2,0,3.78.44,5.33,1.32h.01ZM389.82,45.55c1.27-1.82,1.91-4.17,1.91-7.06,0-4.04-1.02-6.93-3.06-8.67-1.25-1.05-2.71-1.58-4.36-1.58-2.53,0-4.38.95-5.56,2.87-1.18,1.91-1.77,4.28-1.77,7.11,0,3.05.6,5.49,1.8,7.32,1.2,1.83,3.03,2.74,5.47,2.74s4.3-.91,5.58-2.73h0Z"/><path class="cls-1" d="M145.47,48.74h-16.67l-.44-3.67h17.57l-.46,3.67ZM143.6,50.84h-12.9l.41,3.67h12.06l.42-3.67h.01ZM152.12,8.12c-5.46-7.72-13.14-8.12-14.69-8.12h-.56c-1.55,0-9.23.4-14.69,8.12-2.63,3.71-3.28,7.6-3.17,10.81h3.34c-.1-2.64.41-5.83,2.57-8.88,4.51-6.38,10.75-6.7,11.95-6.7h.09l.13.02.23-.02h.1c1.2,0,7.44.32,11.95,6.7,4.79,6.77,1.49,14.28,1.27,14.74l-.04.07-.05.12s-1.36,3.33-4.01,5.76l-.92.85-.14,1.25-.78,6.76h-15.11l-.34-2.96h-3.38l.73,6.32h21.1l1.12-9.73c3.3-3.02,4.87-6.99,4.87-6.99,0,0,4.53-9.51-1.57-18.12Z"/><path class="cls-2" d="M143.68,18.44h-8.71v-7.44h-3.61v7.44h-12.36v3.49h12.36v7.45h3.61v-7.45h8.71v-3.49Z"/></svg>