<svg version="1.1" xmlns="http://www.w3.org/2000/svg" xmlns:xlink="http://www.w3.org/1999/xlink" x="0px" y="0px" width="154.6px"
	 height="19.2px" viewBox="0 0 154.6 19.2" style="enable-background:new 0 0 154.6 19.2;" xml:space="preserve">
<style type="text/css">
	.st0{fill:#F89C1C;}
</style>
<defs>
</defs>
<path class="st0" d="M13.4,16.9c-0.5-0.9-2.2-4.9-2.2-4.9c-0.3-0.8-0.8-1.3-1.4-1.6c1.1-0.5,3.1-1.8,3.1-4.8c0-3.5-2.2-5.1-6.7-5.1
	H0v18.3h3.6v-7.1h2.5c0.9,0,1.3,0.5,1.7,1.3l2.1,4.6c0,0,0.5,1.2,2,1.2h3C14.9,18.8,14,18.2,13.4,16.9 M3.6,3.4h1.8
	c2.7,0,3.8,0.4,3.8,2.5c0,1.9-1.1,3-3,3H3.6V3.4z M31,0C32.1,0,33,0.9,33,2.1c0,1.2-0.9,2.1-2.1,2.1c-1.2,0-2.1-0.9-2.1-2.1
	C28.9,0.9,29.8,0,31,0 M26.7,5.9c-1.7-0.3-3-0.5-4.5-0.5c-5.1,0-7.8,3.1-7.8,7.6c0,3.6,1.9,6.1,5,6.1c2.1,0,3.2-1,3.9-2v1.7h3.4
	v-5.5V5.9z M23,12.3c0,2.4-1.2,3.7-2.6,3.7c-1.4,0-2.3-1.1-2.3-3.3c0-2.3,1.2-4.3,3.8-4.3c0.4,0,0.7,0,1.1,0.1V12.3z M29.1,5.6h3.6
	v13.2h-3.6V5.6z M42.9,5.3c3,0,4.8,2,4.8,4.8v8.7H44v-7.6c0-1.9-0.7-2.7-2.3-2.7c-1.8,0-2.8,1.1-2.8,3v7.3h-3.7v-7.7V5.6h3.4v1.7
	C39.4,6.1,40.8,5.3,42.9,5.3 M116.7,7.9c1.1-1.5,3.3-2.6,5.4-2.3l0,3.5c-2.5-0.4-5.1,1.1-5.1,2.9v6.8h-3.7v-7.7V5.6h3.4V7.9
	 M130.9,5.3c3,0,4.8,2,4.8,4.8v8.7H132v-7.6c0-1.9-0.7-2.7-2.3-2.7c-1.8,0-2.8,1.1-2.8,3v7.3h-3.7v-7.7V5.6h3.4v1.7
	C127.5,6.1,128.9,5.3,130.9,5.3 M105.3,5.3c-4.2,0-6.6,3.2-6.5,7.2c0.1,4,2.7,6.6,6.5,6.6c4.2,0,6.6-3.2,6.5-7.2
	C111.7,7.9,109.1,5.3,105.3,5.3 M105.3,15.9c-1.6,0-2.7-1.2-2.8-3.5c-0.1-2.6,0.9-4,2.8-4c1.6,0,2.6,1.2,2.7,3.6
	C108.1,14.6,107.2,15.9,105.3,15.9 M93.5,0.6h3.8v18.2h-3.8v-7.6h-7v7.6h-3.8V0.6h3.8v7.3h7V0.6z M78.6,14.1c0.5-0.8,1.4-2.8,0.9-6
	l0-0.2h-3.4c0,0,0.2,0.4,0.2,1.7c0,0.5-0.1,1.3-0.2,1.7c-0.1-0.1-0.2-0.2-0.4-0.3c-0.4-0.3-0.8-0.6-1.3-0.9c-1.1-0.7-2.8-1.5-4-2.1
	l-0.4-0.2c-1.1-0.5-1.7-1.5-1.5-2.4c0.1-0.6,0.4-1.1,0.8-1.4c0.6-0.4,1.4-0.5,2.2-0.3c0.4,0.1,1.1,0.3,1.7,0.7C74.4,5,75,5.8,75,5.8
	l2.4-2.4c-0.9-1-2.2-2.2-4.3-2.7c-0.6-0.1-1.2-0.2-1.9-0.2c-1.4,0-2.8,0.4-3.7,1c-1.2,0.8-1.9,2-2.2,3.4c-0.3,1.4,0,2.6,0.8,3.8
	c-2,0.9-3.2,2.6-3.2,4.8c0,3.3,3.1,5.8,7.1,5.8c2.4,0,4.4-0.6,5.9-2c0,0,0,0.1,0.1,0.1c0.1,0.4,0.1,1.1,0.1,1.1l0,0.3h3.4l0-0.3
	C79.7,18.4,79.7,16,78.6,14.1 M70.1,15.9c-2.2,0-3.9-1.1-3.9-2.6c0-1.7,1.7-2.2,3.2-2.2c2.2,0.8,3.9,1.9,5,3.2
	C73.7,15.1,72.6,15.9,70.1,15.9 M153.1,17.3c0-0.1-0.1-0.2-0.2-0.2c0.1-0.1,0.4-0.2,0.4-0.6c0-0.4-0.3-0.7-0.8-0.7h-0.8v2.3h0.5
	v-0.9h0.3c0.1,0,0.2,0.1,0.2,0.2l0.3,0.7h0.5L153.1,17.3z M152.1,16.2h0.2c0.3,0,0.5,0,0.5,0.3c0,0.2-0.1,0.4-0.4,0.4h-0.3V16.2z
	 M152.5,15c-1.1,0-2.1,0.9-2.1,2.1c0,1.1,0.9,2.1,2.1,2.1c1.1,0,2.1-0.9,2.1-2.1C154.6,15.9,153.6,15,152.5,15 M152.5,18.7
	c-0.9,0-1.7-0.7-1.7-1.7c0-0.9,0.7-1.7,1.7-1.7c0.9,0,1.7,0.7,1.7,1.7C154.1,17.9,153.4,18.7,152.5,18.7 M57.2,13.4h-4.6
	c0,1.4,2,2.4,3,2.5c1.3,0.2,2.3-0.1,3.3-0.5l2.2,2.2c-1.3,0.8-3.1,1.4-4.5,1.4c-4.9,0-7.6-3.1-7.6-7.1C49,8.3,51.7,5,55.6,5
	c4,0,5.8,2.5,5.8,5.1C61.4,11.9,59.8,13.4,57.2,13.4 M54.7,8c-1.9,0.6-2.1,2.5-2.1,2.5s2,0,4,0C59.2,10.5,58,7.1,54.7,8 M145.3,13.4
	h-4.6c0,1.4,2,2.4,3,2.5c1.3,0.2,2.3-0.1,3.3-0.5l2.2,2.2c-1.3,0.8-3.1,1.4-4.5,1.4c-4.9,0-7.6-3.1-7.6-7.1c0-3.7,2.7-7.1,6.6-7.1
	c4,0,5.8,2.5,5.8,5.1C149.5,11.9,147.9,13.4,145.3,13.4 M142.8,8c-1.9,0.6-2.1,2.5-2.1,2.5s2,0,4,0C147.3,10.5,146,7.1,142.8,8"/>
</svg>
