<svg width="104" height="16" viewBox="0 0 104 16" fill="none" xmlns="http://www.w3.org/2000/svg">
<path d="M3.95184 4.32581C3.87968 4.02474 3.89648 3.70699 3.93657 3.54149C4.03832 3.06554 4.35981 2.53492 5.29737 2.53492C6.16716 2.53492 6.67918 3.07762 6.67918 3.89127V4.81557H10.3874V3.76662C10.3876 0.517762 7.47146 0 5.36935 0C2.72849 0 0.570821 0.880579 0.175828 3.31924C0.067964 3.98849 0.0494457 4.57759 0.205419 5.33218C0.849359 8.38545 6.13337 9.26833 6.90197 11.2002C7.04611 11.5595 7.00239 12.0209 6.93099 12.303C6.80919 12.805 6.47357 13.3117 5.47912 13.3117C4.55034 13.3117 3.99479 12.7684 3.99479 11.9521L3.98945 10.515H0V11.6569C0 14.9959 2.6107 16 5.40467 16C8.09096 16 10.2971 15.0805 10.657 12.5812C10.8359 11.293 10.7017 10.4546 10.6413 10.1366C10.0138 7.00225 4.3749 6.07393 3.95184 4.32561V4.32581ZM52.3042 4.36243C52.238 4.0675 52.2573 3.75416 52.2914 3.59039C52.3976 3.11233 52.7175 2.59092 53.6389 2.59092C54.4976 2.59092 55.0008 3.12863 55.0008 3.93557V4.84875H58.6663V3.80785C58.6663 0.590057 55.7944 0.0845678 53.7149 0.0845678C51.0961 0.0845678 48.9574 0.951724 48.5668 3.37293C48.4633 4.03183 48.4379 4.61671 48.6021 5.36306C49.239 8.38199 54.4714 9.25778 55.2307 11.167C55.3649 11.5286 55.3265 11.9896 55.258 12.2616C55.1442 12.7584 54.8116 13.2582 53.8252 13.2582C52.8999 13.2582 52.3432 12.7239 52.3432 11.9187L52.342 10.4855H48.3967V11.6247C48.3967 14.9259 50.9707 15.922 53.7433 15.922C56.3989 15.922 58.592 15.0105 58.9437 12.5398C59.1117 11.2632 58.9851 10.4318 58.9177 10.1186C58.303 7.0222 52.7263 6.0908 52.3042 4.36243ZM86.0644 12.4995L82.5631 0.475958H77.0458V15.2542H80.6954L80.4835 2.84577L84.2437 15.2542H89.5353V0.475574H85.8616L86.0644 12.4992V12.4995ZM15.9171 0.475958L13.1633 15.4098H17.1796L19.2548 1.58474L21.2804 15.4098H25.2687L22.5261 0.475766H15.9171V0.475958ZM38.3743 0.475958L36.4984 12.1496L34.6238 0.475766H28.5586L28.2368 15.4099H31.9528L32.0532 1.58493L34.6101 15.4101H38.3802L40.9391 1.58512L41.0403 15.4101H44.7656L44.4328 0.475958H38.3743ZM72.9233 0.475958H69.1629V11.5239C69.1686 11.7164 69.1629 11.9327 69.1297 12.0915C69.0514 12.4622 68.7383 13.1759 67.7011 13.1759C66.6771 13.1759 66.356 12.4622 66.2834 12.0913C66.2456 11.9327 66.241 11.7164 66.2456 11.5239V0.475766H62.4866V11.181C62.482 11.4569 62.5034 12.0209 62.5198 12.1684C62.7793 14.958 64.9679 15.8637 67.7011 15.8637C70.4395 15.8637 72.627 14.958 72.891 12.1684C72.912 12.0207 72.9393 11.4569 72.9231 11.181V0.475766L72.9233 0.475958ZM98.741 7.02737V9.20543H100.265V11.3666C100.269 11.5595 100.259 11.7676 100.226 11.9344C100.166 12.3373 99.7841 13.0236 98.7024 13.0236C97.6274 13.0236 97.2531 12.3373 97.188 11.9344C97.1606 11.7676 97.149 11.5595 97.149 11.3664V4.54097C97.149 4.29954 97.1654 4.03548 97.2164 3.83547C97.2901 3.4715 97.6112 2.7543 98.6944 2.7543C99.8317 2.7543 100.116 3.51062 100.181 3.83547C100.224 4.05063 100.226 4.41153 100.226 4.41153V5.24014H103.97V4.75037C103.97 4.75037 103.987 4.23894 103.942 3.76202C103.66 0.960353 101.363 0.0742126 98.7276 0.0742126C96.0879 0.0742126 93.8365 0.968599 93.5085 3.76183C93.4789 4.01726 93.4335 4.47673 93.4335 4.75018V11.0289C93.4335 11.3024 93.4423 11.5141 93.4929 12.0138C93.7372 14.7382 96.0879 15.7039 98.7171 15.7039C101.363 15.7039 103.697 14.7382 103.945 12.0138C103.99 11.5141 103.994 11.3024 104 11.0289V7.02737H98.741Z" fill="black"/>
</svg>
