<svg version="1.1" xmlns="http://www.w3.org/2000/svg" xmlns:xlink="http://www.w3.org/1999/xlink" x="0px" y="0px" width="290px"
	 height="41.6px" viewBox="0 0 290 41.6" style="enable-background:new 0 0 290 41.6;" xml:space="preserve">
<defs>
</defs>
<g>
	<path d="M64.6,12h0.6v5.2h-0.7c-0.1-1.3-0.6-2.5-1.6-3.4c-0.9-0.8-2.1-1.3-3.4-1.2c-1-0.1-2.1,0.3-2.9,0.9
		c-0.7,0.6-1.1,1.5-1.1,2.4c0,0.9,0.3,1.8,0.9,2.5c0.6,0.8,1.9,1.8,3.9,3c2.3,1.4,3.9,2.6,4.7,3.7c0.8,1,1.2,2.3,1.2,3.6
		c0,3.5-2.8,6.3-6.3,6.3c-1.3-0.1-2.6-0.3-3.8-0.8c-0.4-0.2-0.8-0.3-1.2-0.3c-0.4,0-0.6,0.3-0.8,0.8h-0.7v-6h0.7
		c-0.1,2.9,2.2,5.4,5.1,5.4c0.1,0,0.1,0,0.2,0c1.2,0.1,2.3-0.3,3.2-1.1c0.8-0.7,1.3-1.8,1.2-2.9c0-0.9-0.4-1.9-1-2.6
		c-0.7-0.8-2.1-1.9-4.2-3.2c-1.3-0.7-2.4-1.5-3.5-2.5c-0.5-0.6-1-1.3-1.3-2c-0.3-0.8-0.4-1.6-0.4-2.4c-0.1-1.6,0.5-3.1,1.7-4.1
		c1.2-1.1,2.8-1.6,4.4-1.6c1.1,0,2.2,0.2,3.2,0.6c0.4,0.1,0.8,0.2,1.2,0.3c0.1,0,0.3,0,0.4-0.1C64.5,12.4,64.6,12.2,64.6,12z"/>
	<path d="M72.1,20.4h0.7V32c-0.1,0.6,0.1,1.1,0.5,1.5c0.5,0.3,1.2,0.4,1.8,0.4v0.6h-7.5v-0.6c1.1,0,1.8-0.1,2.1-0.4
		c0.4-0.4,0.5-1,0.5-1.5v-8.4c0.1-0.6-0.1-1.2-0.4-1.6c-0.3-0.3-1-0.4-2.1-0.4v-0.6L72.1,20.4z M71.5,13.4c0.9,0,1.6,0.7,1.7,1.6
		c0,0,0,0,0,0v0c0,0.4-0.2,0.9-0.5,1.2c-0.3,0.3-0.7,0.5-1.2,0.5c-0.5,0-0.9-0.2-1.2-0.5c-0.3-0.3-0.5-0.7-0.5-1.2
		c0-0.4,0.2-0.9,0.5-1.2C70.7,13.6,71.1,13.4,71.5,13.4L71.5,13.4z"/>
	<path d="M81.5,20.4v2.9h0.1c0.6-0.9,1.3-1.6,2.2-2.1c0.8-0.5,1.7-0.8,2.7-0.8c2,0,3.7,1.2,4.3,3.1c1.5-2,3.1-3.1,5.1-3.1
		c1.2,0,2.4,0.4,3.3,1.2c0.9,0.9,1.4,2.1,1.3,3.4v6.9c-0.1,0.5,0.1,1.1,0.5,1.5c0.5,0.3,1.2,0.5,1.8,0.4v0.7h-7.2v-0.7
		c1,0,1.6-0.2,1.9-0.5c0.3-0.3,0.4-1,0.4-2.1v-6.5c0-0.8-0.2-1.5-0.8-2.1c-0.6-0.5-1.4-0.8-2.2-0.8c-1.4,0-2.7,0.9-3.9,2.6v7.3
		c-0.1,0.6,0.1,1.1,0.5,1.6c0.5,0.3,1.2,0.5,1.8,0.4v0.7H86v-0.7c1,0,1.7-0.2,1.9-0.5s0.4-1,0.4-2.1v-6.3c0-0.8-0.3-1.6-0.8-2.2
		c-0.6-0.5-1.3-0.8-2.1-0.8c-0.8,0-1.5,0.3-2.2,0.7c-0.7,0.5-1.3,1.2-1.7,1.9V32c-0.1,0.5,0.1,1.1,0.5,1.5c0.5,0.3,1.2,0.5,1.8,0.4
		v0.6h-7.3v-0.7c1,0,1.6-0.2,1.9-0.5c0.3-0.5,0.5-1.1,0.4-1.7v-8.1c0-0.5-0.1-1.1-0.4-1.5c-0.4-0.4-0.9-0.5-1.5-0.5h-0.9v-0.6
		l4.7-0.4L81.5,20.4z"/>
	<path d="M118.5,27.7c0,1.9-0.7,3.8-2.1,5.2c-3,2.8-7.7,2.8-10.7,0c-1.4-1.3-2.2-3.2-2.1-5.2c-0.1-2,0.7-3.9,2.1-5.2
		c3-2.8,7.7-2.8,10.7,0C117.7,23.9,118.5,25.7,118.5,27.7z M115.6,27.7c0.1-1.7-0.4-3.3-1.2-4.7c-1.3-1.9-3.9-2.4-5.7-1.1
		c-0.4,0.3-0.8,0.6-1,1c-0.9,1.4-1.3,3.1-1.2,4.8c-0.1,1.7,0.3,3.3,1.2,4.7c1.3,1.9,3.9,2.3,5.8,1c0,0,0,0,0,0c0.4-0.3,0.7-0.6,1-1
		C115.3,31,115.7,29.4,115.6,27.7L115.6,27.7z"/>
	<path d="M124.1,20.4v2.7c1.6-1.8,3.2-2.7,5-2.7c1.2,0,2.4,0.5,3.3,1.4c0.9,1,1.4,2.2,1.3,3.6v6.2c0,0.9,0.2,1.6,0.5,1.9
		c0.3,0.3,0.9,0.5,1.9,0.5v0.6h-7.3v-0.6c0.6,0.1,1.3-0.1,1.9-0.4c0.4-0.3,0.6-0.8,0.5-1.3V25c0-0.8-0.3-1.7-0.9-2.3
		c-0.6-0.6-1.4-0.9-2.2-0.8c-1.3,0-2.6,0.9-3.9,2.7v6.7c0,1.2,0.1,1.9,0.4,2.2c0.3,0.3,0.9,0.5,1.8,0.5v0.6h-7.2v-0.6
		c1,0,1.7-0.2,1.9-0.5c0.3-0.7,0.4-1.4,0.4-2.1v-7.7c0-0.8-0.1-1.4-0.4-1.6c-0.3-0.3-0.9-0.4-1.9-0.4v-0.6l4.3-0.4H124.1z"/>
	<path d="M148.1,18.5c0-1.4,0.5-2.7,1.5-3.6c1-1,2.4-1.5,3.8-1.4c1.2,0,2.3,0.4,3.1,1.2c0.8,0.7,1.3,1.7,1.3,2.8
		c0,1.9-1.3,3.5-4,4.9c2.1,1.9,4,3.9,5.7,6.1c1.1-1.9,1.6-3.4,1.6-4.6c0.1-0.5-0.1-1-0.3-1.4c-0.3-0.3-0.8-0.5-1.3-0.5v-0.6h6.3v0.6
		c-0.7-0.1-1.4,0.1-2,0.4c-0.4,0.3-0.7,0.7-0.9,1c-0.4,0.7-0.8,1.5-1,2.2c-0.5,1.3-1,2.5-1.7,3.6c0.9,1.2,1.9,2.4,3,3.5
		c0.4,0.4,0.9,0.7,1.5,0.8c0.6-0.1,1.1-0.3,1.5-0.8l0.5,0.4c-0.7,1.2-2.1,2-3.5,1.9c-0.6,0-1.3-0.2-1.8-0.5c-0.8-0.5-1.6-1.2-2.2-2
		c-0.4-0.4-0.6-0.7-0.8-0.9c-1.8,2.2-4,3.3-6.4,3.3c-1.6,0-3.2-0.5-4.4-1.6c-1.2-1-1.8-2.4-1.8-3.9c0-1.2,0.5-2.4,1.3-3.3
		c1-1.2,2.2-2.2,3.6-2.9C148.9,21.8,148.1,20.2,148.1,18.5z M148.4,28.2c0,1.3,0.6,2.6,1.6,3.5c0.9,1,2.2,1.6,3.5,1.6
		c0.8,0,1.5-0.2,2.2-0.5c0.8-0.5,1.5-1.1,2.1-1.8c-2-2.6-4.2-4.9-6.7-7.1c-0.8,0.4-1.5,1.1-2,1.9C148.7,26.5,148.4,27.3,148.4,28.2z
		 M150,17.2c0.1,0.8,0.4,1.6,0.9,2.2c0.7,0.9,1.5,1.7,2.4,2.4c1.6-0.8,2.6-2.4,2.6-4.2c0-0.8-0.3-1.7-0.8-2.3
		c-0.5-0.6-1.3-0.9-2.1-0.9c-0.8,0-1.5,0.3-2.1,0.8C150.3,15.8,150,16.5,150,17.2L150,17.2z"/>
	<path d="M188.6,12h0.6v5.2h-0.7c-0.1-1.3-0.6-2.5-1.6-3.4c-0.9-0.8-2.1-1.3-3.4-1.2c-1-0.1-2.1,0.3-2.9,0.9
		c-0.7,0.6-1.1,1.5-1.1,2.4c0,0.9,0.3,1.8,0.9,2.5c0.6,0.8,1.9,1.7,3.9,3c2.3,1.4,3.9,2.6,4.7,3.7c0.8,1,1.2,2.3,1.2,3.6
		c0,3.5-2.8,6.2-6.3,6.3c-1.3-0.1-2.6-0.3-3.8-0.8c-0.4-0.2-0.8-0.3-1.2-0.3c-0.4,0-0.6,0.3-0.8,0.8h-0.7v-6h0.7
		c-0.1,1.5,0.5,2.9,1.6,4c1,1,2.3,1.5,3.7,1.5c1.2,0.1,2.3-0.3,3.2-1.1c0.8-0.7,1.3-1.8,1.2-2.9c0-0.9-0.4-1.9-1-2.6
		c-0.7-0.8-2.1-1.9-4.2-3.2c-1.3-0.7-2.4-1.5-3.5-2.5c-0.6-0.6-1-1.3-1.3-2c-0.3-0.8-0.4-1.6-0.4-2.4c-0.1-1.6,0.5-3.1,1.7-4.1
		c1.2-1.1,2.7-1.7,4.3-1.6c1.1,0,2.2,0.2,3.2,0.6c0.4,0.1,0.7,0.2,1.1,0.3c0.1,0,0.3,0,0.4-0.1C188.5,12.4,188.6,12.2,188.6,12z"/>
	<path d="M204.9,20.4v4.8h-0.7c-0.2-1.1-0.8-2.2-1.7-3c-0.8-0.7-1.8-1.1-2.9-1.1c-1.3,0-2.5,0.5-3.3,1.6c-0.9,1.2-1.4,2.6-1.3,4.1
		c0,1.7,0.5,3.4,1.5,4.8c1,1.4,2.2,2,3.6,2c1,0,1.9-0.3,2.8-0.8c0.9-0.5,1.7-1.2,2.3-2.1v1c-1.4,2-3.6,3.1-6,3
		c-3.6,0.2-6.7-2.6-6.9-6.3c0-0.2,0-0.4,0-0.7c0-2,0.7-3.9,2.1-5.4c1.3-1.4,3.1-2.2,5-2.2c1,0,2,0.2,2.9,0.5c0.3,0.1,0.6,0.2,1,0.2
		c0.4,0,0.7-0.3,0.9-0.8L204.9,20.4z"/>
	<path d="M218,31.7v-6.8c0-0.8-0.2-1.6-0.8-2.2c-0.5-0.5-1.2-0.8-2-0.8c-0.7,0-1.4,0.2-2.1,0.6c-0.8,0.5-1.4,1.2-1.9,2V32
		c-0.1,0.5,0.1,1.1,0.5,1.5c0.5,0.3,1.2,0.5,1.8,0.4v0.6h-7.3v-0.6c1,0,1.7-0.2,2-0.5c0.3-0.3,0.4-1,0.4-2.1V13.4
		c0.1-0.6-0.1-1.2-0.4-1.7c-0.3-0.3-1-0.4-2-0.4v-0.7l4.4-0.5h0.6v13c0.7-0.8,1.5-1.5,2.4-2.1c0.7-0.4,1.6-0.6,2.4-0.6
		c1.2,0,2.4,0.4,3.3,1.3c0.9,0.9,1.3,2.2,1.3,3.5v6c0,1.1,0.1,1.8,0.4,2.1c0.3,0.3,0.9,0.5,1.8,0.5v0.6h-7.1v-0.6
		c0.9,0,1.5-0.1,1.8-0.4C217.9,32.9,218.1,32.3,218,31.7z"/>
	<path d="M236.8,20.4h0.6v11.5c-0.1,0.6,0.1,1.1,0.5,1.5c0.6,0.3,1.2,0.5,1.9,0.4v0.6l-5,0.3v-2.5h-0.1c-1.4,1.8-3,2.7-4.8,2.7
		c-1.2,0-2.4-0.4-3.2-1.3c-0.8-0.9-1.3-2.1-1.3-3.3v-7c0.1-0.5-0.1-1.1-0.5-1.4c-0.6-0.3-1.2-0.4-1.9-0.4v-0.6l4.4-0.4h0.7v9.8
		c-0.1,1.6,1.1,3,2.7,3.1c0.1,0,0.3,0,0.4,0c1.3,0,2.5-0.7,3.6-2.2v-7.4c0-0.9-0.1-1.5-0.4-1.8c-0.3-0.2-1-0.4-2.2-0.4v-0.6
		L236.8,20.4z"/>
	<path d="M249.8,20.4v4.2H249c-0.1-0.9-0.5-1.8-1.1-2.5c-0.6-0.6-1.4-0.9-2.3-0.9c-0.6,0-1.2,0.2-1.6,0.5c-0.4,0.3-0.6,0.8-0.6,1.4
		c0,0.5,0.2,1.1,0.6,1.5c0.7,0.6,1.6,1.2,2.5,1.5c1.7,0.8,2.8,1.5,3.3,2.2c0.5,0.7,0.8,1.6,0.8,2.5c0,1.1-0.5,2.2-1.3,3
		c-0.8,0.8-1.9,1.3-3,1.3c-0.8-0.1-1.6-0.3-2.4-0.7c-0.3-0.2-0.7-0.3-1.1-0.4c-0.2,0-0.4,0.1-0.6,0.3c-0.2,0.2-0.3,0.4-0.3,0.7h-0.7
		v-4.6h0.6c0.2,1.1,0.7,2.1,1.6,2.9c0.8,0.7,1.8,1.1,2.8,1.1c0.6,0,1.3-0.2,1.7-0.7c0.5-0.4,0.7-1.1,0.7-1.7c0-0.6-0.2-1.2-0.6-1.7
		c-0.8-0.7-1.7-1.3-2.7-1.6c-1.6-0.7-2.6-1.3-3.1-1.9c-0.5-0.6-0.8-1.4-0.7-2.2c0-1.1,0.4-2.1,1.2-2.8c0.8-0.8,1.8-1.2,2.9-1.2
		c0.6,0,1.2,0.1,1.7,0.4c0.3,0.2,0.7,0.2,1.1,0.3c0.4,0,0.7-0.3,0.8-0.6L249.8,20.4z"/>
	<path d="M256.4,16.2h0.7v4.6h4.8v1h-4.8v8.8c0,0.8,0.2,1.5,0.6,2.1c0.5,0.5,1.1,0.8,1.8,0.7c1,0,1.9-0.5,2.5-1.3l0.4,0.5
		c-1.2,1.5-2.6,2.3-4.1,2.3c-1.1,0-2.1-0.4-2.8-1.2c-0.7-0.8-1.1-1.8-1.1-2.9v-9.1h-2.6v-0.7C253.7,20.2,255.3,18.5,256.4,16.2z"/>
	<path d="M276.4,31v1c-0.7,0.9-1.5,1.7-2.5,2.3c-1,0.5-2,0.7-3.1,0.7c-2,0.1-3.9-0.7-5.3-2c-1.4-1.3-2.1-3.2-2.1-5.1
		c0-1.9,0.7-3.8,2-5.2c1.2-1.4,3-2.2,4.9-2.1c1.5,0,3,0.5,4.2,1.6c1.1,0.9,1.8,2.4,1.8,3.8v0.3h-10.1v0.2c0,1.3,0.2,2.7,0.7,3.9
		c0.4,1,1.1,2,2,2.6c0.8,0.6,1.8,0.9,2.7,0.9c0.8,0,1.6-0.2,2.3-0.6C274.8,32.6,275.6,31.9,276.4,31z M266.1,25.5h7.4v-0.3
		c0.1-1.1-0.3-2.1-1-2.9c-0.7-0.7-1.6-1.1-2.6-1.1c-1,0-2,0.4-2.7,1.2C266.5,23.3,266.1,24.4,266.1,25.5L266.1,25.5z"/>
	<path d="M282.8,20.4v3c0.9-0.8,1.9-1.6,2.9-2.3c0.5-0.4,1.1-0.6,1.7-0.7c0.9,0,1.8,0.4,2.5,1.1l-1,2.4c-1.5-0.8-2.5-1.2-3.2-1.2
		c-0.8,0-1.7,0.6-2.9,1.7v7.5c-0.1,0.6,0.1,1.1,0.5,1.5c0.5,0.3,1.2,0.5,1.8,0.4v0.6h-7.2v-0.6c1,0,1.6-0.2,1.9-0.5
		c0.3-0.3,0.4-1,0.4-2.2v-7.5c0-0.9-0.2-1.6-0.5-1.8c-0.3-0.3-1.1-0.4-2.4-0.4v-0.6l4.8-0.4H282.8z"/>
	<path d="M29.9,27.2c-0.6-0.2-2.5-2.1-2.5-2.1s-0.9-0.8-1.1-0.9s-0.6-1-0.6-1h-0.1v0.5c0.1,0.3,0.3,0.7,0.4,1
		c0.4,0.4,0.6,0.9,0.7,1.5c0,0-0.1,1.4-1,1.9c-0.8,0.5-1.6,0.9-2.5,1.1c0,0.1,0,0.2,0,0.3c0,0,0.6,0.3,0.8,0.2
		c0.2-0.1,0.3,0,0.7-0.1c0.4-0.1,0.3,0.1,0.3,0.1c-0.4,0.1-0.7,0.2-1.1,0.3c-0.2,0-1.5,0.1-1.3,0.3s0.4,0.3,0.3,0.4
		c-0.1,0.1-1,0.5-1,0.7c0,0.2,0.3,0.1,0.2,0.3S20.3,32,20.2,32c0,0-0.1,0.4,0,0.5c0.1,0.1-1,0.5-1.3,1s-1.2,1.1-1.3,1.3
		c-0.3,0.3-0.5,0.8-0.4,1.2c-0.5-0.3-1.1-0.1-1.3,0.4c-0.2,0.4-0.1,1,0.3,1.3c0.6,0.4,1.1,2.1,1.6,2.4v0.3H21c0,0,0.2-0.2-0.4-0.1
		c0,0-0.5-0.8-0.7-0.9c-0.2-0.1-0.9-0.3-0.9-0.8s-0.2-0.4,0.2-0.9c0.3-0.5,3-4.6,4.8-5.3c1.8-0.7,1.1-1.3,1.4-0.9
		c0,0,3.5-3.7,3.4-3.9C28.7,27.4,30.1,27.2,29.9,27.2"/>
	<path d="M33.1,39.1l-0.2,1.3h6.9c0,0-1.6-1-1.7-0.9c-0.1,0.2-2.2-1.4-2.2-1.4c-0.3-0.6,0.3-6,0.3-6.2c0.2-0.7,0.4-1.4,0.6-2.1
		c0,0,0.4-1.2,0-1.3c-0.4-0.1-0.7-0.8-0.7-0.8c-0.1-0.3-0.2-0.6-0.3-0.8c-0.5-0.3-0.8-0.7-1-1.3c0,0-0.1-0.8-0.4-0.9
		c-0.3-0.1-0.2-0.2-0.2-0.2c1.8-2.5,1.3-2,1.6-3c0.2-0.9-1-1.4-0.8-1.7s0.4-0.6-0.2-1.4c-0.6-0.8,0.4-0.9,0.4-0.9
		c1.7,0.9,2.5-0.3,2.9-0.5s1.2-1.9,0-2.7c-0.8-0.5-1.4-1.2-1.7-2.1c-0.1-1.1-0.6-2.2-1.3-3c-1.4-1-1.7-0.6-1.9-1
		c-0.1-0.4,1.7-2.1,1.7-2.1c0.7,0.1,1.4-0.2,1.8-0.8c-1-2.1-1.9-2-1.9-2c-2.1-2.5-2.7-1.9-2.7-1.9c-0.3,0-0.2,0.7-0.2,0.7
		s-0.5,0.1-0.5,0.4s1.1,0.9,1.1,0.9c-1.1,0-2.2,0.4-3.2,0.9c-0.6-0.3-0.8-0.2-0.9,0.4c0,0.5,0.1,1,0.3,1.4H30l0.3-0.3
		c0-0.4,0.3-0.7,0.6-0.7c0-0.6,0.7-0.6,0.7-0.6s0.7,0.1,0.8,0.3c0.1,0.2,0.3,0.4,0.7,0.1c0.1-0.2,0.4-0.2,0.6,0c0,0,0,0,0,0
		c0,0,0.1,0.1,0.1,0.1v0.6c0,0,0.1-0.1,0.1,0.3c0.1,0.4-0.4,0.4-0.4,0.4l-0.3,0.2l-0.1,0.3l-0.4,0c0.1,0.2,0.1,0.5,0,0.7
		c-0.5,1.2-1.3,0.1-1.5-0.2c-0.2-0.3-0.4-0.4-0.3-0.3c0.2,0.5,0.2,1.1,0.1,1.7c-0.2,0.9-0.6,0.1-0.6,0.1c-0.2-0.4-0.4-0.8-0.5-1.2
		C29.7,6.6,29.4,7,29.4,7c0.2,0.7,0.5,1.4,0.8,2.1c0.2,0.4,0.5,0.8,1,1c0,0,0.1,0.1,0.4-0.1s0.2,0.1,0.2,0.1c-1,1.8-2.3,1.6-2.9,2.2
		c-0.7,0.7-0.1,0.9,0.2,0.9c0.5-0.2,0.9-0.4,1.3-0.7c0.2-0.1,0.4-0.2,0.1,0.2s-1.1,0.8-1.6,1s-0.6,0.4-0.5,0.6
		c0,0.3-0.1,0.6-0.3,0.8c-0.1,0.1-0.3,0.1-0.4,0.2C27,16,27.7,16,27.9,15.9c0.5-0.2,1-0.5,1.5-0.8c0.8-0.5,0.5,0.1,0.2,0.5
		c-0.5,0.5-1.1,1-1.8,1.3c-0.5,0.3-0.4,0.6-0.4,0.6c1.2-0.1,2.8-1.5,4.1-3s1.5-4.3,1.5-4.3c0-0.1-0.2-1.8-0.2-1.8h0.2
		c0,0,0.8,0.8,0.7,4c-0.1,3.2-1.5,4.5-2,5c-0.6,0.6-0.4,0.1-0.4,0.1c0.7-0.9,1.2-1.9,1.5-3c0.1-0.6-0.3-0.2-0.3-0.2
		c-0.1,1-2.6,3.4-2.6,3.4c-0.4,0.3-0.3,0-0.3,0c1.3-1.7-0.7-0.2-0.7-0.2c-0.5,0.1-0.4,0.3-0.4,0.3c1,1.5,4.7,1.6,4.5,1.8
		c-0.2,0.2-0.6,0.4-0.9,0.4c-0.5,0-0.9-0.1-1.3-0.4c-0.5-0.5-0.5-0.1-0.5-0.1c-0.1,1.4,3.4,2.1,3.5,2.1c0.1,0,0.2,0.1,0.2,0.2
		c0,0,0.1,0.4-0.8,0.4c-0.9,0-2.9-1.5-3.5-2.3C28.9,19,29,19.5,29,19.5c0.1,0.6,2.2,2.5,2.7,3c0.5,0.5-0.2,0.4-0.4,0.4
		c-0.3,0-3.2-3.9-3.5-4.1c-0.3-0.3-0.8-0.6-1.2-0.8c-0.6-0.2-0.2-0.6-0.2-0.6c-0.3-0.5-0.5-1.1-0.6-1.7c0-0.3,0-0.7,0.1-1
		c-0.1-0.5,0.8-1.4,0.6-1.6c-0.2-0.4-0.4-0.8-0.5-1.2c0.2-2.1-0.2-2.1-0.2-1.9s-0.6,0.6-0.6,0.6C25.2,10.8,24,10.7,24,11
		c0,0.3,0.2,0.2,0.3,0.5c0.1,0.3-0.7,0.3-0.7,0.3c-1.1,0.4-0.2,0.5-0.3,0.8c-0.1,0.2-0.6,0.4-1.1,0.5s-1.5,0-1.3,0.3
		c0.2,0.4,0.7,0.3,0.8,0.6c0,0.3-0.7,0.2-0.7,0.2c-0.4-0.3-0.8-0.5-1.3-0.5c-0.5,0-0.5,0.3-0.5,0.3c0.2,0,0.4,0,0.6,0.1
		c0.1,0.1,0.5,0.2,0.4,0.3c-0.1,0.1-0.1,0.1-0.3,0.1s-0.8-0.2-1-0.2c-0.3,0-0.5,0.1-0.7,0.3c-0.2,0.2,0,0.1,0.3,0.2
		c0.3,0.1,0.2,0.3,0.2,0.3c-0.3,0.2-0.6,0.4-0.9,0.6c-0.3,0.2-0.5,0.5-0.8,0.8c0,0-0.2,0.2-0.2,0.3c-0.2,0.3-0.4,0.5-0.6,0.8
		c-0.5,0.3-1,0.7-1.4,1.1l-0.4-0.2c0,0-0.4-0.1-0.3,0.5c0.1,0.6,1.2,1.5,1.2,1.3c0-0.2,0.9-1.5,0.7-0.9c-0.2,0.6,0.7,1,0.5,0.8
		s0.2-0.6,0.2-0.6c0.3-0.2,0.5-0.5,0.5-0.8c0.2-0.6,0.4-1.2,0.6-1.7c0.2-0.6,3.7-1.7,4.6-2c0.8-0.2,1.9-0.9,2-0.8
		c0.1,0,0.1,0.1,0.1,0.1s0,0.9,0,1.1c0.1,0.5,0.3,0.9,0.5,1.3c0.2,0.2,0.4,0.4,0.5,0.6c0.1,0.2,0.1,0.4,0.1,0.5
		c0,0.3,0.2,0.6,0.5,0.7c0.4,0.2,0.4,0.4,0.4,0.4c0.1,0.3-0.6,0.3-0.6,0.8c0,0.4,0.7,0.9,0.7,0.9c1.7,0.9,1,0.7,1,0.7
		C25.7,20.6,26,21,26,21c0.3,0.7,1.6,1,1.8,1.1c0.2,0.1,0.6,0,0.7,0.5c0.1,0.5,0.3,0.9,0.6,1.2c0.3,0.4,0.8,0.6,1.9,1.2
		c1.1,0.6,1,0.9,1.3,1.1c0.3,0.2,0.5,0.9,0.7,2.2s0.9,1.5,0.9,1.5s0.2,0,0.4-0.3s0.2-0.3,0.4-0.1c0.2,0.2-0.4,1.1-0.4,1.1
		c-0.7,0.7-1.2,1.6-1.5,2.5c-0.1,0.2,0.2,0.4,0.2,0.4c0.3,0.1,0.4-0.1,0.4,0.2c0,0.1-0.1,0.3-0.2,0.4c0,0-0.2,0.1-0.2,0.6
		c0.1,0.5,0.1,0.5,0.2,0.5s0.3,0.3,0.2,0.3S32.9,36,32.9,36c-0.3,0.4-0.5,0.9-0.5,1.4c0,0.3,0.1,0.6,0.2,0.9
		c0.1,0.3,0.9,0.5,0.8,0.6C33.3,39,33.1,39.1,33.1,39.1z M34.5,15.3c0.3-0.2,0.6-0.3,1-0.4c0.3,0,0.7,0,0.9,0.2
		c0.5,0.3,0.4,0.5-0.2,0.3s-1.1-0.1-0.4,0.4c0.7,0.5,0.1,0.7-0.2,0.3c-0.3-0.3-0.7-0.4-1.1-0.4C34.6,15.8,33.7,15.7,34.5,15.3
		L34.5,15.3z M33.4,17.8c0,0.2-0.1,0.5-0.3,0.6c-0.4,0.3-1.9,1.1-1.1-0.4c0.8-1.5,1.4-1.7,1.4-1.7c0.2-0.3,0.7-0.3,0.9-0.1h0
		c0,0,0.3,0.3-0.5,0.7C33.9,16.9,33.4,16.9,33.4,17.8L33.4,17.8z"/>
	<path d="M43.7,41.6H0V0h43.7V41.6z M1.8,39.8h40.1V1.8H1.8V39.8z"/>
	<path d="M14.8,38.5v-0.3H15c0.1,0,0.2,0,0.2,0.1s-0.1,0.1-0.2,0.1H14.8 M14.8,38.7h0.1l0.3,0.5h0.3l-0.3-0.5c0.1,0,0.3-0.1,0.3-0.3
		v0c0-0.3-0.2-0.3-0.4-0.3h-0.4v1.1h0.2V38.7z M15.9,38.6c0-0.6-0.5-1-1-1c-0.6,0-1,0.5-1,1c0,0.6,0.5,1,1,1c0,0,0,0,0,0l0,0
		C15.5,39.7,15.9,39.2,15.9,38.6L15.9,38.6L15.9,38.6z M15.7,38.6c0,0.4-0.3,0.8-0.7,0.8c0,0,0,0,0,0h0c-0.4,0-0.8-0.3-0.8-0.7
		c0-0.4,0.3-0.8,0.7-0.8C15.2,37.8,15.6,38.1,15.7,38.6L15.7,38.6z"/>
</g>
</svg>
