<svg xmlns="http://www.w3.org/2000/svg" viewBox="0 0 186.74 51"><title>sonnen_logo</title><path d="M25.81,49.59A23.39,23.39,0,1,1,49.22,26.2,23.41,23.41,0,0,1,25.81,49.59M25.53,0A25.5,25.5,0,1,0,51.05,25.5,25.52,25.52,0,0,0,25.53,0M68,30.28a.67.67,0,0,0,.16.7,6.78,6.78,0,0,0,4.32,1.5c2.73,0,4.59-1.83,4.59-3.76,0-2.4-2.06-3.43-4.35-4.52-1.37-.67-2.46-1.17-2.46-2.27,0-.56.39-1.33,1.89-1.33a6.61,6.61,0,0,1,2.66.8.73.73,0,0,0,1-.3l.26-.53a.8.8,0,0,0-.2-1,6.8,6.8,0,0,0-3.69-1c-3.09,0-4.22,2.06-4.22,3.46,0,2.26,2,3.42,3.79,4.29,1.93,1,2.93,1.49,2.93,2.66,0,.9-.8,1.59-2.17,1.59a5.61,5.61,0,0,1-3.12-1.16.62.62,0,0,0-.9.1c-.1.17-.33.63-.46.83M174.84,19.47v12a.65.65,0,0,0,.63.63h1a.65.65,0,0,0,.63-.63V22.63a6.57,6.57,0,0,1,4.29-1.89c1.86,0,3,1.23,3,3.76v7a.66.66,0,0,0,.64.63h1.06a.65.65,0,0,0,.63-.63v-7c0-3.46-1.3-6-5.15-6a7.45,7.45,0,0,0-4.66,1.76l-.3-1a.48.48,0,0,0-.53-.4h-.63a.65.65,0,0,0-.63.63M163.15,24.2a3.85,3.85,0,0,0-3.73-3.66,4.13,4.13,0,0,0-4.19,3.66Zm-3.73-5.69a5.87,5.87,0,0,1,6,6.08,6.69,6.69,0,0,1-.07.9.61.61,0,0,1-.6.57H155.2a4.66,4.66,0,0,0,4.45,4.32,6.25,6.25,0,0,0,3.29-1c.47-.26.67-.43.94-.06s.36.5.56.76.37.5-.13.87a8.3,8.3,0,0,1-4.89,1.53c-4,0-6.52-3.16-6.52-7s2.5-7,6.52-7m-28.51,1v12a.65.65,0,0,0,.63.63h1a.66.66,0,0,0,.64-.63V22.63a6.54,6.54,0,0,1,4.29-1.89c1.86,0,3,1.23,3,3.76v7a.65.65,0,0,0,.63.63h1.06a.66.66,0,0,0,.64-.63v-7c0-3.46-1.3-6-5.16-6A7.4,7.4,0,0,0,133,20.27l-.3-1a.49.49,0,0,0-.54-.4h-.63a.65.65,0,0,0-.63.63m-22,0v12a.65.65,0,0,0,.63.63h1a.65.65,0,0,0,.63-.63V22.63a6.57,6.57,0,0,1,4.29-1.89c1.86,0,3,1.23,3,3.76v7a.66.66,0,0,0,.64.63h1.06a.65.65,0,0,0,.63-.63v-7c0-3.46-1.29-6-5.15-6A7.45,7.45,0,0,0,111,20.27l-.3-1a.48.48,0,0,0-.53-.4h-.63a.65.65,0,0,0-.63.63M92.29,30.31a4.57,4.57,0,0,0,4.32-4.85,4.34,4.34,0,1,0-8.65,0,4.58,4.58,0,0,0,4.33,4.85m0-11.8a6.81,6.81,0,0,1,6.61,7,6.63,6.63,0,1,1-13.23,0,6.82,6.82,0,0,1,6.62-6.95" fill="#1d1d1b"/></svg>