<?xml version="1.0" encoding="UTF-8"?><svg id="Horizontal" xmlns="http://www.w3.org/2000/svg" xmlns:xlink="http://www.w3.org/1999/xlink" viewBox="0 0 1258.26 461.61"><defs><style>.cls-1{fill:url(#SunSolve_Grad);}.cls-1,.cls-2{stroke-width:0px;}.cls-2{fill:#373535;}</style><linearGradient id="SunSolve_Grad" x1="107.39" y1="354.22" x2="344.73" y2="116.88" gradientUnits="userSpaceOnUse"><stop offset="0" stop-color="#d2226a"/><stop offset=".13" stop-color="#fe672e"/><stop offset=".5" stop-color="#fd9a08"/><stop offset=".87" stop-color="#febf24"/></linearGradient></defs><path class="cls-2" d="M833.74,239.23c4.81,5.35,7.22,11.98,7.22,19.89,0,6.52-1.69,12.3-5.05,17.33-3.37,5.03-8.02,8.96-13.96,11.79-5.94,2.83-12.81,4.25-20.62,4.25s-14.55-1.42-20.86-4.25c-6.31-2.83-11.66-6.71-16.04-11.63-4.39-4.92-7.54-10.43-9.46-16.52l13.64-5.62c2.89,7.7,7.19,13.61,12.91,17.73,5.72,4.12,12.43,6.18,20.13,6.18,4.7,0,8.82-.75,12.35-2.25,3.53-1.5,6.28-3.61,8.26-6.34,1.98-2.73,2.97-5.91,2.97-9.55,0-5.03-1.42-9.01-4.25-11.95-2.83-2.94-6.98-5.16-12.43-6.66l-21.98-6.74c-8.66-2.67-15.3-6.9-19.89-12.67-4.6-5.78-6.9-12.41-6.9-19.89,0-6.52,1.58-12.27,4.73-17.25,3.15-4.97,7.54-8.88,13.16-11.71,5.61-2.83,12-4.25,19.17-4.25s13.66,1.28,19.49,3.85c5.83,2.57,10.77,6.02,14.84,10.35,4.06,4.33,7.06,9.28,8.99,14.84l-13.48,5.62c-2.57-6.74-6.42-11.85-11.55-15.32-5.13-3.47-11.18-5.21-18.13-5.21-4.28,0-8.05.72-11.31,2.17-3.26,1.44-5.78,3.53-7.54,6.26-1.76,2.73-2.65,5.96-2.65,9.71,0,4.39,1.39,8.29,4.17,11.71,2.78,3.42,7,6.04,12.68,7.86l20.05,5.94c9.41,2.89,16.52,7.01,21.34,12.35ZM969.58,290.56h14.92v-121.45h-14.92v121.45ZM1172.27,243.72c0,1.18-.08,2.49-.24,3.93-.16,1.44-.35,2.81-.56,4.09h-66.16c.2,4.48,1.21,8.52,3.03,12.11,2.41,4.76,5.83,8.45,10.27,11.07,4.44,2.62,9.28,3.93,14.52,3.93,5.78,0,10.64-1.34,14.6-4.01,3.96-2.67,7.16-6.1,9.63-10.27l12.51,6.42c-1.71,3.96-4.36,7.57-7.94,10.83-3.58,3.26-7.81,5.86-12.67,7.78-4.87,1.92-10.29,2.89-16.28,2.89-8.34,0-15.78-1.98-22.3-5.94-6.52-3.95-11.66-9.38-15.4-16.28-3.75-6.9-5.61-14.62-5.61-23.18s1.84-16.36,5.53-23.1c3.69-6.74,8.72-12.06,15.08-15.96,6.36-3.9,13.5-5.86,21.42-5.86,6.42,0,12.11,1.15,17.09,3.45,4.97,2.3,9.2,5.4,12.67,9.3,3.47,3.91,6.15,8.34,8.02,13.32,1.87,4.97,2.81,10.13,2.81,15.48ZM1108.18,230.32c-1.25,2.6-2.09,5.46-2.53,8.58h50.55c-.07-3.29-.75-6.34-2.05-9.14-2.03-4.38-5.03-7.86-8.98-10.43-3.96-2.57-8.45-3.85-13.48-3.85s-9.63,1.28-13.8,3.85c-4.17,2.57-7.41,6.23-9.71,10.99ZM942.26,223.98c3.9,6.74,5.86,14.49,5.86,23.26s-2.03,16.55-6.1,23.34c-4.07,6.79-9.44,12.14-16.12,16.04-6.69,3.9-14.09,5.85-22.22,5.85s-15.88-1.95-22.62-5.85c-6.74-3.9-12.09-9.28-16.04-16.12-3.96-6.84-5.94-14.6-5.94-23.26s1.95-16.36,5.86-23.1c3.9-6.74,9.22-12.09,15.96-16.04,6.74-3.96,14.33-5.94,22.78-5.94s15.88,1.95,22.62,5.86c6.74,3.91,12.06,9.22,15.96,15.96ZM932.23,247.25c0-5.88-1.26-11.1-3.77-15.64-2.52-4.54-5.94-8.18-10.27-10.91-4.33-2.73-9.17-4.09-14.52-4.09s-10.35,1.36-14.68,4.09c-4.33,2.73-7.78,6.36-10.35,10.91-2.57,4.55-3.85,9.76-3.85,15.64s1.28,11.02,3.85,15.72c2.57,4.71,6.02,8.4,10.35,11.07,4.33,2.67,9.23,4.01,14.68,4.01s10.19-1.34,14.52-4.01c4.33-2.67,7.75-6.36,10.27-11.07,2.51-4.71,3.77-9.95,3.77-15.72ZM1040.97,269.48l-24.23-65.39h-16.69l33.85,86.47h14.12l34.01-86.47h-16.69l-24.38,65.39ZM720.03,206.34c-4.87-2.78-10.4-4.17-16.6-4.17s-12.01,1.53-16.77,4.57c-3.27,2.09-5.91,4.77-7.94,8v-10.65h-14.6v86.47h14.92v-51.18c0-4.71.91-8.74,2.73-12.11,1.82-3.37,4.3-5.99,7.46-7.86,3.15-1.87,6.76-2.81,10.83-2.81s7.67.94,10.83,2.81c3.15,1.87,5.59,4.47,7.3,7.78,1.71,3.32,2.57,7.38,2.57,12.19v51.18h15.08v-55.99c0-6.2-1.42-11.76-4.25-16.68-2.84-4.92-6.69-8.77-11.55-11.55ZM516.86,226.87l-20.05-5.94c-5.67-1.82-9.89-4.44-12.67-7.86-2.78-3.42-4.17-7.33-4.17-11.71,0-3.74.88-6.98,2.65-9.71,1.76-2.73,4.28-4.81,7.54-6.26,3.26-1.44,7.03-2.17,11.31-2.17,6.95,0,12.99,1.74,18.13,5.21,5.13,3.48,8.98,8.58,11.55,15.32l13.48-5.62c-1.93-5.56-4.92-10.51-8.98-14.84-4.07-4.33-9.01-7.78-14.84-10.35-5.83-2.57-12.33-3.85-19.49-3.85s-13.56,1.42-19.17,4.25c-5.61,2.84-10,6.74-13.16,11.71-3.16,4.97-4.73,10.72-4.73,17.25,0,7.49,2.3,14.12,6.9,19.89,4.6,5.78,11.23,10,19.89,12.67l21.98,6.74c5.46,1.5,9.6,3.72,12.43,6.66,2.83,2.94,4.25,6.93,4.25,11.95,0,3.64-.99,6.82-2.97,9.55-1.98,2.73-4.73,4.84-8.26,6.34-3.53,1.5-7.65,2.25-12.35,2.25-7.7,0-14.41-2.06-20.13-6.18-5.72-4.12-10.03-10.03-12.92-17.73l-13.64,5.62c1.92,6.1,5.08,11.61,9.47,16.52,4.38,4.92,9.73,8.8,16.04,11.63,6.31,2.83,13.26,4.25,20.86,4.25s14.68-1.42,20.62-4.25c5.94-2.83,10.59-6.76,13.96-11.79,3.37-5.03,5.05-10.8,5.05-17.33,0-7.91-2.41-14.54-7.22-19.89-4.81-5.35-11.93-9.47-21.34-12.35ZM623.47,255.27c0,4.71-.88,8.77-2.65,12.19-1.76,3.42-4.23,6.04-7.38,7.86-3.16,1.82-6.77,2.73-10.83,2.73s-7.67-.91-10.83-2.73c-3.16-1.82-5.61-4.33-7.38-7.54-1.77-3.21-2.65-6.95-2.65-11.23v-52.46h-14.92v54.07c0,6.74,1.36,12.7,4.09,17.89,2.73,5.19,6.58,9.23,11.55,12.11,4.97,2.89,10.56,4.33,16.77,4.33s11.9-1.52,16.76-4.57c3.31-2.07,5.94-4.71,7.94-7.9v10.54h14.6v-86.47h-15.08v51.18Z"/><path class="cls-1" d="M263.67,297.86l42.19-42.19c5.66-5.66,1.65-15.34-6.35-15.34h-93.37c-2.92,0-5.72,1.16-7.79,3.22l-41.53,41.53c-5.66,5.66-1.65,15.34,6.35,15.34h94.3c2.32,0,4.54-.92,6.18-2.56M263.67,219.8l42.19-42.19c5.66-5.66,1.65-15.34-6.35-15.34h-93.37c-2.92,0-5.72,1.16-7.79,3.23l-41.53,41.52c-5.66,5.66-1.65,15.34,6.35,15.34h94.3c2.32,0,4.54-.92,6.18-2.56M230.8,85.99l43.72,39.27,58.68,3.15,3.15,58.68,39.27,43.72-39.27,43.72-3.15,58.68-58.68,3.15-43.72,39.27-43.72-39.27-58.68-3.15-3.15-58.68-39.27-43.72,39.27-43.72,3.15-58.68,58.68-3.15,43.72-39.27Z"/></svg>