<svg version="1.1" xmlns="http://www.w3.org/2000/svg" xmlns:xlink="http://www.w3.org/1999/xlink" x="0px" y="0px" width="181.9px"
	 height="37.1px" viewBox="0 0 181.9 37.1" style="enable-background:new 0 0 181.9 37.1;" xml:space="preserve">
<defs>
</defs>
<g>
	<g>
		<g>
			<path d="M55.5,10.7c0.2,0,0.3,0,0.4,0.1c0.5,0,0.9,0,1.1-0.1c0.4-0.1,0.8-0.2,1-0.4c0.3-0.2,0.4-0.7,0.4-1.5V0.1h2.4v9
				c0,1.3-0.4,2.3-1.1,2.9c-0.4,0.3-1,0.6-1.8,0.7c-0.7,0.1-1.6,0.1-2.7,0.1c-0.8,0-1.4,0-2-0.1c-0.6-0.1-1.1-0.2-1.5-0.5
				c-0.5-0.3-0.8-0.7-1-1.2c-0.2-0.6-0.3-1.2-0.3-1.9V0.1h2.4v9.1c0,0.5,0.2,0.9,0.5,1.1C53.7,10.5,54.4,10.7,55.5,10.7z"/>
			<path d="M63.2,0.1h4l5.4,10.5h0.1L72.4,0.1h2.4v12.6h-4L65.5,2.2h-0.1l0.1,5.2l0.1,5.3h-2.4V0.1z"/>
			<path d="M77.5,0.1h2.4v12.6h-2.4V0.1z"/>
			<path d="M88.9,12.7h-3.6l-4-12.6h2.5l3.4,10.6l0,0l3.4-10.6H93L88.9,12.7z"/>
			<path d="M94.4,12.7V0.1h8.6v2.1h-6.2v3.1h5.9v2h-5.9v3.3h6.3v2.1H94.4z"/>
			<path d="M111,0.1c1.6,0,2.7,0.3,3.3,1c0.5,0.6,0.8,1.5,0.8,2.8c0,1.4-0.2,2.3-0.6,2.7c-0.3,0.4-0.9,0.7-1.7,0.8v0.1
				c0.7,0.1,1.3,0.3,1.7,0.8c0.3,0.5,0.5,1.2,0.5,2.1v2.3h-2.4v-1.9c0-0.9-0.1-1.5-0.4-1.8c-0.3-0.3-0.8-0.5-1.5-0.5h-3.4v4.2h-2.4
				V0.1H111z M110.6,2.2h-3.4v4.3h3.5c0.7,0,1.3-0.2,1.6-0.5c0.2-0.3,0.3-0.9,0.3-1.7c0-0.8-0.1-1.3-0.3-1.6
				C112.1,2.3,111.5,2.2,110.6,2.2z"/>
			<path d="M121.1,0c1.2,0,2,0,2.4,0.1c0.8,0.1,1.3,0.3,1.8,0.7c0.4,0.4,0.7,0.8,0.8,1.4c0.1,0.4,0.1,0.9,0.1,1.7l-2.4,0V3.3
				c0-0.5-0.1-0.8-0.2-1c-0.2-0.2-0.7-0.3-1.5-0.3h-1c-0.9,0-1.6,0.1-1.8,0.3c-0.2,0.1-0.3,0.3-0.3,0.4c-0.1,0.2-0.1,0.5-0.1,0.8
				c0,0.4,0.1,0.7,0.1,0.9c0.1,0.3,0.4,0.5,1,0.6c0.2,0,0.5,0.1,0.9,0.1l0.9,0.1c1.1,0.1,1.8,0.1,2.1,0.2c0.9,0.1,1.6,0.3,1.9,0.6
				c0.3,0.3,0.6,0.7,0.7,1.3c0,0.3,0.1,0.5,0.1,0.7c0,0.2,0,0.5,0,0.9c0,0.7-0.1,1.3-0.3,1.8c-0.2,0.5-0.5,1-0.9,1.2
				c-0.6,0.4-1.8,0.6-3.6,0.6h-0.9c-0.8,0-1.5,0-1.9-0.1c-0.7-0.1-1.3-0.3-1.7-0.7c-0.5-0.4-0.8-1.1-0.9-1.9c0-0.3,0-0.8,0-1.4h2.4
				c0,0.1,0,0.3,0,0.3c0,0.3,0,0.6,0.1,0.7c0.1,0.3,0.2,0.5,0.3,0.6c0.2,0.1,0.4,0.2,0.6,0.3c0.3,0.1,0.7,0.1,1.1,0.1
				c0.3,0,0.4,0,0.5,0.1c0.6,0,1-0.1,1.1-0.1c0.5-0.1,0.8-0.2,1.1-0.3c0.4-0.2,0.5-0.7,0.5-1.6c0-0.6-0.1-1-0.3-1.2
				c-0.1-0.1-0.2-0.1-0.3-0.2c-0.2-0.1-0.5-0.1-0.9-0.2c-0.2,0-0.4,0-0.7,0l-1.3-0.1c-0.9,0-1.6-0.2-2.2-0.3
				c-0.3-0.1-0.6-0.2-0.9-0.4c-0.7-0.5-1-1.4-1.1-2.7c0-1.4,0.3-2.4,1-3C118,0.3,119.3,0,121.1,0z"/>
			<path d="M128.6,0.1h2.4v12.6h-2.4V0.1z"/>
			<path d="M136.2,12.7V2.2h-3.7V0.1h9.8v2.1h-3.7v10.5H136.2z"/>
			<path d="M147,12.7V7.9l-4.6-7.8h2.8l3,5.4h0.1l3.1-5.4h2.8l-4.7,7.8v4.8H147z"/>
			<path d="M166.3,0c1.5,0,2.7,0.2,3.4,0.4c0.5,0.2,0.9,0.5,1.1,0.9c0.5,0.6,0.8,1.6,0.8,3.1v4c0,0.8-0.1,1.3-0.2,1.8
				c-0.1,0.4-0.3,0.8-0.6,1.2c-0.3,0.4-0.7,0.7-1.2,0.9c-0.8,0.3-2,0.4-3.6,0.4c-1,0-1.8-0.1-2.4-0.2c-0.6-0.1-1.2-0.4-1.6-0.9
				c-0.6-0.7-1-1.8-1-3.5V4.7c0-1.6,0.2-2.7,0.7-3.4c0.5-0.7,1.4-1.1,2.7-1.2C165,0,165.6,0,166.3,0z M166.3,2.1
				c-1.5,0-2.4,0.3-2.6,0.8c-0.2,0.4-0.3,0.9-0.3,1.7c0,0.1,0,0.2,0,0.4v3c0,1,0.1,1.7,0.3,2.1c0.2,0.3,0.5,0.5,0.8,0.5
				c0.5,0.1,1,0.1,1.7,0.2c0.7,0,1.2-0.1,1.7-0.2c0.4-0.1,0.7-0.3,0.9-0.5c0.3-0.4,0.4-1.1,0.4-1.9V4.4c0-0.8-0.1-1.4-0.4-1.7
				c-0.3-0.3-0.7-0.5-1.3-0.6C167.3,2.1,166.9,2.1,166.3,2.1z"/>
			<path d="M173.4,12.7V0.1h8.4v2.1h-6v3.3h5.6v2h-5.6v5.2H173.4z"/>
		</g>
		<g>
			<path d="M61.1,25.3v-1.1c0-0.7-0.2-1.2-0.5-1.5c-0.4-0.3-1.3-0.5-2.9-0.5h-0.5c-1.6,0-2.6,0.2-3.1,0.7c-0.5,0.5-0.7,1.5-0.7,2.9
				v4.6c0,1.7,0.3,2.8,0.9,3.2c0.4,0.3,0.8,0.4,1.2,0.5c0.4,0.1,1.1,0.1,1.9,0.1c1,0,1.7,0,2,0c0.6-0.1,1.1-0.3,1.4-0.6
				c0.2-0.2,0.4-0.6,0.5-1.1c0-0.3,0.1-0.9,0.1-1.7h3.3v1.5c0,1.7-0.4,3-1.3,3.7c-0.7,0.6-1.8,0.9-3.4,1.1c-0.7,0-1.3,0.1-2,0.1
				l-1.4,0c-2.4,0-4.1-0.5-5-1.4c-0.8-0.8-1.2-2.1-1.3-3.9c0-0.8,0-1.9,0-3.4c0-2.7,0.1-4.6,0.4-5.5c0.2-0.6,0.5-1.2,0.9-1.7
				c0.4-0.5,0.9-0.9,1.6-1.1c1.1-0.4,2.6-0.6,4.5-0.6c1.9,0,3.3,0.1,4.2,0.3c1.2,0.3,2,1.1,2.4,2.2c0.3,0.8,0.4,2,0.4,3.5H61.1z"/>
			<path d="M70.9,19.5h4.9l6,17.4h-3.4l-1.1-3.3h-7.5l-1.1,3.3h-3.5L70.9,19.5z M70.5,31.1h6l-3-9.1l0,0L70.5,31.1z"/>
			<path d="M83.2,19.5h5.6L96.3,34h0.1l-0.3-14.6h3.4v17.4h-5.6l-7.4-14.6h-0.1l0.2,7.2l0.1,7.3h-3.4V19.5z"/>
			<path d="M110.6,19.5c1.9,0,3.3,0.4,4,1.1c0.7,0.7,1.1,1.8,1.1,3.5c0,1.3-0.2,2.3-0.7,2.9c-0.4,0.4-1,0.8-1.8,0.9V28
				c1.6,0.2,2.5,0.9,2.8,2.3c0.1,0.5,0.2,1.1,0.2,1.8c0,1.9-0.4,3.1-1.2,3.9c-0.8,0.7-2.1,1-4,1h-9.1V19.5H110.6z M109.9,22.3h-4.6
				v4.4h4.6c0.5,0,0.9,0,1.1,0c1-0.2,1.5-1,1.5-2.4c0-0.8-0.2-1.3-0.4-1.6c-0.1-0.1-0.3-0.2-0.6-0.3
				C111.1,22.4,110.6,22.3,109.9,22.3z M105.2,29.4v4.7h5c0.6,0,1.1-0.1,1.4-0.1c0.7-0.3,1.1-1,1.1-2.1c0-1-0.2-1.6-0.4-2
				c-0.3-0.3-1-0.5-1.9-0.5H105.2z"/>
			<path d="M118.2,36.9V19.5h12v2.9h-8.6v4.4h8.2v2.7h-8.2v4.6h8.7v2.9H118.2z"/>
			<path d="M141.3,19.5c2.3,0,3.8,0.4,4.6,1.3c0.7,0.8,1,2.1,1,3.8c0,1.9-0.3,3.2-0.8,3.8c-0.5,0.6-1.2,0.9-2.3,1.1v0.1
				c1,0.1,1.8,0.5,2.3,1c0.4,0.7,0.6,1.7,0.6,3v3.2h-3.4v-2.6c0-1.3-0.2-2.1-0.5-2.5c-0.4-0.4-1.1-0.6-2.1-0.6h-4.7v5.7h-3.3V19.5
				H141.3z M140.8,22.3h-4.7v6h4.8c1,0,1.8-0.2,2.2-0.7c0.3-0.4,0.5-1.2,0.5-2.4c0-1.1-0.1-1.9-0.4-2.2
				C142.9,22.5,142.1,22.3,140.8,22.3z"/>
			<path d="M157.8,19.5c2.3,0,3.8,0.4,4.6,1.3c0.7,0.8,1,2.1,1,3.8c0,1.9-0.2,3.2-0.8,3.8c-0.5,0.6-1.2,0.9-2.3,1.1v0.1
				c1,0.1,1.8,0.5,2.3,1c0.4,0.7,0.6,1.7,0.6,3v3.2h-3.4v-2.6c0-1.3-0.2-2.1-0.5-2.5c-0.4-0.4-1.1-0.6-2.1-0.6h-4.7v5.7h-3.4V19.5
				H157.8z M157.3,22.3h-4.7v6h4.8c1,0,1.8-0.2,2.2-0.7c0.3-0.4,0.5-1.2,0.5-2.4c0-1.1-0.1-1.9-0.4-2.2
				C159.3,22.5,158.5,22.3,157.3,22.3z"/>
			<path d="M171,19.5h4.9l6,17.4h-3.4l-1.1-3.3h-7.5l-1.1,3.3h-3.5L171,19.5z M170.6,31.1h6l-3-9.1l0,0L170.6,31.1z"/>
		</g>
	</g>
</g>
<g>
	<path d="M12.1,3.5l4.6-3c1.4,0.7,2.7,1.5,3.8,2.5c1.1-1.1,2.4-1.9,3.8-2.6l4.7,3c-2,0.1-4.4,1.1-5.7,2.6c-0.8,1.1-0.8,2.4-0.4,3.6
		c0.5,1.2,1.4,2.1,2.4,2.8c1.1,0.7,2.4,1.2,3.8,1.2c1.3,0,2.7-0.4,3.6-1.5c1.2-1.6,1.5-4,0.8-5.8l4.8,3.1c-0.3,1.5-0.7,2.9-1.4,4.2
		c1.5,0.6,2.8,1.5,4.1,2.6l-1.6,5.3c-0.8-1.9-2.9-3.8-4.9-4.4c-1.3-0.4-2.7,0-3.8,0.7c-1.1,0.8-1.9,1.9-2.3,3.2
		c-0.4,1.3-0.5,2.7,0,3.9c0.4,1.3,1.4,2.3,2.7,2.7c2.1,0.6,4.9,0.1,6.6-1l-1.7,5.5c-1.7,0.2-3.4,0.2-5.1-0.1
		c-0.1,1.2-0.4,2.5-1.4,4.7l-6.2,0c1.7-1.3,3.1-3.7,3.1-5.9c0-1.5-0.9-2.6-2.1-3.4c-1.2-0.7-2.6-1.1-3.9-1.1c-1.4,0-2.8,0.3-3.9,1.1
		c-1.1,0.7-2.1,1.9-2.1,3.4c0,2.2,1.4,4.6,3,5.9l-6.2,0c-0.7-1.5-1.2-3-1.4-4.7c-1.7,0.3-3.4,0.3-5.1,0.1l-1.7-5.5
		c1.8,1.2,4.6,1.6,6.6,1c1.3-0.4,2.3-1.5,2.7-2.7c0.4-1.3,0.4-2.7,0-3.9c-0.4-1.3-1.2-2.4-2.3-3.2c-1.1-0.8-2.4-1.1-3.8-0.7
		c-2,0.6-4,2.5-4.8,4.4L0,16.3c1.3-1.1,2.6-1.9,4.1-2.6C3.4,12.4,3,11,2.7,9.5l4.8-3.1c-0.6,1.8-0.3,4.3,0.8,5.9
		c0.8,1.1,2.3,1.5,3.6,1.5c1.3,0,2.6-0.5,3.7-1.2c1-0.7,2-1.7,2.4-2.8c0.5-1.2,0.5-2.5-0.4-3.6C16.5,4.5,14,3.5,12.1,3.5 M16.2,19.9
		c0.4,1.1,0.6,2.2,0.6,3.4c1.2-0.4,2.4-0.5,3.7-0.5c1.3,0,2.5,0.2,3.7,0.5c0-1.2,0.2-2.3,0.6-3.4c0.4-1.1,0.9-2.1,1.6-3.1
		c-1.2-0.4-2.3-0.9-3.3-1.6c-1-0.7-1.9-1.4-2.6-2.4c-0.8,0.9-1.6,1.7-2.6,2.4c-1,0.7-2.1,1.2-3.3,1.6C15.3,17.8,15.8,18.8,16.2,19.9
		z"/>
</g>
</svg>
