<svg xmlns="http://www.w3.org/2000/svg" viewBox="0 0 100 100"><defs><style>.cls-1{fill:#747474;}.cls-2,.cls-3{fill:#171427;}.cls-2{fill-rule:evenodd;}</style></defs><g id="Logo"><path class="cls-1" d="M50,.25A49.75,49.75,0,1,1,.25,50,49.75,49.75,0,0,1,50,.25M50,0a50,50,0,1,0,50,50A50,50,0,0,0,50,0Z"/></g><g id="Layer_1" data-name="Layer 1"><polygon class="cls-2" points="34.27 33.06 65.7 33.06 65.7 35.27 34.27 35.27 34.27 33.06"/><polygon class="cls-2" points="55.22 24.33 65.7 24.33 65.7 26.53 55.22 26.53 55.22 24.33"/><polygon class="cls-2" points="55.22 19.96 65.7 19.96 65.7 22.18 55.22 22.18 55.22 19.96"/><polygon class="cls-2" points="55.22 46.17 65.7 46.17 65.7 48.38 55.22 48.38 55.22 46.17"/><polygon class="cls-2" points="55.22 41.8 65.7 41.8 65.7 44.01 55.22 44.01 55.22 41.8"/><polyline class="cls-2" points="55.22 37.43 65.7 37.43 65.7 39.64 55.22 39.64 55.22 37.43"/><polygon class="cls-2" points="55.22 28.7 65.7 28.7 65.7 30.9 55.22 30.9 55.22 28.7"/><polygon class="cls-2" points="34.27 28.7 44.75 28.7 44.75 30.9 34.27 30.9 34.27 28.7"/><polygon class="cls-2" points="34.27 24.33 44.75 24.33 44.75 26.53 34.27 26.53 34.27 24.33"/><polygon class="cls-2" points="34.27 19.96 44.75 19.96 44.75 22.18 34.27 22.18 34.27 19.96"/><polygon class="cls-2" points="34.27 46.17 44.75 46.17 44.75 48.38 34.27 48.38 34.27 46.17"/><polygon class="cls-2" points="34.27 37.43 44.75 37.43 44.75 39.64 34.27 39.64 34.27 37.43"/><polygon class="cls-2" points="34.27 41.8 44.75 41.8 44.75 44.01 34.27 44.01 34.27 41.8"/><path class="cls-3" d="M13.26,67.3h1.81v3.84H20V67.3h1.8v9.49H20V72.85H15.07v3.94H13.26Z"/><path class="cls-3" d="M24,72.05a4.85,4.85,0,0,1,5-4.92A4.92,4.92,0,1,1,29,77,4.82,4.82,0,0,1,24,72.05Zm8.12,0A3.12,3.12,0,1,0,29,75.25,3.07,3.07,0,0,0,32.1,72.05Z"/><path class="cls-3" d="M35.74,72.05a4.8,4.8,0,0,1,5-4.92,4.4,4.4,0,0,1,4.55,3.16h-2a2.53,2.53,0,0,0-2.57-1.44,3.22,3.22,0,0,0,0,6.44,2.64,2.64,0,0,0,2.83-2h-3V71.82h5c.06,3.23-2,5.15-4.84,5.15A4.78,4.78,0,0,1,35.74,72.05Z"/><path class="cls-3" d="M58.54,67.3h4.9a3,3,0,0,1,3.27,3,3,3,0,0,1-1.78,2.76L67,76.79H65L63.23,73.4H60.34v3.39h-1.8Zm4.77,4.56a1.51,1.51,0,1,0,0-3H60.34v3Z"/><path class="cls-3" d="M71.57,68.89H68.24V67.3h8.49v1.59H73.37v7.9h-1.8Z"/><path class="cls-3" d="M78.61,67.3h1.8v3.84h4.88V67.3H87.1v9.49H85.29V72.85H80.41v3.94h-1.8Z"/><path class="cls-3" d="M52.81,67.3H50.54l-4.06,9.49h1.86l.82-1.87h5L55,76.79h1.86Zm-3,6,1.74-4h.17l1.74,4Z"/></g></svg>