<svg version="1.1" xmlns="http://www.w3.org/2000/svg" xmlns:xlink="http://www.w3.org/1999/xlink" x="0px" y="0px" width="81.4px"
	 height="26.3px" viewBox="0 0 81.4 26.3" style="enable-background:new 0 0 81.4 26.3;" xml:space="preserve">
<defs>
</defs>
<g id="Layer_2_2_">
	<g id="Layer_1-2_1_">
		<path d="M44,8.1c1.4-0.7,2.2-2.1,2.2-3.7c0-2.7-1.8-4.3-5-4.3h-4.6v16.8h5.1c2.9,0,5-1.8,5-4.8C46.8,10.4,45.7,8.7,44,8.1z
			 M38.5,1.9h2.9c1.4-0.1,2.6,0.9,2.8,2.2c0,0.2,0,0.3,0,0.5c0.1,1.5-1,2.7-2.4,2.8c-0.1,0-0.2,0-0.3,0h-2.9L38.5,1.9z M41.3,15.2
			h-2.8V9.1h2.8c1.9,0,3.4,0.9,3.4,3.1S43.3,15.2,41.3,15.2z"/>
		<path d="M72.4,0.2h-3.5v13.7l-6.5-9.6c-0.2-0.4-0.5-0.8-0.8-1.1c-0.8-1-1.9-1.8-3.1-2.3c-1-0.4-2.2-0.7-3.3-0.7
			c-4.5-0.1-8.2,3.5-8.3,8c0,0.1,0,0.2,0,0.3c-0.1,4.6,3.5,8.3,8,8.5s8.3-3.5,8.5-8l5.4,8h3.4c5.6,0,9-2.8,9-8.4
			C81.3,3.3,78.1,0.2,72.4,0.2z M57.7,14.7c-0.8,0.3-1.6,0.5-2.4,0.5c-3.5,0-6.3-2.8-6.3-6.3c0-0.1,0-0.2,0-0.3
			c-0.2-3.5,2.5-6.5,6-6.6c0.1,0,0.2,0,0.3,0c0.8,0,1.7,0.2,2.4,0.5V14.7z M59.7,13.4V3.7c1.3,1.3,2,3,1.9,4.9
			C61.6,10.4,60.9,12.1,59.7,13.4z M72.8,15.2h-1.9V1.9h1.9c4,0,6.6,2.4,6.6,6.6C79.4,12.9,76.8,15.2,72.8,15.2z"/>
		<polygon points="17.9,7.5 11.1,7.5 11.1,0 11.1,0 9.2,0 0,0 0,1.8 4.6,1.8 4.6,17 6.6,17 6.6,1.8 9.2,1.8 9.2,17 11.1,17
			11.1,9.3 17.9,9.3 17.9,17 19.9,17 19.9,0 17.9,0 		"/>
		<polygon points="24.3,9.2 29.6,9.2 29.6,7.5 24.3,7.5 24.3,1.8 30.4,1.8 30.4,0 22.3,0 22.3,17 30.7,17 30.7,15.2 24.3,15.2 		"/>
		<polygon points="54.8,22.7 56.3,22.7 55.5,20.5 		"/>
		<path d="M40.5,20.3c-1.1-0.1-2.1,0.8-2.1,1.9s0.8,2.1,1.9,2.1s2.1-0.8,2.1-1.9c0,0,0-0.1,0-0.1c0.1-1-0.7-1.9-1.7-2
			C40.6,20.3,40.6,20.3,40.5,20.3z"/>
		<polygon points="23.9,22.7 25.3,22.7 24.6,20.5 		"/>
		<path d="M15.7,21.9c0.5-0.2,0.8-0.6,0.8-1c0-0.4-0.3-0.8-0.8-0.8S15,20.5,15,20.9C15,21.3,15.3,21.7,15.7,21.9z"/>
		<path d="M4.5,18.2v8.1h75.8v-8.1H4.5z M17.7,25l-0.5-0.5c-0.4,0.4-0.9,0.6-1.5,0.5c-1.2,0-1.9-0.7-1.9-1.6c0-0.6,0.4-1.1,0.9-1.4
			c-0.3-0.3-0.5-0.7-0.5-1.1c0-0.8,0.6-1.4,1.4-1.4c0,0,0.1,0,0.1,0c0.7-0.1,1.4,0.4,1.5,1.2c0,0.1,0,0.1,0,0.2
			c-0.1,0.7-0.5,1.2-1.1,1.5l1,1c0.2-0.3,0.2-0.7,0.2-1h0.8c0,0.5-0.1,1.1-0.4,1.5l0.5,0.6L17.7,25z M26.1,24.9l-0.5-1.5h-1.9
			l-0.5,1.5h-0.9l1.9-5.3H25l2,5.3L26.1,24.9z M29.9,25c-0.8,0-1.5-0.5-1.7-1.2l0.7-0.3c0.1,0.4,0.5,0.7,1,0.7
			c0.4,0.1,0.7-0.2,0.8-0.6c0,0,0-0.1,0-0.1c0-1.1-2.4-0.9-2.4-2.6c0-0.8,0.6-1.4,1.4-1.4c0.1,0,0.1,0,0.2,0c0.7,0,1.3,0.4,1.6,1.1
			l-0.7,0.3c-0.1-0.4-0.5-0.6-0.9-0.6c-0.4,0-0.7,0.2-0.7,0.6c0,0,0,0.1,0,0.1c0,1,2.4,0.9,2.4,2.5c0,0.8-0.7,1.5-1.5,1.6
			C30,25,29.9,25,29.9,25z M34.7,25c-0.8,0-1.4-0.5-1.7-1.2l0.7-0.3c0.1,0.4,0.5,0.7,1,0.7c0.4,0.1,0.7-0.2,0.8-0.6c0,0,0-0.1,0-0.1
			c0-1.1-2.4-0.9-2.4-2.6c0-0.8,0.6-1.4,1.4-1.4c0,0,0.1,0,0.1,0c0.7,0,1.3,0.4,1.6,1.1l-0.7,0.3c-0.1-0.4-0.5-0.6-0.9-0.6
			c-0.4,0-0.7,0.2-0.7,0.6c0,0,0,0.1,0,0.1c0,1,2.4,0.9,2.4,2.5c0,0.8-0.7,1.5-1.6,1.5C34.8,25,34.7,25,34.7,25z M40.5,25
			c-1.5,0-2.8-1.2-2.8-2.7c0-1.5,1.2-2.8,2.7-2.8c1.5,0,2.8,1.2,2.8,2.7c0,0,0,0,0,0c0.1,1.5-1.1,2.7-2.6,2.7
			C40.6,25,40.6,25,40.5,25z M47.4,25c-1.5,0.1-2.7-1.1-2.7-2.5c0-0.1,0-0.1,0-0.2c0-1.5,1.3-2.7,2.8-2.7c0.5,0,1.1,0.2,1.5,0.5
			l-0.2,0.8c-0.4-0.3-0.9-0.5-1.3-0.5c-1.1,0.2-1.8,1.3-1.6,2.4c0.2,0.8,0.8,1.4,1.6,1.6c0.5,0,1-0.2,1.4-0.5l0.2,0.7
			C48.6,24.8,48,25,47.4,25z M51.6,24.9h-0.8v-5.3h0.8V24.9z M57,24.9l-0.5-1.5h-1.9L54,24.9h-0.8l1.9-5.3H56l1.9,5.3L57,24.9z
			 M62.5,20.4h-1.3v4.5h-0.8v-4.5H59v-0.8h3.5L62.5,20.4z M66.9,24.9h-2.7v-5.3h2.6v0.8h-1.8v1.5h1.5v0.8h-1.5v1.6h1.9V24.9z
			 M70.1,25c-0.8,0-1.5-0.4-1.7-1.2l0.7-0.3c0.1,0.4,0.5,0.7,1,0.7c0.4,0.1,0.7-0.2,0.8-0.6c0,0,0-0.1,0-0.1c0-1.1-2.4-0.9-2.4-2.6
			c0-0.8,0.6-1.4,1.4-1.4c0,0,0.1,0,0.1,0c0.7,0,1.3,0.4,1.6,1.1L71,20.9c-0.1-0.4-0.5-0.6-0.9-0.6c-0.4,0-0.7,0.2-0.7,0.6
			c0,0,0,0,0,0.1c0,1,2.4,0.9,2.4,2.5c0,0.8-0.7,1.5-1.5,1.6C70.2,25,70.2,25,70.1,25z"/>
		<path d="M14.6,23.4c0,0.5,0.5,1,1.1,0.9c0.3,0,0.7-0.1,0.9-0.4l-1.4-1.4C14.9,22.7,14.7,23,14.6,23.4z"/>
	</g>
</g>
</svg>
