<svg version="1.1" xmlns="http://www.w3.org/2000/svg" xmlns:xlink="http://www.w3.org/1999/xlink" x="0px" y="0px" width="821.8px"
	 height="188.6px" viewBox="0 0 821.8 188.6" style="enable-background:new 0 0 821.8 188.6;" xml:space="preserve">
<style type="text/css">
	.st0{fill:#0E1B41;}
	.st1{fill:#27B6EA;}
</style>
<defs>
</defs>
<path class="st0" d="M261.6,147.7c-12.2,0-22.2-4.2-30.3-12.8c-7.9-8.2-12.3-19.6-12.3-30.6c0-11.6,4-21.7,11.7-30
	c8.5-9.1,19.3-13.9,31.4-13.9c15.1,0,27.7,7,35.4,20l-11.8,9.9c-5.2-10.2-13.4-15.1-24.8-15.1c-14.5,0-26.5,12.3-26.5,29
	s11.9,29,27.3,29c10.5,0,19.3-5.7,24-15.7l12,9.7C289.9,140.6,277.7,147.7,261.6,147.7z M367.8,135.4c-7.7,8-17.2,12-27.7,12
	c-25.1,0-43.3-18.8-43.3-43.6c0-11.6,4.2-22.3,11.9-30.3c8.3-8.8,18-12.8,30.5-12.8c11.2,0,20.8,4,28.6,12.2l15.1-10l0,0v82.7h-15.1
	V135.4z M340.8,133.3c14.5,0,27.7-13.1,27.7-28.5c0-16.8-13.2-29.6-28-29.6c-15.4,0-28.3,12.3-28.3,28.5
	C312.2,120.9,325.3,133.3,340.8,133.3z M462.2,61.6c0,0.5,0,0.8,0,1.2h15.6v12.9h-14.9v69.8h-14.8V75.7h-9.9V62.8h9.4
	c0-0.8,0-1.7,0-2.5c0-16.9,9.4-27.4,28.2-27.4c11,0,22.8,8.2,22.8,23.8H483C482.9,42.5,462.2,41.9,462.2,61.6z M482.9,62.7h15.8
	v82.7h-15.8V62.7z M515.2,145.6V62.9h14.3v9.4c6.3-7.5,13.6-10.8,23.1-10.8c21.4,0,33.6,12.9,33.6,37v47.1h-14.9v-43.9
	c0-17.4-6.3-25.9-20-25.9c-15.9,0-21.1,10.8-21.1,32.2v37.6L515.2,145.6L515.2,145.6z M665.4,135.4c-7.7,8-17.2,12-27.7,12
	c-25.1,0-43.3-18.8-43.3-43.6c0-11.6,4.2-22.3,11.9-30.3c8.3-8.8,18-12.8,30.5-12.8c11.2,0,20.8,4,28.8,12.2V36.1h14.9v109.5h-15.1
	L665.4,135.4L665.4,135.4z M638.4,133.3c14.5,0,27.7-13.1,27.7-28.5c0-16.8-13.2-29.6-28-29.6c-15.4,0-28.3,12.3-28.3,28.5
	C609.8,120.9,622.9,133.3,638.4,133.3z M778.4,145.6V62.9h14v6.5c4.9-7.4,11.5-7.9,19.6-7.9c7.5,0,9.8,3.5,9.8,3.5L812,77
	c-9.4-6.6-19.1,5.5-18.6,18.5v50h-15V145.6z M393.9,145.6V62.9h13v6.5c4.9-7.4,12.5-7.9,20.6-7.9c3.1,0,6.2,1.3,6.2,1.3l-2.6,13
	c-13.2-5.1-23.7,6.8-23.3,19.8v50H393.9L393.9,145.6z M728.4,132.9c20.5,0,26.9-18.6,26.9-18.6l13,5c-0.4,0.9-0.8,1.8-1.2,2.7
	c-7.9,16.7-21.6,25.6-38.7,25.6c-12.2,0-22.3-4.3-30.5-12.9c-7.9-8.2-12.3-19.6-12.3-30.6c0-11.7,4-21.9,11.7-30.2
	c8.3-9.1,18.8-13.6,30.8-13.6c14.5,0,27.6,6.9,35.7,19.3c4.9,7.5,7.1,16.3,7.1,27.7c0,0.8,0,1.5,0,2.3h-69.6
	C703.7,123.7,714.8,132.9,728.4,132.9z M728.5,74.9c-12.9,0-23.3,8.2-26.8,21.4h52.8C750.9,82.7,741.3,74.9,728.5,74.9z"/>
<path id="GUIDE_1_" class="st0" d="M261.6,147.7c-12.2,0-22.2-4.2-30.3-12.8c-7.9-8.2-12.3-19.6-12.3-30.6c0-11.6,4-21.7,11.7-30
	c8.5-9.1,19.3-13.9,31.4-13.9c15.1,0,27.7,7,35.4,20l-11.8,9.9c-5.2-10.2-13.4-15.1-24.8-15.1c-14.5,0-26.5,12.3-26.5,29
	s11.9,29,27.3,29c10.5,0,19.3-5.7,24-15.7l12,9.7C289.9,140.6,277.7,147.7,261.6,147.7z M367.8,135.4c-7.7,8-17.2,12-27.7,12
	c-25.1,0-43.3-18.8-43.3-43.6c0-11.6,4.2-22.3,11.9-30.3c8.3-8.8,18-12.8,30.5-12.8c11.2,0,20.8,4,28.6,12.2l15.1-10l0,0v82.7h-15.1
	V135.4z M340.8,133.3c14.5,0,27.7-13.1,27.7-28.5c0-16.8-13.2-29.6-28-29.6c-15.4,0-28.3,12.3-28.3,28.5
	C312.2,120.9,325.3,133.3,340.8,133.3z M462.2,61.6c0,0.5,0,0.8,0,1.2h15.6v12.9h-14.9v69.8h-14.8V75.7h-9.9V62.8h9.4
	c0-0.8,0-1.7,0-2.5c0-16.9,9.4-27.4,28.2-27.4c11,0,22.8,8.2,22.8,23.8H483C482.9,42.5,462.2,41.9,462.2,61.6z M482.9,62.7h15.8
	v82.7h-15.8V62.7z M515.2,145.6V62.9h14.3v9.4c6.3-7.5,13.6-10.8,23.1-10.8c21.4,0,33.6,12.9,33.6,37v47.1h-14.9v-43.9
	c0-17.4-6.3-25.9-20-25.9c-15.9,0-21.1,10.8-21.1,32.2v37.6L515.2,145.6L515.2,145.6z M665.4,135.4c-7.7,8-17.2,12-27.7,12
	c-25.1,0-43.3-18.8-43.3-43.6c0-11.6,4.2-22.3,11.9-30.3c8.3-8.8,18-12.8,30.5-12.8c11.2,0,20.8,4,28.8,12.2V36.1h14.9v109.5h-15.1
	L665.4,135.4L665.4,135.4z M638.4,133.3c14.5,0,27.7-13.1,27.7-28.5c0-16.8-13.2-29.6-28-29.6c-15.4,0-28.3,12.3-28.3,28.5
	C609.8,120.9,622.9,133.3,638.4,133.3z M778.4,145.6V62.9h14v6.5c4.9-7.4,11.5-7.9,19.6-7.9c7.5,0,9.8,3.5,9.8,3.5L812,77
	c-9.4-6.6-19.1,5.5-18.6,18.5v50h-15V145.6z M393.9,145.6V62.9h13v6.5c4.9-7.4,12.5-7.9,20.6-7.9c3.1,0,6.2,1.3,6.2,1.3l-2.6,13
	c-13.2-5.1-23.7,6.8-23.3,19.8v50H393.9L393.9,145.6z M728.4,132.9c20.5,0,26.9-18.6,26.9-18.6l13,5c-0.4,0.9-0.8,1.8-1.2,2.7
	c-7.9,16.7-21.6,25.6-38.7,25.6c-12.2,0-22.3-4.3-30.5-12.9c-7.9-8.2-12.3-19.6-12.3-30.6c0-11.7,4-21.9,11.7-30.2
	c8.3-9.1,18.8-13.6,30.8-13.6c14.5,0,27.6,6.9,35.7,19.3c4.9,7.5,7.1,16.3,7.1,27.7c0,0.8,0,1.5,0,2.3h-69.6
	C703.7,123.7,714.8,132.9,728.4,132.9z M728.5,74.9c-12.9,0-23.3,8.2-26.8,21.4h52.8C750.9,82.7,741.3,74.9,728.5,74.9z"/>
<circle class="st1" cx="94.2" cy="94.4" r="25.9"/>
<g>
	<path class="st1" d="M141.3,96.8c-1.2,25-21.8,44.8-47.1,44.8c-26,0-47.2-21.1-47.2-47.2s21.1-47.2,47.2-47.2
		c18.9,0,35.2,11.2,42.8,27.2l46.4-11C170.6,26.5,135.5,0,94.3,0C42.2,0,0,42.2,0,94.3s42.2,94.3,94.3,94.3s94.3-42.2,94.3-94.3
		c0-3-0.1-5.9-0.4-8.8L141.3,96.8z"/>
</g>
</svg>
