<svg version="1.1" xmlns="http://www.w3.org/2000/svg" xmlns:xlink="http://www.w3.org/1999/xlink" x="0px" y="0px" width="181.1px"
	 height="96.1px" viewBox="0 0 181.1 96.1" style="enable-background:new 0 0 181.1 96.1;" xml:space="preserve">
<style type="text/css">
	.st0{fill:#FFDE6A;}
</style>
<defs>
</defs>
<path class="st0" d="M181.1,48c0,26.5-21.5,48-48,48c-26.5,0-48-21.5-48-48c0-26.5,21.5-48,48-48C159.6,0,181.1,21.5,181.1,48z"/>
<g>
	<g>
		<path d="M120,39v-1.8c0-0.5,0-1-0.2-1.4c-0.5-0.8-1.7-0.8-2.2-0.8c-0.8,0-1.8,0-2.3,0.6c-0.2,0.2-0.3,0.5-0.3,0.7
			c0,0.3,0.2,0.6,0.8,0.6c0.8,0,0.8-0.5,0.9-0.8c0-0.2,0.1-0.8,0.7-0.8c0.6,0,0.6,0.5,0.7,0.8c0,0.3,0,0.6,0,0.8l-1.2,0.2
			c-1.1,0.2-1.6,0.3-2,0.8c-0.3,0.4-0.3,0.8-0.3,1c0,1.1,0.7,1.6,1.9,1.6c1.1,0,1.4-0.5,1.7-0.8c0.2,0.6,0.5,0.8,1.2,0.8
			c0.2,0,0.6,0,1.5-0.1v-0.3c-0.1,0-0.2,0-0.3,0C120,40.2,120,39.7,120,39z M117.9,39.6c-0.1,0.3-0.4,0.5-0.6,0.5
			c-0.5,0-0.6-0.7-0.6-1.1c0-0.2,0-0.6,0.1-0.9c0.2-0.4,0.5-0.6,1.3-0.8c0,0.3,0,0.5,0,0.8C118,38.5,118,39.2,117.9,39.6z"/>
		<path d="M129.8,36.6c-0.7-0.2-0.7-0.3-0.9-0.3c-0.1-0.1-0.4-0.2-0.4-0.4c0-0.2,0.2-0.5,0.7-0.5c0.5,0,0.9,0.2,1.1,0.5
			c0.3,0.4,0.4,0.7,0.4,0.9h0.4v-1.4c-0.6-0.2-1.1-0.3-1.8-0.3c-1.3,0-2.1,0.7-2.1,1.8c0,1.1,0.7,1.5,1,1.6c0.2,0.1,0.5,0.2,0.7,0.3
			l0.8,0.3c0.2,0.1,0.6,0.2,0.6,0.6c0,0.4-0.4,0.7-1,0.7c-0.5,0-0.9-0.2-1.2-0.5c-0.4-0.4-0.5-0.8-0.5-1.3h-0.4v1.7h-0.6l0-0.8v-3.1
			l0-1.2c-1,0.1-1.1,0.1-2.1,0.1h-0.7v0.3h0.7l0,0.8v1.8c0,0.7,0,1.2-0.3,1.5c-0.2,0.3-0.5,0.4-0.8,0.4c-0.4,0-0.5-0.3-0.5-0.5
			c0-0.2,0-0.2,0-1.2v-2.1l0-1.2c-1,0.1-1.1,0.1-2.1,0.1h-0.7v0.3h0.7l0,0.9v2c0,1.1,0,1.5,0.4,1.9c0.3,0.3,1,0.5,1.4,0.5
			c0.3,0,0.8-0.1,1.1-0.2c0.5-0.2,0.7-0.6,0.8-0.8l0,0.9h2.8v-0.2c0.5,0.2,1,0.3,1.7,0.3c1.1,0,1.9-0.4,2.3-1.3
			c0.1-0.3,0.1-0.6,0.1-0.8C131.6,37.3,130.8,37,129.8,36.6z"/>
		<path d="M134.7,40.1c-0.4,0-0.4-0.4-0.4-1.5v-3.1h1.1v-0.3h-1.1v-1.5h-2.1v1.5h-0.8v0.3h0.8v3.1c0,0.5,0,1.3,0.4,1.7
			c0.3,0.3,0.8,0.4,1.2,0.4c0.9,0,1.4-0.4,1.8-0.6l-0.2-0.3C135.1,39.9,134.9,40.1,134.7,40.1z"/>
		<path d="M150.9,34.5c0.6,0,1-0.5,1-1c0-0.6-0.5-1-1-1c-0.6,0-1,0.5-1,1c0,0.3,0.1,0.5,0.3,0.7C150.4,34.4,150.6,34.5,150.9,34.5z"
			/>
		<path d="M152,39.5V36l0-0.9c-0.8,0-0.9,0-1.7,0.1h-1.2v0.3h0.7l0,0.8v3.2l0,0.7h-0.2h-0.5h-0.2l0-0.8v-6l0-0.8
			c-0.8,0.1-1,0.1-1.8,0.1h-1.1V33h0.7l0,0.7v5.7l0,0.8h-0.1v-0.1c-0.1,0-0.2,0-0.3,0c-0.5,0-0.5-0.4-0.5-1.1v-1.8
			c0-0.5,0-1-0.2-1.4c-0.5-0.8-1.7-0.8-2.2-0.8c-0.8,0-1.8,0-2.3,0.6c-0.1,0.1-0.1,0.2-0.2,0.3c-0.1-0.7-0.6-1-1.1-1
			c-1,0-1.3,0.9-1.5,1.2v-1.1c-0.9,0-1.1,0-2,0.1h-0.7v0.3h0.7l0,1v2.9l0,0.7h-0.7v0.3h3.7v-0.3h-0.8l0-0.7v-1.5
			c0-0.6,0-1.4,0.5-2.1c0.1-0.2,0.2-0.3,0.3-0.3c0.1,0,0.2,0.1,0.2,0.2c0,0.2-0.1,0.3-0.1,0.5c0,0.4,0.3,0.8,0.8,0.8
			c0.4,0,0.6-0.2,0.8-0.5c0.1,0.2,0.3,0.4,0.8,0.4c0.8,0,0.8-0.5,0.9-0.8c0-0.2,0.1-0.8,0.7-0.8c0.6,0,0.6,0.5,0.7,0.8
			c0,0.3,0,0.6,0,0.8l-1.2,0.2c-1.1,0.2-1.6,0.3-2,0.8c-0.3,0.4-0.3,0.8-0.3,1c0,1.1,0.7,1.6,1.9,1.6c1.1,0,1.4-0.5,1.7-0.8
			c0.2,0.6,0.5,0.8,1.2,0.8c0.2,0,0.5,0,1-0.1h2.9h0.5h3.1v-0.3H152L152,39.5z M143.8,39.6c-0.1,0.3-0.4,0.5-0.6,0.5
			c-0.5,0-0.6-0.7-0.6-1.1c0-0.2,0-0.6,0.1-0.9c0.2-0.4,0.5-0.6,1.3-0.8c0,0.3,0,0.5,0,0.8C143.9,38.5,143.9,39.2,143.8,39.6z"/>
		<path d="M157.8,39v-1.8c0-0.5,0-1-0.2-1.4c-0.5-0.8-1.7-0.8-2.2-0.8c-0.8,0-1.8,0-2.3,0.6c-0.2,0.2-0.3,0.5-0.3,0.7
			c0,0.3,0.2,0.6,0.8,0.6c0.8,0,0.8-0.5,0.9-0.8c0-0.2,0.1-0.8,0.7-0.8c0.6,0,0.6,0.5,0.7,0.8c0,0.3,0,0.6,0,0.8l-1.2,0.2
			c-1.1,0.2-1.6,0.3-2,0.8c-0.3,0.4-0.3,0.8-0.3,1c0,1.1,0.7,1.6,1.9,1.6c1.1,0,1.4-0.5,1.6-0.8c0.2,0.6,0.5,0.8,1.2,0.8
			c0.2,0,0.6,0,1.5-0.1v-0.3c-0.1,0-0.2,0-0.3,0C157.8,40.2,157.8,39.7,157.8,39z M155.6,39.6c-0.1,0.3-0.4,0.5-0.6,0.5
			c-0.5,0-0.6-0.7-0.6-1.1c0-0.2,0-0.6,0.1-0.9c0.2-0.4,0.5-0.6,1.3-0.8c0,0.3,0,0.5,0,0.8C155.8,38.5,155.8,39.2,155.6,39.6z"/>
		<path d="M159.3,32.5c-0.7,0-1.1,0.5-1.1,1.1c0,0.6,0.4,1,1.1,1c0.2,0,0.3,0,0.4-0.1c0,0.3-0.1,0.5-0.3,0.8
			c-0.3,0.4-0.5,0.5-0.8,0.7l0.3,0.4c0.5-0.3,1.7-1,1.7-2.5C160.6,33.2,160.1,32.5,159.3,32.5z"/>
		<path d="M163.2,36.6c-0.7-0.2-0.7-0.3-0.9-0.3c-0.1-0.1-0.4-0.2-0.4-0.4c0-0.2,0.2-0.5,0.7-0.5c0.5,0,0.9,0.2,1.1,0.5
			c0.3,0.4,0.4,0.7,0.4,0.9h0.4v-1.4c-0.6-0.2-1.1-0.3-1.8-0.3c-1.3,0-2.1,0.7-2.1,1.8c0,1.1,0.7,1.5,1,1.6c0.2,0.1,0.5,0.2,0.7,0.3
			l0.8,0.3c0.2,0.1,0.6,0.2,0.6,0.6c0,0.4-0.4,0.7-1,0.7c-0.5,0-0.9-0.2-1.2-0.5c-0.4-0.4-0.5-0.8-0.5-1.3h-0.4v1.8
			c0.6,0.2,1.1,0.4,1.9,0.4c1.1,0,1.9-0.4,2.3-1.3c0.1-0.3,0.1-0.6,0.1-0.8C165,37.3,164.2,37,163.2,36.6z"/>
	</g>
	<g>
		<path d="M115.6,52.5v-7.3l0-1.8c-1.7,0.1-1.8,0.1-3.5,0.1h-2.4v0.7h1.5l0,1.7v6.7l0,1.4h-1.4h-0.1h-1.4l0-1.6V39.8l0-1.7
			c-1.6,0.1-2.1,0.1-3.7,0.2h-2.2V39h1.5l0,1.5v11.9l0,1.6h-1.5v0.7h7.3h0.1h7.4v-0.7h-1.6L115.6,52.5z"/>
		<path d="M160.7,46.4c0.7,0,1.4-0.5,1.4-1.5c0-1-0.7-1.7-1.7-1.7c-1.1,0-1.7,0.7-2.2,1.2c-0.5-0.4-0.9-0.8-2-1.1
			c-0.6-0.1-1.2-0.2-2-0.2c-2.2,0-3.3,0.6-3.8,1c-0.6,0.5-1.1,1.4-1.1,2.6c0,1.5,0.8,2.3,1.1,2.6c-1,0.5-2.3,1.2-2.3,3.2
			c0,0.6,0.1,1.1,0.3,1.5h-1l0-1.4v-5.4c0-1,0-2.4-1.1-3.3c-0.7-0.6-1.9-0.8-2.8-0.8c-2.4,0-3.2,1.1-3.9,2.1l0-1.9
			c-1.4,0.1-1.8,0.2-3.5,0.2h-2.3v0.7h1.5l0,1.6v6.8l0,1.4h-0.3h-1.2h-0.4l0-1.5v-7.3l0-1.8c-1.7,0.1-1.9,0.1-3.5,0.1l-1.7,0h-3.2
			v0.7h1.4l-0.4,1.2l-1.7,4.1c-0.7-1.9-1.1-3-1.7-4.2l-0.4-1.1h1.5v-0.7h-7.8v0.7h1.4l0.6,1.1l4.2,9.6h0.8l4-9.5l0.6-1.2h0.1v0
			l1.5,0l0,1.7v6.7l0,1.4h-1.5v0.7h6.3h1.2h6.1v-0.7h-1.3l0-1.3v-4.5c0.1-1.1,0.1-2.4,1-3.3c0.4-0.4,0.8-0.6,1.2-0.6
			c0.1,0,0.8,0,1.1,0.9c0.1,0.4,0.2,0.8,0.2,2.2v5.2l0,1.4h-1.3v0.7h7.3v0c0.4,0.4,0.9,0.5,1.2,0.6c-0.9,0.2-2.6,0.5-2.6,2
			c0,1.4,1.3,1.8,1.7,1.9c1.4,0.5,3.4,0.5,4.3,0.5c2.2,0,3.7-0.4,4.8-1c1.3-0.8,2.2-2,2.2-3.5c0-0.9-0.4-1.8-0.9-2.3
			c-1.1-1.1-3.1-1.1-5.4-1.1h-2.1c-1.2,0-2.5,0-2.5-1c0-0.7,0.8-0.9,1.3-1.1c1.1,0.5,1.6,0.6,3,0.6c0.9,0,2.6,0,3.7-0.9
			c0.8-0.6,1.3-1.7,1.3-2.7c0-0.9-0.2-1.3-0.5-1.9c0.2-0.2,0.3-0.4,0.6-0.4c0.3,0,0.3,0.3,0.3,0.4l0,0.5
			C159.5,46.1,160.2,46.4,160.7,46.4z M153.5,55.7c1.1,0,2.4,0.1,3.3,0.2c0.8,0.1,1.4,0.5,1.4,1.3c0,0.7-0.5,1.1-1.1,1.4
			c-1,0.4-2.8,0.4-3.2,0.4c-2.4,0-3-0.5-3.3-0.8c-0.2-0.2-0.4-0.6-0.4-1C150.1,55.7,152.1,55.7,153.5,55.7z M154.3,49.6
			c-0.9,0-1-1.1-1-3c0-0.8,0-1.6,0.2-2.2c0.1-0.2,0.3-0.6,0.8-0.6c1,0,1,1.3,1,2.5C155.2,48.4,155.2,49.6,154.3,49.6z"/>
	</g>
	<g>
		<path d="M125.5,61.8c-0.2,0.4-0.4,0.9-0.8,1.1c-0.2,0.1-0.4,0.2-0.7,0.2c-1.2,0-1.2-1.5-1.2-2.4c0-0.9,0.1-2.1,0.9-2.1
			c0.3,0,0.5,0.2,0.5,0.6l0,0.3c0,0.6,0.4,0.8,0.8,0.8c0.5,0,0.8-0.3,0.8-0.8c0-0.8-1-1.3-2.2-1.3c-0.4,0-1.4,0-2.2,0.8
			c-0.1,0.1-0.2,0.2-0.3,0.4c0,0,0-0.1,0-0.1c0-0.7-0.6-1-1.1-1c-0.9,0-1.2,0.8-1.4,1.2v-1c-0.8,0-1,0-1.9,0.1h-0.7v0.3h0.7l0,1v2.8
			l0,0.7h-0.1v-0.1c-0.1,0-0.2,0-0.3,0c-0.5,0-0.5-0.4-0.5-1v-1.7c0-0.5,0-1-0.2-1.3c-0.4-0.8-1.6-0.8-2-0.8c-0.7,0-1.7,0-2.2,0.6
			c-0.2,0.2-0.3,0.5-0.3,0.7c0,0.3,0.2,0.5,0.7,0.5c0.8,0,0.8-0.5,0.8-0.7c0-0.2,0.1-0.7,0.6-0.7c0.6,0,0.6,0.5,0.6,0.7
			c0,0.3,0,0.5,0,0.8l-1.1,0.2c-1.1,0.2-1.5,0.3-1.9,0.7c-0.3,0.3-0.3,0.8-0.3,0.9c0,1,0.6,1.6,1.8,1.6c1,0,1.4-0.5,1.6-0.8
			c0.2,0.6,0.5,0.7,1.2,0.7c0.2,0,0.5,0,1-0.1h3.3v-0.3h-0.8l0-0.7V61c0-0.6,0-1.3,0.5-2c0.1-0.1,0.2-0.3,0.3-0.3
			c0.1,0,0.1,0.1,0.1,0.2c0,0.2-0.1,0.3-0.1,0.5c0,0.4,0.3,0.7,0.8,0.7c0.2,0,0.4-0.1,0.5-0.2c-0.1,0.3-0.2,0.6-0.2,1
			c0,1.9,1.4,2.7,2.8,2.7c1.6,0,2.1-1,2.4-1.7L125.5,61.8z M113.9,62.6c-0.1,0.3-0.4,0.4-0.6,0.4c-0.5,0-0.6-0.6-0.6-1
			c0-0.2,0-0.5,0.1-0.8c0.2-0.4,0.4-0.5,1.2-0.8c0,0.3,0,0.5,0,0.8C114,61.6,114,62.3,113.9,62.6z"/>
		<path d="M133.3,57.8c0.5,0,1-0.4,1-1c0-0.5-0.4-1-1-1c-0.5,0-1,0.4-1,1c0,0.3,0.1,0.5,0.3,0.7C132.8,57.7,133,57.8,133.3,57.8z"/>
		<path d="M139.5,58.7h0.7v-0.3h-1.8v0.3h0.6l-0.2,0.5l-0.8,1.9c-0.3-0.9-0.5-1.4-0.8-1.9l-0.2-0.5h0.7v-0.3h-3.5l0,0
			c-0.8,0-0.8,0-1.6,0.1h-1.1v0.3h0.7l0,0.8v3l0,0.6h-0.2h-0.5h-0.2l0-0.7v-2.4c0-0.4,0-1.1-0.4-1.4c-0.3-0.3-0.9-0.4-1.4-0.4
			c-1.1,0-1.5,0.6-1.7,1v-2.4l0-0.8c-0.7,0.1-1,0.1-1.7,0.1h-1v0.3h0.7l0,0.7v5.3l0,0.7h-0.7v0.3h3.3v-0.3h-0.6l0-0.7v-1.7
			c0-0.5,0-1,0.2-1.5c0.2-0.3,0.5-0.6,0.7-0.6c0.4,0,0.5,0.3,0.5,0.4c0.1,0.3,0.1,1.1,0.1,1.4v1.9l0,0.7h-0.6v0.3h2.8h0.5h2.9v-0.3
			h-0.7l0-0.7v-3.3l0-0.5h0.6l0.3,0.5l1.9,4.4h0.3l1.8-4.3L139.5,58.7z"/>
		<path d="M142.6,63.1c-0.9,0-1.2-0.8-1.2-1c-0.1-0.5-0.1-0.9-0.1-1.4h3.4c0-0.6-0.1-1.2-0.7-1.8c-0.6-0.6-1.5-0.7-2-0.7
			c-2,0-2.9,1.4-2.9,2.7c0,1.3,0.8,2.7,2.9,2.7c1.7,0,2.2-0.9,2.6-1.6l-0.3-0.2C144,62.3,143.5,63.1,142.6,63.1z M141.4,59.1
			c0.1-0.4,0.4-0.5,0.5-0.5c0.1,0,0.3,0,0.5,0.5c0.1,0.4,0.1,0.8,0.1,1.3h-1.2C141.3,60,141.3,59.5,141.4,59.1z"/>
	</g>
</g>
<path d="M18,53.6l-0.9-0.4c-0.9-0.4-2.1-1-2.1-2.1c0-1.2,1-2.1,2.3-2.1c1.2,0,1.8,0.5,2.3,1.5l1.2-0.8c-0.4-0.8-1-1.4-1.8-1.7h1.8
	V34.3h-2.7v13.4c-0.3-0.1-0.6-0.1-0.9-0.1c-2,0-3.8,1.4-3.8,3.5c0,1.9,1.4,2.8,3,3.5l0.8,0.4c1.3,0.6,2.5,1.1,2.5,2.7
	c0,1.5-1.3,2.6-2.8,2.6c-1.5,0-2.5-1.1-2.7-2.5l-1.5,0.4c0.4,2.1,2.1,3.5,4.2,3.5c2.4,0,4.3-1.8,4.3-4.2
	C21.2,55.3,19.7,54.4,18,53.6z M30.3,47.9l1.1-6.5l3.3,7.6l3.4-7.6l1.2,6.6l2.6,0l-2.9-14.6l-4.2,9.8l-4.2-9.8l-2.3,12h-3.4V34.3
	h-2.7V48h0.6h3.2c-2.8,0.9-4.8,3.6-4.8,6.7c0,3.9,3.2,7,7.1,7c3.9,0,7.1-3.1,7.1-7C35.3,51.5,33.2,48.8,30.3,47.9z M28.2,60.2
	c-3.1,0-5.6-2.6-5.6-5.6c0-3.1,2.4-5.6,5.6-5.6c3.1,0,5.6,2.5,5.6,5.6C33.8,57.7,31.3,60.2,28.2,60.2z M38.1,59
	c-0.6-0.9-0.6-2-0.6-3v-8.1H36v8.5c0,1.6,0.1,2.8,1.3,3.9c0.9,0.9,2.2,1.4,3.5,1.4c1.4,0,2.7-0.5,3.7-1.5c1.1-1.1,1.2-2.3,1.2-3.8
	v-8.5h-1.5v8.1c0,1.1,0.1,2.3-0.7,3.1c-0.6,0.8-1.7,1.2-2.7,1.2C39.9,60.2,38.7,59.8,38.1,59z M59,47.8h-1.5v10.5L46.9,47.3v14.2
	h1.5V51L59,62V47.8z M68.1,49.5c-1.6-1.4-3.3-1.6-5.3-1.6h-2.6v13.6h2.5c2.1,0,3.7-0.3,5.4-1.7c1.5-1.3,2.2-3.1,2.2-5.1
	C70.3,52.6,69.6,50.8,68.1,49.5z M67.1,58.6c-1.2,1.2-2.6,1.4-4.3,1.4h-1.1V49.2h1.1c1.6,0,3,0.2,4.2,1.3c1.2,1,1.8,2.5,1.8,4.1
	C68.8,56.1,68.2,57.6,67.1,58.6z M11.1,56.4L10,55.5l-1.5,1.8l-2.9-3.7C6.8,52.7,8,51.8,8,50.2c0-1.6-1.4-2.7-2.9-2.7
	c-1.7,0-3,1.2-3,2.9c0,1.1,0.7,2,1.4,2.9l-0.2,0.1C1.6,54.6,0,55.6,0,57.9c0,2.2,1.9,3.7,4,3.7c1.7,0,3.1-1.1,4.3-2.1l1.5,1.9h1.9
	l-2.3-3L11.1,56.4z M5.1,48.8c0.8,0,1.5,0.6,1.5,1.4c0,1.1-0.9,1.6-1.7,2.2l-0.1,0.1l-0.3-0.5c-0.4-0.5-0.8-1-0.8-1.7
	C3.6,49.5,4.3,48.8,5.1,48.8z M3.9,60.2c-1.3,0-2.4-1.2-2.4-2.5c0-1.4,1.2-2.2,2.3-2.9l0.6-0.4l3,3.9C6.4,59.2,5.2,60.2,3.9,60.2z
	 M17,39.2h-4.4v-2.4h4.5v-2.5H10V48h2.7v-6.2H17V39.2z M33.6,68.8h0.9l0.7-1.4h2.6l0.7,1.4h0.9l-2.8-6.2L33.6,68.8z M35.4,66.6
	l1-2.2l1,2.2H35.4z M41.4,66.3c0.8-0.1,1.4-0.8,1.4-1.7c0-0.6-0.3-1.1-0.8-1.4c-0.5-0.3-1-0.3-1.6-0.3h-0.9v5.9h0.8v-2.4h0.2
	l1.7,2.4h1l-0.1-0.1L41.4,66.3z M40.5,65.7h-0.2v-2h0.1c0.7,0,1.5,0.1,1.5,1C42,65.6,41.2,65.7,40.5,65.7z M46.4,62.8
	c-1.7,0-3.1,1.4-3.1,3.1c0,1.7,1.4,3,3.1,3c0.5,0,1.1-0.1,1.5-0.4l0,0v-1l-0.1,0.1c-0.4,0.4-1,0.6-1.5,0.6c-1.3,0-2.2-1.1-2.2-2.3
	c0-1.3,1-2.3,2.2-2.3c0.5,0,1.1,0.2,1.5,0.6l0.1,0.1v-1l0,0C47.4,63,46.9,62.8,46.4,62.8z M52,65.3h-2.7V63h-0.8v5.9h0.8v-2.8H52
	v2.8h0.8V63H52V65.3z M53.7,68.8h0.8V63h-0.8V68.8z M57.4,67.2L55.7,63h-0.9l2.6,6.3L60,63h-0.9L57.4,67.2z M60.3,68.8h3.2v-0.7
	h-2.4V66h2.3v-0.7h-2.3v-1.5h2.4V63h-3.2V68.8z M2.4,29.3l2.7,3.5h1.6v-5.9H5.1v3.5l-2.7-3.5H0.8v5.9h1.6V29.3z M9,31.8h2l0.4,1h1.7
	l-2.2-5.9H9.2l-2.3,5.9h1.7L9,31.8z M10,28.8l0.6,1.7H9.5L10,28.8z M13.5,32.8h1.6v-4.5h1.2v-1.4h-4.1v1.4h1.2V32.8z M18.5,26.9
	h-1.6v5.9h1.6V26.9z M22.1,33c1.9,0,3.2-1.3,3.2-3.2c0-1.8-1.6-3-3.2-3c-1.7,0-3.2,1.2-3.2,3C18.8,31.6,20.2,32.9,22.1,33z
	 M22.1,28.2c0.9,0,1.6,0.7,1.6,1.5c0,1-0.7,1.7-1.6,1.7c-0.9,0-1.6-0.7-1.6-1.7C20.5,29,21.2,28.2,22.1,28.2z M27.3,29.3l2.7,3.5
	h1.6v-5.9h-1.6v3.5l-2.7-3.5h-1.6v5.9h1.6V29.3z M33.7,31.8h2l0.4,1h1.7l-2.2-5.9h-1.7l-2.3,5.9h1.7L33.7,31.8z M34.7,28.8l0.6,1.7
	h-1.1L34.7,28.8z M41.3,31.4h-1.8v-4.5h-1.6v5.9h3.4V31.4z"/>
</svg>
