<svg width="467px" height="165px" viewBox="0 0 467 165" version="1.1" xmlns="http://www.w3.org/2000/svg" xmlns:xlink="http://www.w3.org/1999/xlink">

<g>
	<path fill="#522D6D" d="M72.34-0.41L0.544,38.351v86.438l71.763,39.623l71.899-38.417V38.694L72.34-0.41z M137.457,73.454
		l-24.62-11.596l24.62-15.123V73.454z M69.125,148.007l-26.64-46.764l26.64-77.534V148.007z M106.961,57.545L81.099,12.04
		l52.996,28.836L106.961,57.545z M102.07,62.6l-26.195,77.6V16.509L102.07,62.6z M38.033,93.428L8.561,41.693l58.008-31.317
		L38.033,93.428z M34.056,100.083l-26.761,16.5V53.107L34.056,100.083z M37.399,105.952l26.158,45.918l-53.09-29.313L37.399,105.952
		z M106.539,70.464l29.646,52.163l-57.653,30.805L106.539,70.464z M113.95,69.843l23.506,11.072v30.288L113.95,69.843z"/>
</g>
<g>
	<path fill="#522D6D" d="M185.19,12.071h44.353c23.808,0,37.44,16.704,37.44,36.288c0,19.584-14.017,36.288-37.44,36.288h-38.208
		v55.488h-6.144V12.071z M229.351,17.832h-38.017v61.056h38.017c18.816,0,30.912-12.864,30.912-30.528
		C260.263,30.695,248.167,17.832,229.351,17.832z"/>
	<path fill="#522D6D" d="M284.067,12.071h44.352c23.809,0,37.44,16.704,37.44,36.288c0,19.584-14.016,36.288-37.44,36.288h-38.208
		v55.488h-6.144V12.071z M328.228,17.832h-38.017v61.056h38.017c18.816,0,30.912-12.864,30.912-30.528
		C359.14,30.695,347.044,17.832,328.228,17.832z"/>
	<path fill="#522D6D" d="M419.808,84.84h-30.721v55.296h-6.144V12.071h44.16c20.736,0,37.824,12.864,37.824,36.288
		c0,23.424-17.088,36.48-37.824,36.48l39.552,55.296h-7.872L419.808,84.84z M427.104,17.832h-38.017V79.08h38.017
		c18.815,0,31.104-13.056,31.104-30.72C458.208,30.695,445.919,17.832,427.104,17.832z"/>
</g>
</svg>
